<?xml version="1.0" encoding="utf-8" standalone="no"?>
<!DOCTYPE svg PUBLIC "-//W3C//DTD SVG 1.1//EN"
  "http://www.w3.org/Graphics/SVG/1.1/DTD/svg11.dtd">
<svg xmlns:xlink="http://www.w3.org/1999/xlink" width="720pt" height="432pt" viewBox="0 0 720 432" xmlns="http://www.w3.org/2000/svg" version="1.1">
 <metadata>
  <rdf:RDF xmlns:dc="http://purl.org/dc/elements/1.1/" xmlns:cc="http://creativecommons.org/ns#" xmlns:rdf="http://www.w3.org/1999/02/22-rdf-syntax-ns#">
   <cc:Work>
    <dc:type rdf:resource="http://purl.org/dc/dcmitype/StillImage"/>
    <dc:date>2025-10-26T14:47:30.623010</dc:date>
    <dc:format>image/svg+xml</dc:format>
    <dc:creator>
     <cc:Agent>
      <dc:title>Matplotlib v3.10.5, https://matplotlib.org/</dc:title>
     </cc:Agent>
    </dc:creator>
   </cc:Work>
  </rdf:RDF>
 </metadata>
 <defs>
  <style type="text/css">*{stroke-linejoin: round; stroke-linecap: butt}</style>
 </defs>
 <g id="figure_1">
  <g id="patch_1">
   <path d="M 0 432 
L 720 432 
L 720 0 
L 0 0 
z
" style="fill: #ffffff"/>
  </g>
  <g id="axes_1">
   <g id="patch_2">
    <path d="M 90 384.48 
L 648 384.48 
L 648 51.84 
L 90 51.84 
z
" style="fill: #ffffff"/>
   </g>
   <g id="matplotlib.axis_1">
    <g id="xtick_1">
     <g id="line2d_1">
      <path d="M 115.363636 384.48 
L 115.363636 51.84 
" clip-path="url(#pf2bd86066f)" style="fill: none; stroke: #b0b0b0; stroke-opacity: 0.3; stroke-width: 0.8; stroke-linecap: square"/>
     </g>
     <g id="line2d_2">
      <defs>
       <path id="m126a1479eb" d="M 0 0 
L 0 3.5 
" style="stroke: #000000; stroke-width: 0.8"/>
      </defs>
      <g>
       <use xlink:href="#m126a1479eb" x="115.363636" y="384.48" style="stroke: #000000; stroke-width: 0.8"/>
      </g>
     </g>
     <g id="text_1">
      <!-- 0 -->
      <g transform="translate(110.273636 403.6375) scale(0.16 -0.16)">
       <defs>
        <path id="DejaVuSans-30" d="M 2034 4250 
Q 1547 4250 1301 3770 
Q 1056 3291 1056 2328 
Q 1056 1369 1301 889 
Q 1547 409 2034 409 
Q 2525 409 2770 889 
Q 3016 1369 3016 2328 
Q 3016 3291 2770 3770 
Q 2525 4250 2034 4250 
z
M 2034 4750 
Q 2819 4750 3233 4129 
Q 3647 3509 3647 2328 
Q 3647 1150 3233 529 
Q 2819 -91 2034 -91 
Q 1250 -91 836 529 
Q 422 1150 422 2328 
Q 422 3509 836 4129 
Q 1250 4750 2034 4750 
z
" transform="scale(0.015625)"/>
       </defs>
       <use xlink:href="#DejaVuSans-30"/>
      </g>
     </g>
    </g>
    <g id="xtick_2">
     <g id="line2d_3">
      <path d="M 199.937282 384.48 
L 199.937282 51.84 
" clip-path="url(#pf2bd86066f)" style="fill: none; stroke: #b0b0b0; stroke-opacity: 0.3; stroke-width: 0.8; stroke-linecap: square"/>
     </g>
     <g id="line2d_4">
      <g>
       <use xlink:href="#m126a1479eb" x="199.937282" y="384.48" style="stroke: #000000; stroke-width: 0.8"/>
      </g>
     </g>
     <g id="text_2">
      <!-- 500 -->
      <g transform="translate(184.667282 403.6375) scale(0.16 -0.16)">
       <defs>
        <path id="DejaVuSans-35" d="M 691 4666 
L 3169 4666 
L 3169 4134 
L 1269 4134 
L 1269 2991 
Q 1406 3038 1543 3061 
Q 1681 3084 1819 3084 
Q 2600 3084 3056 2656 
Q 3513 2228 3513 1497 
Q 3513 744 3044 326 
Q 2575 -91 1722 -91 
Q 1428 -91 1123 -41 
Q 819 9 494 109 
L 494 744 
Q 775 591 1075 516 
Q 1375 441 1709 441 
Q 2250 441 2565 725 
Q 2881 1009 2881 1497 
Q 2881 1984 2565 2268 
Q 2250 2553 1709 2553 
Q 1456 2553 1204 2497 
Q 953 2441 691 2322 
L 691 4666 
z
" transform="scale(0.015625)"/>
       </defs>
       <use xlink:href="#DejaVuSans-35"/>
       <use xlink:href="#DejaVuSans-30" transform="translate(63.623047 0)"/>
       <use xlink:href="#DejaVuSans-30" transform="translate(127.246094 0)"/>
      </g>
     </g>
    </g>
    <g id="xtick_3">
     <g id="line2d_5">
      <path d="M 284.510928 384.48 
L 284.510928 51.84 
" clip-path="url(#pf2bd86066f)" style="fill: none; stroke: #b0b0b0; stroke-opacity: 0.3; stroke-width: 0.8; stroke-linecap: square"/>
     </g>
     <g id="line2d_6">
      <g>
       <use xlink:href="#m126a1479eb" x="284.510928" y="384.48" style="stroke: #000000; stroke-width: 0.8"/>
      </g>
     </g>
     <g id="text_3">
      <!-- 1000 -->
      <g transform="translate(264.150928 403.6375) scale(0.16 -0.16)">
       <defs>
        <path id="DejaVuSans-31" d="M 794 531 
L 1825 531 
L 1825 4091 
L 703 3866 
L 703 4441 
L 1819 4666 
L 2450 4666 
L 2450 531 
L 3481 531 
L 3481 0 
L 794 0 
L 794 531 
z
" transform="scale(0.015625)"/>
       </defs>
       <use xlink:href="#DejaVuSans-31"/>
       <use xlink:href="#DejaVuSans-30" transform="translate(63.623047 0)"/>
       <use xlink:href="#DejaVuSans-30" transform="translate(127.246094 0)"/>
       <use xlink:href="#DejaVuSans-30" transform="translate(190.869141 0)"/>
      </g>
     </g>
    </g>
    <g id="xtick_4">
     <g id="line2d_7">
      <path d="M 369.084574 384.48 
L 369.084574 51.84 
" clip-path="url(#pf2bd86066f)" style="fill: none; stroke: #b0b0b0; stroke-opacity: 0.3; stroke-width: 0.8; stroke-linecap: square"/>
     </g>
     <g id="line2d_8">
      <g>
       <use xlink:href="#m126a1479eb" x="369.084574" y="384.48" style="stroke: #000000; stroke-width: 0.8"/>
      </g>
     </g>
     <g id="text_4">
      <!-- 1500 -->
      <g transform="translate(348.724574 403.6375) scale(0.16 -0.16)">
       <use xlink:href="#DejaVuSans-31"/>
       <use xlink:href="#DejaVuSans-35" transform="translate(63.623047 0)"/>
       <use xlink:href="#DejaVuSans-30" transform="translate(127.246094 0)"/>
       <use xlink:href="#DejaVuSans-30" transform="translate(190.869141 0)"/>
      </g>
     </g>
    </g>
    <g id="xtick_5">
     <g id="line2d_9">
      <path d="M 453.658219 384.48 
L 453.658219 51.84 
" clip-path="url(#pf2bd86066f)" style="fill: none; stroke: #b0b0b0; stroke-opacity: 0.3; stroke-width: 0.8; stroke-linecap: square"/>
     </g>
     <g id="line2d_10">
      <g>
       <use xlink:href="#m126a1479eb" x="453.658219" y="384.48" style="stroke: #000000; stroke-width: 0.8"/>
      </g>
     </g>
     <g id="text_5">
      <!-- 2000 -->
      <g transform="translate(433.298219 403.6375) scale(0.16 -0.16)">
       <defs>
        <path id="DejaVuSans-32" d="M 1228 531 
L 3431 531 
L 3431 0 
L 469 0 
L 469 531 
Q 828 903 1448 1529 
Q 2069 2156 2228 2338 
Q 2531 2678 2651 2914 
Q 2772 3150 2772 3378 
Q 2772 3750 2511 3984 
Q 2250 4219 1831 4219 
Q 1534 4219 1204 4116 
Q 875 4013 500 3803 
L 500 4441 
Q 881 4594 1212 4672 
Q 1544 4750 1819 4750 
Q 2544 4750 2975 4387 
Q 3406 4025 3406 3419 
Q 3406 3131 3298 2873 
Q 3191 2616 2906 2266 
Q 2828 2175 2409 1742 
Q 1991 1309 1228 531 
z
" transform="scale(0.015625)"/>
       </defs>
       <use xlink:href="#DejaVuSans-32"/>
       <use xlink:href="#DejaVuSans-30" transform="translate(63.623047 0)"/>
       <use xlink:href="#DejaVuSans-30" transform="translate(127.246094 0)"/>
       <use xlink:href="#DejaVuSans-30" transform="translate(190.869141 0)"/>
      </g>
     </g>
    </g>
    <g id="xtick_6">
     <g id="line2d_11">
      <path d="M 538.231865 384.48 
L 538.231865 51.84 
" clip-path="url(#pf2bd86066f)" style="fill: none; stroke: #b0b0b0; stroke-opacity: 0.3; stroke-width: 0.8; stroke-linecap: square"/>
     </g>
     <g id="line2d_12">
      <g>
       <use xlink:href="#m126a1479eb" x="538.231865" y="384.48" style="stroke: #000000; stroke-width: 0.8"/>
      </g>
     </g>
     <g id="text_6">
      <!-- 2500 -->
      <g transform="translate(517.871865 403.6375) scale(0.16 -0.16)">
       <use xlink:href="#DejaVuSans-32"/>
       <use xlink:href="#DejaVuSans-35" transform="translate(63.623047 0)"/>
       <use xlink:href="#DejaVuSans-30" transform="translate(127.246094 0)"/>
       <use xlink:href="#DejaVuSans-30" transform="translate(190.869141 0)"/>
      </g>
     </g>
    </g>
    <g id="xtick_7">
     <g id="line2d_13">
      <path d="M 622.805511 384.48 
L 622.805511 51.84 
" clip-path="url(#pf2bd86066f)" style="fill: none; stroke: #b0b0b0; stroke-opacity: 0.3; stroke-width: 0.8; stroke-linecap: square"/>
     </g>
     <g id="line2d_14">
      <g>
       <use xlink:href="#m126a1479eb" x="622.805511" y="384.48" style="stroke: #000000; stroke-width: 0.8"/>
      </g>
     </g>
     <g id="text_7">
      <!-- 3000 -->
      <g transform="translate(602.445511 403.6375) scale(0.16 -0.16)">
       <defs>
        <path id="DejaVuSans-33" d="M 2597 2516 
Q 3050 2419 3304 2112 
Q 3559 1806 3559 1356 
Q 3559 666 3084 287 
Q 2609 -91 1734 -91 
Q 1441 -91 1130 -33 
Q 819 25 488 141 
L 488 750 
Q 750 597 1062 519 
Q 1375 441 1716 441 
Q 2309 441 2620 675 
Q 2931 909 2931 1356 
Q 2931 1769 2642 2001 
Q 2353 2234 1838 2234 
L 1294 2234 
L 1294 2753 
L 1863 2753 
Q 2328 2753 2575 2939 
Q 2822 3125 2822 3475 
Q 2822 3834 2567 4026 
Q 2313 4219 1838 4219 
Q 1578 4219 1281 4162 
Q 984 4106 628 3988 
L 628 4550 
Q 988 4650 1302 4700 
Q 1616 4750 1894 4750 
Q 2613 4750 3031 4423 
Q 3450 4097 3450 3541 
Q 3450 3153 3228 2886 
Q 3006 2619 2597 2516 
z
" transform="scale(0.015625)"/>
       </defs>
       <use xlink:href="#DejaVuSans-33"/>
       <use xlink:href="#DejaVuSans-30" transform="translate(63.623047 0)"/>
       <use xlink:href="#DejaVuSans-30" transform="translate(127.246094 0)"/>
       <use xlink:href="#DejaVuSans-30" transform="translate(190.869141 0)"/>
      </g>
     </g>
    </g>
    <g id="text_8">
     <!-- Época -->
     <g transform="translate(344.67 425.8025) scale(0.16 -0.16)">
      <defs>
       <path id="DejaVuSans-c9" d="M 628 4666 
L 3578 4666 
L 3578 4134 
L 1259 4134 
L 1259 2753 
L 3481 2753 
L 3481 2222 
L 1259 2222 
L 1259 531 
L 3634 531 
L 3634 0 
L 628 0 
L 628 4666 
z
M 2266 5935 
L 2844 5935 
L 2131 5110 
L 1653 5110 
L 2266 5935 
z
" transform="scale(0.015625)"/>
       <path id="DejaVuSans-70" d="M 1159 525 
L 1159 -1331 
L 581 -1331 
L 581 3500 
L 1159 3500 
L 1159 2969 
Q 1341 3281 1617 3432 
Q 1894 3584 2278 3584 
Q 2916 3584 3314 3078 
Q 3713 2572 3713 1747 
Q 3713 922 3314 415 
Q 2916 -91 2278 -91 
Q 1894 -91 1617 61 
Q 1341 213 1159 525 
z
M 3116 1747 
Q 3116 2381 2855 2742 
Q 2594 3103 2138 3103 
Q 1681 3103 1420 2742 
Q 1159 2381 1159 1747 
Q 1159 1113 1420 752 
Q 1681 391 2138 391 
Q 2594 391 2855 752 
Q 3116 1113 3116 1747 
z
" transform="scale(0.015625)"/>
       <path id="DejaVuSans-6f" d="M 1959 3097 
Q 1497 3097 1228 2736 
Q 959 2375 959 1747 
Q 959 1119 1226 758 
Q 1494 397 1959 397 
Q 2419 397 2687 759 
Q 2956 1122 2956 1747 
Q 2956 2369 2687 2733 
Q 2419 3097 1959 3097 
z
M 1959 3584 
Q 2709 3584 3137 3096 
Q 3566 2609 3566 1747 
Q 3566 888 3137 398 
Q 2709 -91 1959 -91 
Q 1206 -91 779 398 
Q 353 888 353 1747 
Q 353 2609 779 3096 
Q 1206 3584 1959 3584 
z
" transform="scale(0.015625)"/>
       <path id="DejaVuSans-63" d="M 3122 3366 
L 3122 2828 
Q 2878 2963 2633 3030 
Q 2388 3097 2138 3097 
Q 1578 3097 1268 2742 
Q 959 2388 959 1747 
Q 959 1106 1268 751 
Q 1578 397 2138 397 
Q 2388 397 2633 464 
Q 2878 531 3122 666 
L 3122 134 
Q 2881 22 2623 -34 
Q 2366 -91 2075 -91 
Q 1284 -91 818 406 
Q 353 903 353 1747 
Q 353 2603 823 3093 
Q 1294 3584 2113 3584 
Q 2378 3584 2631 3529 
Q 2884 3475 3122 3366 
z
" transform="scale(0.015625)"/>
       <path id="DejaVuSans-61" d="M 2194 1759 
Q 1497 1759 1228 1600 
Q 959 1441 959 1056 
Q 959 750 1161 570 
Q 1363 391 1709 391 
Q 2188 391 2477 730 
Q 2766 1069 2766 1631 
L 2766 1759 
L 2194 1759 
z
M 3341 1997 
L 3341 0 
L 2766 0 
L 2766 531 
Q 2569 213 2275 61 
Q 1981 -91 1556 -91 
Q 1019 -91 701 211 
Q 384 513 384 1019 
Q 384 1609 779 1909 
Q 1175 2209 1959 2209 
L 2766 2209 
L 2766 2266 
Q 2766 2663 2505 2880 
Q 2244 3097 1772 3097 
Q 1472 3097 1187 3025 
Q 903 2953 641 2809 
L 641 3341 
Q 956 3463 1253 3523 
Q 1550 3584 1831 3584 
Q 2591 3584 2966 3190 
Q 3341 2797 3341 1997 
z
" transform="scale(0.015625)"/>
      </defs>
      <use xlink:href="#DejaVuSans-c9"/>
      <use xlink:href="#DejaVuSans-70" transform="translate(63.183594 0)"/>
      <use xlink:href="#DejaVuSans-6f" transform="translate(126.660156 0)"/>
      <use xlink:href="#DejaVuSans-63" transform="translate(187.841797 0)"/>
      <use xlink:href="#DejaVuSans-61" transform="translate(242.822266 0)"/>
     </g>
    </g>
   </g>
   <g id="matplotlib.axis_2">
    <g id="ytick_1">
     <g id="line2d_15">
      <path d="M 90 371.329636 
L 648 371.329636 
" clip-path="url(#pf2bd86066f)" style="fill: none; stroke: #b0b0b0; stroke-opacity: 0.3; stroke-width: 0.8; stroke-linecap: square"/>
     </g>
     <g id="line2d_16">
      <defs>
       <path id="m581bd1c98b" d="M 0 0 
L -3.5 0 
" style="stroke: #000000; stroke-width: 0.8"/>
      </defs>
      <g>
       <use xlink:href="#m581bd1c98b" x="90" y="371.329636" style="stroke: #000000; stroke-width: 0.8"/>
      </g>
     </g>
     <g id="text_9">
      <!-- 0.00 -->
      <g transform="translate(47.375 377.408386) scale(0.16 -0.16)">
       <defs>
        <path id="DejaVuSans-2e" d="M 684 794 
L 1344 794 
L 1344 0 
L 684 0 
L 684 794 
z
" transform="scale(0.015625)"/>
       </defs>
       <use xlink:href="#DejaVuSans-30"/>
       <use xlink:href="#DejaVuSans-2e" transform="translate(63.623047 0)"/>
       <use xlink:href="#DejaVuSans-30" transform="translate(95.410156 0)"/>
       <use xlink:href="#DejaVuSans-30" transform="translate(159.033203 0)"/>
      </g>
     </g>
    </g>
    <g id="ytick_2">
     <g id="line2d_17">
      <path d="M 90 327.675166 
L 648 327.675166 
" clip-path="url(#pf2bd86066f)" style="fill: none; stroke: #b0b0b0; stroke-opacity: 0.3; stroke-width: 0.8; stroke-linecap: square"/>
     </g>
     <g id="line2d_18">
      <g>
       <use xlink:href="#m581bd1c98b" x="90" y="327.675166" style="stroke: #000000; stroke-width: 0.8"/>
      </g>
     </g>
     <g id="text_10">
      <!-- 0.02 -->
      <g transform="translate(47.375 333.753916) scale(0.16 -0.16)">
       <use xlink:href="#DejaVuSans-30"/>
       <use xlink:href="#DejaVuSans-2e" transform="translate(63.623047 0)"/>
       <use xlink:href="#DejaVuSans-30" transform="translate(95.410156 0)"/>
       <use xlink:href="#DejaVuSans-32" transform="translate(159.033203 0)"/>
      </g>
     </g>
    </g>
    <g id="ytick_3">
     <g id="line2d_19">
      <path d="M 90 284.020696 
L 648 284.020696 
" clip-path="url(#pf2bd86066f)" style="fill: none; stroke: #b0b0b0; stroke-opacity: 0.3; stroke-width: 0.8; stroke-linecap: square"/>
     </g>
     <g id="line2d_20">
      <g>
       <use xlink:href="#m581bd1c98b" x="90" y="284.020696" style="stroke: #000000; stroke-width: 0.8"/>
      </g>
     </g>
     <g id="text_11">
      <!-- 0.04 -->
      <g transform="translate(47.375 290.099446) scale(0.16 -0.16)">
       <defs>
        <path id="DejaVuSans-34" d="M 2419 4116 
L 825 1625 
L 2419 1625 
L 2419 4116 
z
M 2253 4666 
L 3047 4666 
L 3047 1625 
L 3713 1625 
L 3713 1100 
L 3047 1100 
L 3047 0 
L 2419 0 
L 2419 1100 
L 313 1100 
L 313 1709 
L 2253 4666 
z
" transform="scale(0.015625)"/>
       </defs>
       <use xlink:href="#DejaVuSans-30"/>
       <use xlink:href="#DejaVuSans-2e" transform="translate(63.623047 0)"/>
       <use xlink:href="#DejaVuSans-30" transform="translate(95.410156 0)"/>
       <use xlink:href="#DejaVuSans-34" transform="translate(159.033203 0)"/>
      </g>
     </g>
    </g>
    <g id="ytick_4">
     <g id="line2d_21">
      <path d="M 90 240.366225 
L 648 240.366225 
" clip-path="url(#pf2bd86066f)" style="fill: none; stroke: #b0b0b0; stroke-opacity: 0.3; stroke-width: 0.8; stroke-linecap: square"/>
     </g>
     <g id="line2d_22">
      <g>
       <use xlink:href="#m581bd1c98b" x="90" y="240.366225" style="stroke: #000000; stroke-width: 0.8"/>
      </g>
     </g>
     <g id="text_12">
      <!-- 0.06 -->
      <g transform="translate(47.375 246.444975) scale(0.16 -0.16)">
       <defs>
        <path id="DejaVuSans-36" d="M 2113 2584 
Q 1688 2584 1439 2293 
Q 1191 2003 1191 1497 
Q 1191 994 1439 701 
Q 1688 409 2113 409 
Q 2538 409 2786 701 
Q 3034 994 3034 1497 
Q 3034 2003 2786 2293 
Q 2538 2584 2113 2584 
z
M 3366 4563 
L 3366 3988 
Q 3128 4100 2886 4159 
Q 2644 4219 2406 4219 
Q 1781 4219 1451 3797 
Q 1122 3375 1075 2522 
Q 1259 2794 1537 2939 
Q 1816 3084 2150 3084 
Q 2853 3084 3261 2657 
Q 3669 2231 3669 1497 
Q 3669 778 3244 343 
Q 2819 -91 2113 -91 
Q 1303 -91 875 529 
Q 447 1150 447 2328 
Q 447 3434 972 4092 
Q 1497 4750 2381 4750 
Q 2619 4750 2861 4703 
Q 3103 4656 3366 4563 
z
" transform="scale(0.015625)"/>
       </defs>
       <use xlink:href="#DejaVuSans-30"/>
       <use xlink:href="#DejaVuSans-2e" transform="translate(63.623047 0)"/>
       <use xlink:href="#DejaVuSans-30" transform="translate(95.410156 0)"/>
       <use xlink:href="#DejaVuSans-36" transform="translate(159.033203 0)"/>
      </g>
     </g>
    </g>
    <g id="ytick_5">
     <g id="line2d_23">
      <path d="M 90 196.711755 
L 648 196.711755 
" clip-path="url(#pf2bd86066f)" style="fill: none; stroke: #b0b0b0; stroke-opacity: 0.3; stroke-width: 0.8; stroke-linecap: square"/>
     </g>
     <g id="line2d_24">
      <g>
       <use xlink:href="#m581bd1c98b" x="90" y="196.711755" style="stroke: #000000; stroke-width: 0.8"/>
      </g>
     </g>
     <g id="text_13">
      <!-- 0.08 -->
      <g transform="translate(47.375 202.790505) scale(0.16 -0.16)">
       <defs>
        <path id="DejaVuSans-38" d="M 2034 2216 
Q 1584 2216 1326 1975 
Q 1069 1734 1069 1313 
Q 1069 891 1326 650 
Q 1584 409 2034 409 
Q 2484 409 2743 651 
Q 3003 894 3003 1313 
Q 3003 1734 2745 1975 
Q 2488 2216 2034 2216 
z
M 1403 2484 
Q 997 2584 770 2862 
Q 544 3141 544 3541 
Q 544 4100 942 4425 
Q 1341 4750 2034 4750 
Q 2731 4750 3128 4425 
Q 3525 4100 3525 3541 
Q 3525 3141 3298 2862 
Q 3072 2584 2669 2484 
Q 3125 2378 3379 2068 
Q 3634 1759 3634 1313 
Q 3634 634 3220 271 
Q 2806 -91 2034 -91 
Q 1263 -91 848 271 
Q 434 634 434 1313 
Q 434 1759 690 2068 
Q 947 2378 1403 2484 
z
M 1172 3481 
Q 1172 3119 1398 2916 
Q 1625 2713 2034 2713 
Q 2441 2713 2670 2916 
Q 2900 3119 2900 3481 
Q 2900 3844 2670 4047 
Q 2441 4250 2034 4250 
Q 1625 4250 1398 4047 
Q 1172 3844 1172 3481 
z
" transform="scale(0.015625)"/>
       </defs>
       <use xlink:href="#DejaVuSans-30"/>
       <use xlink:href="#DejaVuSans-2e" transform="translate(63.623047 0)"/>
       <use xlink:href="#DejaVuSans-30" transform="translate(95.410156 0)"/>
       <use xlink:href="#DejaVuSans-38" transform="translate(159.033203 0)"/>
      </g>
     </g>
    </g>
    <g id="ytick_6">
     <g id="line2d_25">
      <path d="M 90 153.057284 
L 648 153.057284 
" clip-path="url(#pf2bd86066f)" style="fill: none; stroke: #b0b0b0; stroke-opacity: 0.3; stroke-width: 0.8; stroke-linecap: square"/>
     </g>
     <g id="line2d_26">
      <g>
       <use xlink:href="#m581bd1c98b" x="90" y="153.057284" style="stroke: #000000; stroke-width: 0.8"/>
      </g>
     </g>
     <g id="text_14">
      <!-- 0.10 -->
      <g transform="translate(47.375 159.136034) scale(0.16 -0.16)">
       <use xlink:href="#DejaVuSans-30"/>
       <use xlink:href="#DejaVuSans-2e" transform="translate(63.623047 0)"/>
       <use xlink:href="#DejaVuSans-31" transform="translate(95.410156 0)"/>
       <use xlink:href="#DejaVuSans-30" transform="translate(159.033203 0)"/>
      </g>
     </g>
    </g>
    <g id="ytick_7">
     <g id="line2d_27">
      <path d="M 90 109.402814 
L 648 109.402814 
" clip-path="url(#pf2bd86066f)" style="fill: none; stroke: #b0b0b0; stroke-opacity: 0.3; stroke-width: 0.8; stroke-linecap: square"/>
     </g>
     <g id="line2d_28">
      <g>
       <use xlink:href="#m581bd1c98b" x="90" y="109.402814" style="stroke: #000000; stroke-width: 0.8"/>
      </g>
     </g>
     <g id="text_15">
      <!-- 0.12 -->
      <g transform="translate(47.375 115.481564) scale(0.16 -0.16)">
       <use xlink:href="#DejaVuSans-30"/>
       <use xlink:href="#DejaVuSans-2e" transform="translate(63.623047 0)"/>
       <use xlink:href="#DejaVuSans-31" transform="translate(95.410156 0)"/>
       <use xlink:href="#DejaVuSans-32" transform="translate(159.033203 0)"/>
      </g>
     </g>
    </g>
    <g id="ytick_8">
     <g id="line2d_29">
      <path d="M 90 65.748344 
L 648 65.748344 
" clip-path="url(#pf2bd86066f)" style="fill: none; stroke: #b0b0b0; stroke-opacity: 0.3; stroke-width: 0.8; stroke-linecap: square"/>
     </g>
     <g id="line2d_30">
      <g>
       <use xlink:href="#m581bd1c98b" x="90" y="65.748344" style="stroke: #000000; stroke-width: 0.8"/>
      </g>
     </g>
     <g id="text_16">
      <!-- 0.14 -->
      <g transform="translate(47.375 71.827094) scale(0.16 -0.16)">
       <use xlink:href="#DejaVuSans-30"/>
       <use xlink:href="#DejaVuSans-2e" transform="translate(63.623047 0)"/>
       <use xlink:href="#DejaVuSans-31" transform="translate(95.410156 0)"/>
       <use xlink:href="#DejaVuSans-34" transform="translate(159.033203 0)"/>
      </g>
     </g>
    </g>
    <g id="text_17">
     <!-- Error Cuadrático Medio (MSE) -->
     <g transform="translate(40.0475 336.065) rotate(-90) scale(0.16 -0.16)">
      <defs>
       <path id="DejaVuSans-45" d="M 628 4666 
L 3578 4666 
L 3578 4134 
L 1259 4134 
L 1259 2753 
L 3481 2753 
L 3481 2222 
L 1259 2222 
L 1259 531 
L 3634 531 
L 3634 0 
L 628 0 
L 628 4666 
z
" transform="scale(0.015625)"/>
       <path id="DejaVuSans-72" d="M 2631 2963 
Q 2534 3019 2420 3045 
Q 2306 3072 2169 3072 
Q 1681 3072 1420 2755 
Q 1159 2438 1159 1844 
L 1159 0 
L 581 0 
L 581 3500 
L 1159 3500 
L 1159 2956 
Q 1341 3275 1631 3429 
Q 1922 3584 2338 3584 
Q 2397 3584 2469 3576 
Q 2541 3569 2628 3553 
L 2631 2963 
z
" transform="scale(0.015625)"/>
       <path id="DejaVuSans-20" transform="scale(0.015625)"/>
       <path id="DejaVuSans-43" d="M 4122 4306 
L 4122 3641 
Q 3803 3938 3442 4084 
Q 3081 4231 2675 4231 
Q 1875 4231 1450 3742 
Q 1025 3253 1025 2328 
Q 1025 1406 1450 917 
Q 1875 428 2675 428 
Q 3081 428 3442 575 
Q 3803 722 4122 1019 
L 4122 359 
Q 3791 134 3420 21 
Q 3050 -91 2638 -91 
Q 1578 -91 968 557 
Q 359 1206 359 2328 
Q 359 3453 968 4101 
Q 1578 4750 2638 4750 
Q 3056 4750 3426 4639 
Q 3797 4528 4122 4306 
z
" transform="scale(0.015625)"/>
       <path id="DejaVuSans-75" d="M 544 1381 
L 544 3500 
L 1119 3500 
L 1119 1403 
Q 1119 906 1312 657 
Q 1506 409 1894 409 
Q 2359 409 2629 706 
Q 2900 1003 2900 1516 
L 2900 3500 
L 3475 3500 
L 3475 0 
L 2900 0 
L 2900 538 
Q 2691 219 2414 64 
Q 2138 -91 1772 -91 
Q 1169 -91 856 284 
Q 544 659 544 1381 
z
M 1991 3584 
L 1991 3584 
z
" transform="scale(0.015625)"/>
       <path id="DejaVuSans-64" d="M 2906 2969 
L 2906 4863 
L 3481 4863 
L 3481 0 
L 2906 0 
L 2906 525 
Q 2725 213 2448 61 
Q 2172 -91 1784 -91 
Q 1150 -91 751 415 
Q 353 922 353 1747 
Q 353 2572 751 3078 
Q 1150 3584 1784 3584 
Q 2172 3584 2448 3432 
Q 2725 3281 2906 2969 
z
M 947 1747 
Q 947 1113 1208 752 
Q 1469 391 1925 391 
Q 2381 391 2643 752 
Q 2906 1113 2906 1747 
Q 2906 2381 2643 2742 
Q 2381 3103 1925 3103 
Q 1469 3103 1208 2742 
Q 947 2381 947 1747 
z
" transform="scale(0.015625)"/>
       <path id="DejaVuSans-e1" d="M 2194 1759 
Q 1497 1759 1228 1600 
Q 959 1441 959 1056 
Q 959 750 1161 570 
Q 1363 391 1709 391 
Q 2188 391 2477 730 
Q 2766 1069 2766 1631 
L 2766 1759 
L 2194 1759 
z
M 3341 1997 
L 3341 0 
L 2766 0 
L 2766 531 
Q 2569 213 2275 61 
Q 1981 -91 1556 -91 
Q 1019 -91 701 211 
Q 384 513 384 1019 
Q 384 1609 779 1909 
Q 1175 2209 1959 2209 
L 2766 2209 
L 2766 2266 
Q 2766 2663 2505 2880 
Q 2244 3097 1772 3097 
Q 1472 3097 1187 3025 
Q 903 2953 641 2809 
L 641 3341 
Q 956 3463 1253 3523 
Q 1550 3584 1831 3584 
Q 2591 3584 2966 3190 
Q 3341 2797 3341 1997 
z
M 2291 5119 
L 2913 5119 
L 1894 3944 
L 1416 3944 
L 2291 5119 
z
" transform="scale(0.015625)"/>
       <path id="DejaVuSans-74" d="M 1172 4494 
L 1172 3500 
L 2356 3500 
L 2356 3053 
L 1172 3053 
L 1172 1153 
Q 1172 725 1289 603 
Q 1406 481 1766 481 
L 2356 481 
L 2356 0 
L 1766 0 
Q 1100 0 847 248 
Q 594 497 594 1153 
L 594 3053 
L 172 3053 
L 172 3500 
L 594 3500 
L 594 4494 
L 1172 4494 
z
" transform="scale(0.015625)"/>
       <path id="DejaVuSans-69" d="M 603 3500 
L 1178 3500 
L 1178 0 
L 603 0 
L 603 3500 
z
M 603 4863 
L 1178 4863 
L 1178 4134 
L 603 4134 
L 603 4863 
z
" transform="scale(0.015625)"/>
       <path id="DejaVuSans-4d" d="M 628 4666 
L 1569 4666 
L 2759 1491 
L 3956 4666 
L 4897 4666 
L 4897 0 
L 4281 0 
L 4281 4097 
L 3078 897 
L 2444 897 
L 1241 4097 
L 1241 0 
L 628 0 
L 628 4666 
z
" transform="scale(0.015625)"/>
       <path id="DejaVuSans-65" d="M 3597 1894 
L 3597 1613 
L 953 1613 
Q 991 1019 1311 708 
Q 1631 397 2203 397 
Q 2534 397 2845 478 
Q 3156 559 3463 722 
L 3463 178 
Q 3153 47 2828 -22 
Q 2503 -91 2169 -91 
Q 1331 -91 842 396 
Q 353 884 353 1716 
Q 353 2575 817 3079 
Q 1281 3584 2069 3584 
Q 2775 3584 3186 3129 
Q 3597 2675 3597 1894 
z
M 3022 2063 
Q 3016 2534 2758 2815 
Q 2500 3097 2075 3097 
Q 1594 3097 1305 2825 
Q 1016 2553 972 2059 
L 3022 2063 
z
" transform="scale(0.015625)"/>
       <path id="DejaVuSans-28" d="M 1984 4856 
Q 1566 4138 1362 3434 
Q 1159 2731 1159 2009 
Q 1159 1288 1364 580 
Q 1569 -128 1984 -844 
L 1484 -844 
Q 1016 -109 783 600 
Q 550 1309 550 2009 
Q 550 2706 781 3412 
Q 1013 4119 1484 4856 
L 1984 4856 
z
" transform="scale(0.015625)"/>
       <path id="DejaVuSans-53" d="M 3425 4513 
L 3425 3897 
Q 3066 4069 2747 4153 
Q 2428 4238 2131 4238 
Q 1616 4238 1336 4038 
Q 1056 3838 1056 3469 
Q 1056 3159 1242 3001 
Q 1428 2844 1947 2747 
L 2328 2669 
Q 3034 2534 3370 2195 
Q 3706 1856 3706 1288 
Q 3706 609 3251 259 
Q 2797 -91 1919 -91 
Q 1588 -91 1214 -16 
Q 841 59 441 206 
L 441 856 
Q 825 641 1194 531 
Q 1563 422 1919 422 
Q 2459 422 2753 634 
Q 3047 847 3047 1241 
Q 3047 1584 2836 1778 
Q 2625 1972 2144 2069 
L 1759 2144 
Q 1053 2284 737 2584 
Q 422 2884 422 3419 
Q 422 4038 858 4394 
Q 1294 4750 2059 4750 
Q 2388 4750 2728 4690 
Q 3069 4631 3425 4513 
z
" transform="scale(0.015625)"/>
       <path id="DejaVuSans-29" d="M 513 4856 
L 1013 4856 
Q 1481 4119 1714 3412 
Q 1947 2706 1947 2009 
Q 1947 1309 1714 600 
Q 1481 -109 1013 -844 
L 513 -844 
Q 928 -128 1133 580 
Q 1338 1288 1338 2009 
Q 1338 2731 1133 3434 
Q 928 4138 513 4856 
z
" transform="scale(0.015625)"/>
      </defs>
      <use xlink:href="#DejaVuSans-45"/>
      <use xlink:href="#DejaVuSans-72" transform="translate(63.183594 0)"/>
      <use xlink:href="#DejaVuSans-72" transform="translate(102.546875 0)"/>
      <use xlink:href="#DejaVuSans-6f" transform="translate(141.410156 0)"/>
      <use xlink:href="#DejaVuSans-72" transform="translate(202.591797 0)"/>
      <use xlink:href="#DejaVuSans-20" transform="translate(243.705078 0)"/>
      <use xlink:href="#DejaVuSans-43" transform="translate(275.492188 0)"/>
      <use xlink:href="#DejaVuSans-75" transform="translate(345.316406 0)"/>
      <use xlink:href="#DejaVuSans-61" transform="translate(408.695312 0)"/>
      <use xlink:href="#DejaVuSans-64" transform="translate(469.974609 0)"/>
      <use xlink:href="#DejaVuSans-72" transform="translate(533.451172 0)"/>
      <use xlink:href="#DejaVuSans-e1" transform="translate(574.564453 0)"/>
      <use xlink:href="#DejaVuSans-74" transform="translate(635.84375 0)"/>
      <use xlink:href="#DejaVuSans-69" transform="translate(675.052734 0)"/>
      <use xlink:href="#DejaVuSans-63" transform="translate(702.835938 0)"/>
      <use xlink:href="#DejaVuSans-6f" transform="translate(757.816406 0)"/>
      <use xlink:href="#DejaVuSans-20" transform="translate(818.998047 0)"/>
      <use xlink:href="#DejaVuSans-4d" transform="translate(850.785156 0)"/>
      <use xlink:href="#DejaVuSans-65" transform="translate(937.064453 0)"/>
      <use xlink:href="#DejaVuSans-64" transform="translate(998.587891 0)"/>
      <use xlink:href="#DejaVuSans-69" transform="translate(1062.064453 0)"/>
      <use xlink:href="#DejaVuSans-6f" transform="translate(1089.847656 0)"/>
      <use xlink:href="#DejaVuSans-20" transform="translate(1151.029297 0)"/>
      <use xlink:href="#DejaVuSans-28" transform="translate(1182.816406 0)"/>
      <use xlink:href="#DejaVuSans-4d" transform="translate(1221.830078 0)"/>
      <use xlink:href="#DejaVuSans-53" transform="translate(1308.109375 0)"/>
      <use xlink:href="#DejaVuSans-45" transform="translate(1371.585938 0)"/>
      <use xlink:href="#DejaVuSans-29" transform="translate(1434.769531 0)"/>
     </g>
    </g>
   </g>
   <g id="line2d_31">
    <path d="M 115.363636 94.588003 
L 115.701931 96.658472 
L 115.871078 97.320556 
L 116.040226 97.494341 
L 116.209373 97.853799 
L 116.37852 66.96 
L 116.547667 97.761516 
L 116.716815 67.32378 
L 116.885962 67.409032 
L 117.055109 98.070244 
L 117.224257 67.501691 
L 117.393404 98.212486 
L 117.562551 67.479572 
L 117.731698 98.030093 
L 117.900846 98.211222 
L 118.069993 98.074952 
L 118.23914 67.559518 
L 118.408288 98.256783 
L 118.577435 98.107302 
L 118.746582 98.112956 
L 118.915729 98.272068 
L 119.254024 98.280914 
L 119.423171 67.607253 
L 119.592319 98.260959 
L 119.761466 98.27649 
L 119.930613 98.132347 
L 120.099761 67.638876 
L 120.268908 98.09801 
L 120.438055 67.839872 
L 120.607202 98.312926 
L 120.77635 98.161081 
L 120.945497 67.828068 
L 121.114644 98.304392 
L 121.283792 67.803037 
L 121.452939 67.740608 
L 121.622086 98.053741 
L 121.791233 98.258704 
L 121.960381 98.134275 
L 122.129528 98.312202 
L 122.298675 67.918186 
L 122.467823 98.192628 
L 122.63697 98.353173 
L 122.806117 98.200413 
L 122.975264 98.204266 
L 123.144412 98.362749 
L 123.651854 98.371446 
L 123.821001 67.951877 
L 123.990148 67.917189 
L 124.159296 98.285185 
L 124.49759 98.347173 
L 124.666737 98.207923 
L 124.835885 68.148525 
L 125.005032 98.392009 
L 125.174179 98.238542 
L 125.343327 98.241616 
L 125.512474 68.124052 
L 125.681621 98.214018 
L 125.850768 98.383976 
L 126.019916 98.239812 
L 126.189063 98.249515 
L 126.35821 98.410586 
L 126.527358 68.148579 
L 126.696505 68.266942 
L 126.865652 98.264338 
L 127.034799 98.424446 
L 127.203947 68.249716 
L 127.373094 98.243118 
L 127.711389 98.265966 
L 127.880536 68.266943 
L 128.049683 98.276484 
L 128.387978 98.285321 
L 128.557125 98.443865 
L 128.726272 68.274273 
L 128.89542 68.433008 
L 129.064567 98.45293 
L 129.233714 98.454879 
L 129.402862 68.355439 
L 129.572009 68.495573 
L 129.741156 68.427352 
L 129.910303 98.284562 
L 130.079451 68.408175 
L 130.248598 98.244594 
L 130.417745 98.426749 
L 130.586893 98.285375 
L 130.75604 98.453285 
L 130.925187 98.307027 
L 131.094334 68.574829 
L 131.263482 98.313742 
L 131.432629 68.538589 
L 131.601776 98.279986 
L 131.770924 68.587808 
L 131.940071 98.327681 
L 132.109218 98.329905 
L 132.278366 68.637919 
L 132.447513 98.309834 
L 132.61666 68.601131 
L 132.785807 68.539666 
L 132.954955 68.695418 
L 133.124102 98.476592 
L 133.293249 68.741087 
L 133.462397 68.817238 
L 133.631544 98.333698 
L 133.800691 68.788258 
L 133.969838 98.300751 
L 134.138986 98.476984 
L 134.308133 98.329857 
L 134.47728 98.494951 
L 135.661311 98.51821 
L 135.830459 68.836244 
L 135.999606 68.78175 
L 136.168753 98.285166 
L 136.337901 98.315055 
L 136.507048 68.799988 
L 136.676195 98.277611 
L 136.845342 68.922584 
L 137.01449 98.526524 
L 137.183637 98.372637 
L 137.352784 68.931416 
L 137.521932 98.359157 
L 137.691079 98.521759 
L 137.860226 69.026318 
L 138.029373 98.533324 
L 138.198521 98.536965 
L 138.367668 98.383031 
L 138.536815 98.385459 
L 138.705963 98.543646 
L 138.87511 69.015955 
L 139.044257 98.369282 
L 139.213404 98.536327 
L 139.382552 98.543038 
L 139.551699 98.389619 
L 139.889994 98.396453 
L 140.059141 69.006977 
L 140.73573 68.818141 
L 140.904877 98.123106 
L 141.074025 69.216415 
L 141.412319 69.015417 
L 141.581467 68.961108 
L 141.750614 69.304329 
L 141.919761 69.142205 
L 142.088908 69.389452 
L 142.258056 98.373688 
L 142.427203 69.274508 
L 142.59635 69.225143 
L 142.765498 98.269492 
L 142.934645 69.231328 
L 143.103792 69.177252 
L 143.272939 98.180138 
L 143.611234 98.472101 
L 143.780381 69.315868 
L 143.949529 69.541997 
L 144.287823 69.535622 
L 144.456971 98.539956 
L 144.626118 98.548632 
L 144.795265 98.39462 
L 144.964412 69.516803 
L 145.13356 98.519593 
L 145.302707 98.538903 
L 145.471854 98.390926 
L 145.641002 69.577747 
L 145.810149 98.41205 
L 145.979296 69.561484 
L 146.148443 69.681088 
L 146.317591 98.573548 
L 146.486738 69.625119 
L 146.655885 98.552432 
L 146.825033 69.715332 
L 146.99418 69.684466 
L 147.163327 98.382251 
L 147.332474 98.396638 
L 147.501622 69.720097 
L 147.670769 98.574734 
L 147.839916 69.764409 
L 148.009064 69.7238 
L 148.178211 98.370764 
L 148.347358 98.39148 
L 148.516506 98.562475 
L 148.685653 69.733432 
L 148.8548 69.677773 
L 149.023947 98.313309 
L 149.193095 98.512767 
L 149.362242 98.378803 
L 149.531389 69.832841 
L 149.869684 69.921112 
L 150.038831 98.422182 
L 150.207978 98.584846 
L 150.377126 98.585555 
L 150.546273 69.88997 
L 150.71542 98.566305 
L 150.884568 98.576397 
L 151.053715 98.423418 
L 151.222862 69.882767 
L 151.392009 98.391774 
L 151.561157 98.408034 
L 151.730304 69.929863 
L 151.899451 98.431275 
L 152.068599 98.432942 
L 152.237746 98.592813 
L 152.57604 98.596236 
L 152.745188 98.440381 
L 152.914335 69.942436 
L 153.083482 69.898864 
L 153.25263 98.384914 
L 153.421777 98.40447 
L 153.590924 69.980862 
L 153.760072 98.441434 
L 153.929219 69.997588 
L 154.098366 98.585468 
L 154.267513 98.594009 
L 154.436661 98.4415 
L 154.605808 98.44578 
L 154.774955 69.990477 
L 154.944103 98.579979 
L 155.11325 69.962026 
L 155.282397 98.54951 
L 155.451544 98.570604 
L 155.620692 98.423933 
L 155.789839 98.594607 
L 156.466428 98.616498 
L 156.635575 98.4621 
L 156.804723 70.003064 
L 156.97387 98.445131 
L 157.143017 98.607096 
L 157.312165 69.978413 
L 157.481312 70.10721 
L 157.650459 98.462144 
L 157.819607 70.042497 
L 157.988754 98.431624 
L 158.157901 70.012923 
L 158.327048 98.3918 
L 158.496196 98.415897 
L 158.665343 70.1581 
L 158.83449 98.468401 
L 159.003638 98.625792 
L 159.172785 98.626726 
L 159.341932 98.472317 
L 159.511079 98.630471 
L 159.680227 70.098457 
L 159.849374 98.456055 
L 160.018521 98.620554 
L 160.187669 98.625645 
L 160.356816 70.151758 
L 160.525963 98.630897 
L 160.69511 98.635209 
L 160.864258 98.48334 
L 161.033405 70.129135 
L 161.202552 70.08056 
L 161.3717 98.414241 
L 161.540847 70.063341 
L 161.709994 70.004997 
L 161.879142 98.330367 
L 162.048289 98.546291 
L 162.217436 98.423395 
L 162.386583 98.449067 
L 162.555731 70.125195 
L 162.724878 98.414654 
L 163.063173 98.461678 
L 163.23232 70.22677 
L 163.401467 98.648852 
L 163.570614 70.236979 
L 163.739762 98.633283 
L 163.908909 98.639468 
L 164.078056 70.203094 
L 164.247204 98.449995 
L 164.416351 98.625059 
L 164.585498 70.191055 
L 164.754645 70.134499 
L 164.923793 70.296976 
L 165.09294 98.63197 
L 165.262087 70.25863 
L 165.431235 98.44577 
L 165.600382 98.62097 
L 165.938677 98.647922 
L 166.107824 98.502168 
L 166.276971 98.661306 
L 166.446118 98.512267 
L 166.615266 98.515663 
L 166.784413 98.67074 
L 166.95356 98.520816 
L 167.122708 98.52125 
L 167.291855 98.676956 
L 167.461002 70.2911 
L 167.630149 98.661699 
L 167.799297 98.671027 
L 167.968444 70.269065 
L 168.137591 98.64027 
L 168.306739 70.232585 
L 168.475886 98.457117 
L 168.645033 98.640588 
L 168.81418 98.657155 
L 168.983328 98.518863 
L 169.152475 98.526227 
L 169.321622 98.683421 
L 169.49077 70.318269 
L 169.659917 98.538979 
L 169.829064 70.350407 
L 169.998212 70.354094 
L 170.167359 98.689071 
L 170.336506 98.54176 
L 170.674801 98.549096 
L 170.843948 98.702528 
L 171.013095 98.705462 
L 171.182243 70.325317 
L 171.35139 98.53669 
L 171.520537 70.390245 
L 171.689684 98.709002 
L 171.858832 70.366082 
L 172.027979 98.695872 
L 172.197126 98.55401 
L 172.366274 98.55926 
L 172.535421 70.404095 
L 172.704568 98.565814 
L 173.042863 98.5724 
L 173.21201 98.725326 
L 173.381157 98.578868 
L 173.888599 98.590335 
L 174.057747 70.348581 
L 174.226894 70.417607 
L 174.396041 98.736072 
L 174.565188 98.594189 
L 174.734336 70.384991 
L 174.903483 98.719708 
L 175.07263 98.584963 
L 175.410925 98.601826 
L 175.580072 98.752288 
L 175.749219 70.381492 
L 175.918367 98.741409 
L 176.087514 98.603898 
L 176.256661 98.752863 
L 176.425809 98.613286 
L 176.594956 70.352589 
L 176.764103 70.306127 
L 176.93325 98.676495 
L 177.102398 98.713281 
L 177.440692 98.61156 
L 177.60984 70.348591 
L 177.778987 70.469152 
L 177.948134 98.773558 
L 178.117282 98.635156 
L 178.455576 98.785677 
L 178.624723 70.42822 
L 178.793871 98.774024 
L 178.963018 70.385992 
L 179.132165 70.328298 
L 179.301313 70.475044 
L 179.47046 98.634841 
L 179.639607 98.641749 
L 179.808754 70.48678 
L 180.147049 70.521176 
L 180.316196 98.649523 
L 180.485344 98.795071 
L 180.654491 98.659121 
L 180.823638 98.666018 
L 180.992785 70.524982 
L 181.161933 98.660262 
L 181.33108 70.532192 
L 181.500227 98.80776 
L 181.838522 98.678907 
L 182.007669 98.825219 
L 182.176817 98.687659 
L 182.345964 70.500624 
L 182.515111 70.457967 
L 182.684258 98.619805 
L 182.853406 70.427634 
L 183.022553 98.587728 
L 183.1917 70.406693 
L 183.360848 70.610055 
L 183.529995 98.809311 
L 184.037437 98.840181 
L 184.375731 98.716197 
L 184.544879 98.861369 
L 184.714026 98.729213 
L 184.883173 98.869264 
L 185.05232 70.52796 
L 185.221468 98.712124 
L 185.390615 98.724378 
L 185.559762 70.593274 
L 185.72891 98.885725 
L 185.898057 98.888698 
L 186.067204 70.558245 
L 186.236352 70.616463 
L 186.405499 98.892593 
L 186.574646 98.89955 
L 186.743793 70.580965 
L 186.912941 98.753788 
L 187.082088 70.632134 
L 187.251235 98.908674 
L 187.420383 98.912177 
L 187.58953 70.593909 
L 187.758677 98.756149 
L 187.927824 98.904352 
L 188.096972 70.555947 
L 188.266119 98.743993 
L 188.435266 98.765534 
L 188.604414 70.633108 
L 188.773561 98.808538 
L 188.942708 98.811779 
L 189.111855 70.628478 
L 189.281003 98.80065 
L 189.619297 98.822864 
L 189.788445 70.629973 
L 189.957592 98.831084 
L 190.126739 98.970628 
L 190.295887 98.847863 
L 190.465034 70.637805 
L 190.972476 70.629317 
L 191.141623 98.947379 
L 191.31077 98.840746 
L 191.649065 98.998425 
L 191.818212 98.880727 
L 191.987359 99.018965 
L 192.156507 70.647827 
L 192.325654 98.868923 
L 192.494801 70.602693 
L 192.663949 98.976008 
L 192.833096 98.872859 
L 193.002243 70.692383 
L 193.17139 99.05105 
L 193.340538 70.671881 
L 193.509685 99.034167 
L 193.678832 98.925282 
L 194.017127 99.074063 
L 194.186274 99.083172 
L 194.355422 70.696209 
L 194.524569 98.95476 
L 194.693716 70.64978 
L 194.862863 99.060949 
L 195.032011 99.087235 
L 195.370305 98.997284 
L 195.539453 99.009672 
L 195.7086 99.142349 
L 195.877747 70.67799 
L 196.046894 99.12563 
L 196.216042 70.631001 
L 196.385189 70.720514 
L 196.554336 99.037999 
L 196.723484 99.172473 
L 196.892631 99.062258 
L 197.061778 70.710735 
L 197.230925 99.173019 
L 197.400073 70.674298 
L 197.738367 70.752962 
L 197.907515 70.717431 
L 198.076662 99.043067 
L 198.584104 99.225265 
L 198.753251 70.807808 
L 198.922398 99.251357 
L 199.091546 99.259395 
L 199.260693 99.155921 
L 199.42984 99.282975 
L 199.598988 70.77738 
L 199.768135 99.272569 
L 200.106429 99.310033 
L 200.275577 70.75926 
L 200.444724 99.176291 
L 200.783019 99.331027 
L 200.952166 70.735579 
L 201.121313 70.808777 
L 201.29046 99.258697 
L 201.459608 70.805544 
L 201.628755 99.262606 
L 201.96705 99.404308 
L 202.136197 99.41654 
L 202.305344 70.780516 
L 202.474491 70.729551 
L 202.643639 70.919448 
L 202.812786 70.802105 
L 202.981933 70.950439 
L 203.151081 99.345427 
L 203.82767 99.510077 
L 203.996817 70.857721 
L 204.165964 99.496536 
L 204.335112 99.523677 
L 204.504259 70.954541 
L 204.673406 99.458074 
L 204.842554 70.907145 
L 205.011701 70.870124 
L 205.180848 99.528014 
L 205.349995 71.022102 
L 205.519143 70.99589 
L 205.68829 99.606298 
L 205.857437 99.628509 
L 206.026585 70.974944 
L 206.195732 70.94403 
L 206.364879 99.612643 
L 206.703174 99.574624 
L 206.872321 70.945219 
L 207.041468 71.110899 
L 207.210616 71.000804 
L 207.379763 99.6917 
L 208.225499 99.811643 
L 208.394647 71.119807 
L 208.563794 99.843873 
L 209.071236 99.810241 
L 209.240383 71.117345 
L 209.40953 99.907046 
L 209.916972 99.989935 
L 210.08612 71.117078 
L 210.255267 71.223142 
L 210.424414 71.153785 
L 210.593561 99.947047 
L 210.931856 100.083834 
L 211.101003 71.161948 
L 211.270151 100.086865 
L 211.439298 71.136687 
L 211.608445 100.073731 
L 211.94674 100.07787 
L 212.115887 71.177322 
L 212.285034 100.162721 
L 212.454182 71.397296 
L 212.623329 100.197338 
L 213.469065 100.329147 
L 213.638213 71.424614 
L 213.80736 71.367963 
L 213.976507 100.414292 
L 214.314802 100.424522 
L 214.991391 100.557814 
L 215.160538 71.501789 
L 215.329686 100.656982 
L 215.498833 71.50801 
L 215.66798 100.666235 
L 216.006275 100.800998 
L 216.682864 100.865616 
L 216.852011 71.610135 
L 217.190306 71.533531 
L 217.359453 100.87245 
L 217.5286 71.571376 
L 217.697748 100.916187 
L 218.036042 101.092642 
L 218.20519 71.71145 
L 218.374337 101.055961 
L 218.543484 71.738899 
L 218.712631 101.094276 
L 218.881779 101.181902 
L 219.050926 72.127973 
L 219.220073 101.403548 
L 219.558368 101.43022 
L 219.727515 72.158964 
L 219.896663 101.496209 
L 220.06581 101.54675 
L 220.234957 72.203254 
L 220.404104 101.639347 
L 220.742399 101.743261 
L 220.911546 101.800224 
L 221.080694 72.267597 
L 221.249841 72.271653 
L 221.418988 101.828294 
L 221.588135 101.891177 
L 221.757283 72.615235 
L 221.92643 102.019292 
L 222.264725 102.118365 
L 222.433872 72.664992 
L 222.603019 102.231931 
L 222.941314 102.340972 
L 223.110461 72.770567 
L 223.279608 72.711941 
L 223.448756 102.399682 
L 223.617903 72.779894 
L 223.78705 102.437959 
L 223.956198 72.828404 
L 224.125345 72.904723 
L 224.294492 102.694173 
L 224.801934 102.888734 
L 224.971081 73.302508 
L 225.140229 102.975359 
L 225.309376 103.056123 
L 225.478523 73.325974 
L 225.64767 103.184664 
L 225.816818 73.406029 
L 225.985965 103.252845 
L 226.155112 73.470041 
L 226.32426 73.920654 
L 226.493407 103.492839 
L 226.662554 103.569339 
L 226.831701 73.738316 
L 227.000849 103.626365 
L 227.169996 103.714499 
L 227.339143 74.227093 
L 227.508291 74.200085 
L 227.677438 103.936964 
L 228.015733 104.0954 
L 228.18488 74.416116 
L 228.354027 104.212277 
L 228.523174 104.30731 
L 228.692322 74.595795 
L 228.861469 104.41454 
L 229.538058 104.780197 
L 229.707205 75.02782 
L 229.876353 74.989623 
L 230.0455 104.932768 
L 230.214647 105.063003 
L 230.383795 75.148332 
L 230.552942 105.273293 
L 232.244415 106.174064 
L 232.413562 76.123146 
L 232.582709 106.327278 
L 232.751857 76.289395 
L 232.921004 106.453334 
L 233.090151 76.957573 
L 233.259299 76.611914 
L 233.428446 106.80838 
L 233.597593 77.257556 
L 233.76674 107.057751 
L 233.935888 77.342926 
L 234.105035 107.215099 
L 234.274182 77.220479 
L 234.44333 107.472122 
L 234.612477 107.578045 
L 234.781624 77.930333 
L 234.950771 107.756922 
L 235.458213 108.14014 
L 235.627361 78.101464 
L 235.796508 108.29825 
L 236.134803 108.581797 
L 236.30395 79.001905 
L 236.473097 108.792561 
L 236.811392 109.069915 
L 236.980539 79.051599 
L 237.149686 109.248005 
L 237.318834 79.796339 
L 237.487981 79.804688 
L 237.657128 109.648543 
L 238.333717 110.190219 
L 238.841159 110.547603 
L 239.010306 81.040565 
L 239.179454 110.794732 
L 239.517748 111.138128 
L 239.686896 81.603716 
L 239.856043 111.319891 
L 240.194338 111.6157 
L 240.363485 82.128605 
L 240.532632 111.916965 
L 240.870927 112.238962 
L 241.040074 82.7296 
L 241.209221 112.425497 
L 241.716663 112.949011 
L 241.88581 83.653486 
L 242.054958 83.687305 
L 242.224105 83.490246 
L 242.393252 84.26329 
L 242.5624 113.777838 
L 242.731547 84.495368 
L 242.900694 114.073394 
L 243.069841 114.177879 
L 243.408136 114.59223 
L 243.577283 85.419874 
L 243.746431 114.897952 
L 243.915578 85.361934 
L 244.084725 86.239996 
L 244.253873 86.288929 
L 244.42302 115.586021 
L 244.592167 115.678938 
L 244.761314 86.77122 
L 244.930462 115.978707 
L 245.099609 116.280018 
L 245.268756 87.379409 
L 245.437904 116.620898 
L 245.607051 116.724709 
L 245.776198 87.530831 
L 245.945345 87.838318 
L 246.114493 117.252639 
L 246.28364 117.465341 
L 246.452787 89.166822 
L 246.621935 117.862236 
L 246.791082 88.869741 
L 246.960229 118.290151 
L 247.298524 118.574986 
L 247.636818 119.074379 
L 247.805966 90.141166 
L 247.975113 119.311047 
L 248.313407 119.729345 
L 248.482555 91.028844 
L 248.651702 120.184971 
L 248.820849 92.324366 
L 248.989997 91.732276 
L 249.159144 92.027037 
L 249.328291 93.247281 
L 249.497439 121.114973 
L 249.666586 92.762298 
L 249.835733 93.018029 
L 250.00488 94.317851 
L 250.174028 93.554467 
L 250.343175 122.001987 
L 250.512322 94.041308 
L 250.68147 122.340552 
L 250.850617 122.749793 
L 251.019764 94.779297 
L 251.188911 96.127363 
L 251.358059 123.39984 
L 252.203795 124.508697 
L 252.372942 96.721289 
L 252.54209 124.904523 
L 252.880384 125.510931 
L 253.049532 125.579349 
L 253.387826 126.022983 
L 253.556974 98.486095 
L 253.726121 126.563251 
L 253.895268 126.79302 
L 254.064415 100.310506 
L 254.233563 99.588153 
L 254.40271 127.336941 
L 254.571857 127.732076 
L 254.741005 101.39937 
L 254.910152 100.681911 
L 255.079299 128.250362 
L 255.248446 102.330842 
L 255.417594 128.933418 
L 255.586741 101.810366 
L 255.755888 129.202402 
L 255.925036 129.454766 
L 256.094183 103.613862 
L 256.26333 130.100454 
L 256.432477 103.986652 
L 256.601625 130.557255 
L 256.770772 130.633042 
L 256.939919 104.89141 
L 257.109067 131.09914 
L 257.278214 104.581476 
L 257.447361 131.592571 
L 257.785656 132.23957 
L 257.954803 132.286488 
L 258.12395 132.702579 
L 258.293098 132.748586 
L 258.631392 133.229316 
L 258.969687 133.898462 
L 259.138834 134.137271 
L 259.307981 109.027321 
L 259.477129 134.628199 
L 259.646276 108.505096 
L 259.815423 109.004527 
L 259.984571 135.24802 
L 260.153718 135.352486 
L 260.492012 136.090506 
L 260.66116 136.12017 
L 260.830307 136.567527 
L 260.999454 111.005302 
L 261.168602 136.749154 
L 261.337749 111.687946 
L 261.506896 137.190407 
L 261.676044 137.714795 
L 261.845191 137.765606 
L 262.014338 138.021926 
L 262.183485 114.330344 
L 262.352633 138.83168 
L 262.52178 139.074254 
L 262.690927 115.012539 
L 262.860075 139.35247 
L 263.029222 139.590044 
L 263.198369 115.653512 
L 263.536664 116.033557 
L 263.705811 140.533626 
L 263.874958 141.081227 
L 264.044106 141.107363 
L 264.213253 141.348024 
L 264.3824 117.751401 
L 264.551547 141.832852 
L 264.720695 142.361263 
L 264.889842 142.371411 
L 265.058989 142.621579 
L 265.228137 118.423641 
L 265.397284 143.054644 
L 265.566431 120.475265 
L 265.735579 120.615483 
L 265.904726 143.915706 
L 266.073873 144.4126 
L 266.24302 144.398845 
L 266.750462 145.154209 
L 266.91961 122.380166 
L 267.088757 145.909064 
L 267.257904 146.180657 
L 267.427051 146.165818 
L 267.765346 146.948608 
L 267.934493 146.921462 
L 268.103641 147.440678 
L 268.272788 147.409091 
L 268.611082 148.206182 
L 268.78023 148.454179 
L 268.949377 148.415734 
L 269.118524 125.083541 
L 269.287672 149.1903 
L 269.456819 127.277591 
L 269.625966 126.161391 
L 269.795114 149.9784 
L 269.964261 149.988212 
L 270.133408 150.257944 
L 270.302555 128.559425 
L 270.471703 151.068027 
L 270.64085 151.336809 
L 270.809997 151.280896 
L 271.148292 151.784849 
L 271.317439 152.353778 
L 271.486586 152.316098 
L 271.655734 152.872124 
L 271.824881 131.248391 
L 271.994028 153.406309 
L 272.163176 130.405764 
L 272.332323 153.894667 
L 272.50147 154.152875 
L 272.670617 131.629138 
L 272.839765 154.550729 
L 273.008912 154.846071 
L 273.178059 154.793376 
L 273.347207 132.913739 
L 273.516354 155.590638 
L 273.685501 155.918219 
L 273.854649 155.912714 
L 274.023796 134.013186 
L 274.192943 156.315164 
L 274.869532 157.870415 
L 275.03868 135.722861 
L 275.207827 158.289221 
L 275.376974 158.578499 
L 275.546121 136.788251 
L 275.715269 158.97676 
L 275.884416 159.011465 
L 276.053563 159.305483 
L 276.222711 159.997931 
L 276.391858 159.935612 
L 276.561005 160.212931 
L 276.730152 138.537421 
L 276.8993 161.037165 
L 277.068447 161.356885 
L 277.237594 141.036886 
L 277.406742 161.938127 
L 277.575889 141.539945 
L 277.745036 162.100957 
L 277.914184 162.354454 
L 278.083331 163.031703 
L 278.252478 141.33663 
L 278.421625 143.437951 
L 278.590773 142.118253 
L 278.75992 142.65644 
L 278.929067 163.780825 
L 279.098215 143.278218 
L 279.267362 164.332722 
L 279.436509 165.088962 
L 279.605656 164.975155 
L 280.113098 165.892833 
L 280.282246 146.68735 
L 280.451393 166.927694 
L 280.958835 167.762296 
L 281.127982 147.950325 
L 281.297129 168.331707 
L 281.466277 168.184701 
L 281.635424 168.896811 
L 281.804571 148.90853 
L 281.973719 168.988571 
L 282.142866 169.733002 
L 282.312013 149.867684 
L 282.48116 170.319518 
L 282.650308 150.560418 
L 282.819455 170.438275 
L 283.326897 171.319731 
L 283.496044 150.722696 
L 283.665191 172.33445 
L 283.834339 153.077922 
L 284.003486 151.834065 
L 284.172633 172.742865 
L 284.680075 173.675274 
L 285.01837 174.72777 
L 285.187517 174.550836 
L 285.356664 154.47843 
L 285.525812 175.082399 
L 285.694959 175.447113 
L 286.033254 176.512232 
L 286.202401 156.208575 
L 286.371548 176.556798 
L 286.540695 176.901257 
L 286.709843 177.683111 
L 286.87899 159.143867 
L 287.386432 159.577706 
L 287.555579 159.783638 
L 287.724726 179.119134 
L 287.893874 179.923283 
L 288.063021 160.634463 
L 288.232168 180.049277 
L 288.401316 180.870268 
L 288.570463 180.755777 
L 288.908757 181.415873 
L 289.247052 182.600152 
L 289.416199 182.923953 
L 289.585347 182.7812 
L 289.754494 183.118343 
L 289.923641 183.940661 
L 290.092789 165.046013 
L 290.261936 184.592315 
L 290.431083 165.612467 
L 290.60023 165.893922 
L 290.769378 185.077678 
L 290.938525 165.423891 
L 291.107672 186.411158 
L 291.27682 168.011943 
L 291.445967 187.116688 
L 291.615114 186.94866 
L 291.784261 168.784682 
L 291.953409 188.216242 
L 292.122556 188.061654 
L 292.291703 188.979316 
L 292.460851 188.841277 
L 292.629998 169.904531 
L 292.799145 189.432069 
L 292.968292 172.491157 
L 293.13744 190.835602 
L 293.306587 191.209264 
L 293.475734 173.552627 
L 293.644882 191.525452 
L 294.321471 193.154637 
L 294.490618 175.821334 
L 294.659765 194.468509 
L 294.828913 176.657342 
L 295.167207 177.158152 
L 295.336355 196.12988 
L 295.505502 196.042144 
L 295.674649 178.578526 
L 295.843796 197.356048 
L 296.012944 197.788817 
L 296.182091 179.743591 
L 296.351238 198.244545 
L 296.520386 198.74384 
L 296.689533 181.702079 
L 296.85868 181.970195 
L 297.027827 200.114794 
L 297.196975 183.085489 
L 297.366122 201.458207 
L 297.535269 183.79995 
L 297.704417 202.456865 
L 297.873564 183.923716 
L 298.042711 203.35176 
L 298.381006 204.432897 
L 298.550153 204.39633 
L 298.888448 205.465225 
L 299.057595 188.91248 
L 299.226742 188.179239 
L 299.39589 206.88951 
L 299.565037 207.421154 
L 299.734184 191.295001 
L 299.903331 190.538774 
L 300.072479 209.006357 
L 300.241626 210.031798 
L 300.410773 210.17555 
L 300.749068 211.279927 
L 300.918215 194.028637 
L 301.087362 212.315621 
L 301.25651 196.562102 
L 301.425657 195.905162 
L 301.594804 214.371497 
L 301.763952 214.605436 
L 301.933099 215.302295 
L 302.102246 199.74075 
L 302.271393 216.480152 
L 302.609688 217.739485 
L 302.778835 202.199234 
L 302.947983 219.271101 
L 303.11713 219.506889 
L 303.624572 221.721868 
L 303.793719 205.936152 
L 303.962866 222.99503 
L 304.808603 225.883681 
L 304.97775 210.133328 
L 305.146897 227.12879 
L 305.316045 227.884953 
L 305.485192 213.296129 
L 305.654339 229.18609 
L 305.823487 214.319046 
L 305.992634 230.652991 
L 306.83837 234.195392 
L 307.007518 219.72045 
L 307.176665 235.381981 
L 307.345812 236.077403 
L 307.51496 221.669274 
L 307.684107 237.803359 
L 307.853254 223.509773 
L 308.022401 239.134612 
L 308.191549 224.391687 
L 308.360696 240.480818 
L 308.698991 241.927097 
L 308.868138 227.892345 
L 309.037285 243.44548 
L 309.206432 229.71153 
L 309.37558 244.50665 
L 309.544727 232.153651 
L 309.713874 232.72842 
L 309.883022 247.311291 
L 310.052169 248.042431 
L 310.221316 234.747213 
L 310.390463 249.223172 
L 310.897905 251.774622 
L 311.067053 238.812156 
L 311.2362 253.236066 
L 311.574495 254.7704 
L 312.081936 256.986923 
L 312.251084 244.934822 
L 312.420231 258.175055 
L 312.758526 260.046514 
L 312.927673 248.878853 
L 313.09682 261.561178 
L 313.265967 249.975109 
L 313.435115 250.997214 
L 313.604262 263.495993 
L 313.773409 253.267302 
L 313.942557 265.459279 
L 314.619146 268.186568 
L 314.788293 268.915021 
L 314.95744 258.640973 
L 315.126588 259.400204 
L 315.464882 261.676908 
L 315.63403 262.342768 
L 315.803177 273.499643 
L 315.972324 263.684325 
L 316.310619 265.949647 
L 316.479766 276.614115 
L 316.648913 277.284236 
L 316.818061 268.362708 
L 316.987208 278.809275 
L 317.156355 279.321939 
L 317.325502 270.45509 
L 317.49465 271.309611 
L 317.663797 281.164802 
L 318.002092 282.853807 
L 318.340386 284.158334 
L 318.509533 276.134643 
L 318.678681 285.69246 
L 318.847828 277.566967 
L 319.016975 278.366697 
L 319.186123 287.357439 
L 319.862712 290.2709 
L 320.031859 290.870433 
L 320.201006 283.561182 
L 320.370154 284.488165 
L 320.539301 292.764765 
L 320.708448 285.920197 
L 320.877596 286.531238 
L 321.046743 294.6813 
L 321.385037 295.870733 
L 321.554185 289.413426 
L 321.723332 297.021795 
L 321.892479 297.685337 
L 322.061627 291.389009 
L 322.230774 298.774324 
L 322.399921 299.423008 
L 322.569068 293.352305 
L 322.738216 300.575901 
L 323.07651 301.605418 
L 323.245658 295.833058 
L 323.414805 302.684316 
L 323.583952 297.147635 
L 323.7531 303.728418 
L 324.260541 305.374054 
L 324.429689 300.147302 
L 324.598836 300.851779 
L 324.767983 306.964621 
L 324.937131 301.946652 
L 325.106278 307.963918 
L 325.275425 303.041372 
L 325.444572 308.974235 
L 325.61372 304.269163 
L 325.782867 309.9564 
L 325.952014 310.426145 
L 326.121162 305.835084 
L 326.290309 311.417367 
L 326.459456 306.958008 
L 326.797751 308.086151 
L 326.966898 313.337116 
L 327.136045 309.084244 
L 327.305193 314.138034 
L 327.47434 314.608881 
L 327.643487 310.583389 
L 327.812635 315.47415 
L 327.981782 311.551389 
L 328.150929 316.242736 
L 328.320076 312.565231 
L 328.489224 313.025451 
L 328.658371 317.602023 
L 328.996666 318.408086 
L 329.165813 314.786538 
L 329.504107 315.775431 
L 329.673255 320.063629 
L 330.518991 321.895082 
L 330.688138 318.687704 
L 330.857286 322.585984 
L 331.026433 322.960161 
L 331.19558 319.881615 
L 331.364728 323.640766 
L 331.533875 320.6511 
L 332.041317 321.874527 
L 332.210464 325.386794 
L 332.379611 322.600792 
L 332.548759 322.996919 
L 332.717906 326.379435 
L 332.887053 323.693834 
L 333.056201 327.00997 
L 333.225348 327.305918 
L 333.394495 324.730577 
L 333.563642 325.109791 
L 333.73279 328.242302 
L 333.901937 328.512561 
L 334.071084 326.117394 
L 334.240232 329.146126 
L 334.578526 329.728819 
L 334.747673 327.387216 
L 334.916821 330.27434 
L 335.255115 330.8443 
L 335.424263 328.618165 
L 335.59341 331.38022 
L 335.762557 329.228876 
L 335.931705 331.913327 
L 336.100852 329.806205 
L 336.269999 332.458436 
L 337.284883 333.935828 
L 337.45403 332.016738 
L 337.623177 332.288118 
L 337.792325 334.633243 
L 337.961472 334.859427 
L 338.130619 333.069292 
L 338.976356 334.358631 
L 339.145503 336.483689 
L 339.652945 337.156209 
L 339.822092 335.535957 
L 340.160387 335.988725 
L 340.329534 338.003307 
L 340.667829 338.4038 
L 340.836976 336.892571 
L 341.006123 338.791677 
L 342.021007 339.93132 
L 342.190154 338.548473 
L 342.528449 338.945834 
L 342.697596 340.672748 
L 343.205038 341.186576 
L 343.374185 339.915987 
L 343.543333 341.537915 
L 343.71248 340.289884 
L 343.881627 340.47661 
L 344.050775 342.053743 
L 344.727364 342.690356 
L 344.896511 341.536188 
L 345.234806 341.88826 
L 345.403953 343.331263 
L 345.5731 342.22448 
L 345.742247 343.638268 
L 346.080542 343.941468 
L 346.249689 342.872859 
L 346.757131 343.357371 
L 346.926278 344.68316 
L 347.264573 344.955368 
L 347.43372 343.967236 
L 347.602868 345.242024 
L 347.772015 345.377148 
L 347.941162 344.41596 
L 348.448604 344.853331 
L 348.617751 346.048642 
L 349.125193 346.431934 
L 349.294341 345.548706 
L 349.463488 346.691274 
L 349.632635 345.820818 
L 350.478372 346.490364 
L 350.647519 347.55813 
L 351.154961 347.898674 
L 351.324108 347.115522 
L 351.493255 348.125847 
L 351.662403 347.35819 
L 351.83155 348.354983 
L 352.000697 348.469456 
L 352.169844 347.716787 
L 352.338992 348.686392 
L 352.677286 348.89705 
L 352.846434 348.177887 
L 353.015581 349.112752 
L 353.184728 348.403681 
L 353.353876 349.31835 
L 353.523023 348.624862 
L 353.69217 349.51944 
L 354.707054 350.119431 
L 354.876201 349.471187 
L 355.214496 349.682019 
L 355.383643 350.510176 
L 355.55279 349.882985 
L 355.721938 350.696118 
L 356.398527 351.057973 
L 356.567674 350.46533 
L 356.736821 351.240651 
L 356.905969 350.654848 
L 357.582558 351.030043 
L 357.751705 351.76602 
L 359.443178 352.578587 
L 359.612325 352.067579 
L 359.95062 352.234598 
L 360.119767 352.88615 
L 360.796356 353.19013 
L 360.965504 352.712873 
L 361.134651 353.336947 
L 361.303798 352.867494 
L 361.642093 353.023936 
L 361.81124 353.630369 
L 361.980387 353.176142 
L 362.149535 353.251781 
L 362.318682 353.847297 
L 362.487829 353.914069 
L 362.656977 353.473781 
L 362.826124 353.546883 
L 362.995271 354.124063 
L 363.164418 353.692267 
L 363.333566 354.258537 
L 363.841008 354.456249 
L 364.010155 354.041276 
L 364.179302 354.584503 
L 364.855891 354.840702 
L 365.025039 354.443015 
L 365.194186 354.966847 
L 365.363333 355.026467 
L 365.532481 354.640166 
L 365.701628 355.151063 
L 366.039922 355.269412 
L 366.20907 354.894124 
L 366.378217 354.957803 
L 366.547364 355.450657 
L 366.885659 355.566979 
L 367.054806 355.204881 
L 367.393101 355.328556 
L 367.562248 355.798434 
L 367.900543 355.912103 
L 368.06969 355.565211 
L 368.238837 356.021763 
L 368.746279 356.185924 
L 368.915426 355.851777 
L 369.084574 355.909121 
L 369.253721 356.349563 
L 369.422868 356.022203 
L 369.592016 356.077919 
L 369.761163 356.510662 
L 369.93031 356.189001 
L 370.099457 356.614583 
L 371.79093 357.111066 
L 371.960078 356.81481 
L 372.129225 357.209089 
L 372.298372 356.91574 
L 372.467519 356.966 
L 372.636667 357.352842 
L 373.144109 357.49099 
L 373.313256 357.210881 
L 373.482403 357.583718 
L 373.651551 357.306663 
L 373.820698 357.674962 
L 375.343023 358.06907 
L 375.512171 357.811764 
L 375.681318 358.155728 
L 375.850465 357.900397 
L 376.019613 358.240515 
L 376.357907 358.323351 
L 376.527054 358.075097 
L 376.696202 358.404907 
L 377.541938 358.607239 
L 377.711086 358.369516 
L 377.880233 358.68661 
L 378.387675 358.802588 
L 378.556822 358.573029 
L 378.725969 358.613162 
L 378.895117 358.919743 
L 379.571706 359.069558 
L 379.740853 358.848465 
L 379.91 359.14438 
L 381.939768 359.571048 
L 382.108915 359.367322 
L 382.278062 359.63953 
L 382.785504 359.741019 
L 382.954652 359.543702 
L 383.123799 359.578837 
L 383.292946 359.842168 
L 383.462093 359.647983 
L 383.800388 359.71796 
L 383.969535 359.975535 
L 384.30783 360.039842 
L 384.476977 359.852065 
L 384.646124 359.886101 
L 384.815272 360.135747 
L 384.984419 359.951799 
L 385.153566 359.984835 
L 385.322714 360.231558 
L 385.491861 360.050334 
L 385.661008 360.293789 
L 385.830156 360.323919 
L 385.999303 360.146041 
L 386.16845 360.385421 
L 386.337597 360.209373 
L 386.506745 360.446304 
L 387.521628 360.624135 
L 387.690776 360.455437 
L 387.859923 360.682048 
L 388.02907 360.515411 
L 388.198218 360.740438 
L 388.874807 360.853076 
L 389.043954 360.691994 
L 389.213101 360.721394 
L 389.382249 360.937777 
L 389.551396 360.965282 
L 389.720543 360.807092 
L 389.889691 361.020534 
L 390.227985 361.074146 
L 390.397132 360.91969 
L 390.56628 361.128345 
L 390.904574 361.181947 
L 391.073722 361.030116 
L 391.242869 361.23457 
L 391.412016 361.084706 
L 391.581163 361.287599 
L 392.257753 361.390021 
L 392.4269 361.245008 
L 392.596047 361.441534 
L 392.934342 361.491728 
L 393.103489 361.349382 
L 393.441784 361.566579 
L 393.610931 361.59075 
L 393.780078 361.451451 
L 394.118373 361.664774 
L 394.625815 361.736894 
L 394.794962 361.60126 
L 395.133257 361.808132 
L 395.302404 361.67507 
L 395.640698 361.879015 
L 396.14814 361.947988 
L 396.317288 361.818866 
L 396.486435 361.993988 
L 396.655582 361.865922 
L 396.824729 361.889573 
L 396.993877 362.062512 
L 397.163024 361.93647 
L 397.501319 362.12972 
L 398.00876 362.19606 
L 398.177908 362.073329 
L 398.347055 362.096078 
L 398.68535 362.282951 
L 400.376823 362.493499 
L 400.54597 362.378521 
L 400.715117 362.399901 
L 401.053412 362.575833 
L 401.730001 362.656074 
L 402.068295 362.565805 
L 402.237443 362.715664 
L 402.575737 362.626979 
L 402.744885 362.775116 
L 402.914032 362.667205 
L 403.252327 362.832934 
L 403.421474 362.852323 
L 403.590621 362.746364 
L 403.759768 362.890629 
L 403.928916 362.78559 
L 404.26721 362.94733 
L 404.436358 362.965708 
L 404.774652 362.882093 
L 404.943799 363.021985 
L 405.112947 362.920199 
L 405.282094 363.058628 
L 405.451241 362.958169 
L 405.789536 363.113314 
L 406.12783 363.032773 
L 406.466125 363.185341 
L 406.80442 363.10615 
L 407.142714 363.256209 
L 407.311862 363.160499 
L 407.650156 363.308516 
L 410.52566 363.593147 
L 410.694807 363.505197 
L 411.033102 363.641725 
L 416.445815 364.124546 
L 416.614963 364.04851 
L 416.953257 364.16713 
L 424.395738 364.740669 
L 424.564885 364.677072 
L 424.90318 364.776687 
L 434.037134 365.367122 
L 434.375428 365.325252 
L 434.713723 365.407091 
L 446.892328 366.048238 
L 447.39977 366.02369 
L 465.49853 366.809718 
L 466.175119 366.798102 
L 489.010003 367.518614 
L 489.85574 367.515014 
L 490.701476 367.561624 
L 491.378065 367.578549 
L 517.426748 368.136404 
L 518.441632 368.154994 
L 554.977447 368.709282 
L 600.98551 369.189316 
L 603.353572 369.201633 
L 605.721634 369.229314 
L 608.258844 369.242597 
L 610.796053 369.270619 
L 613.50241 369.284782 
L 622.636364 369.354471 
L 622.636364 369.354471 
" clip-path="url(#pf2bd86066f)" style="fill: none; stroke: #008000; stroke-linecap: square"/>
   </g>
   <g id="patch_3">
    <path d="M 90 384.48 
L 90 51.84 
" style="fill: none; stroke: #000000; stroke-width: 0.8; stroke-linejoin: miter; stroke-linecap: square"/>
   </g>
   <g id="patch_4">
    <path d="M 648 384.48 
L 648 51.84 
" style="fill: none; stroke: #000000; stroke-width: 0.8; stroke-linejoin: miter; stroke-linecap: square"/>
   </g>
   <g id="patch_5">
    <path d="M 90 384.48 
L 648 384.48 
" style="fill: none; stroke: #000000; stroke-width: 0.8; stroke-linejoin: miter; stroke-linecap: square"/>
   </g>
   <g id="patch_6">
    <path d="M 90 51.84 
L 648 51.84 
" style="fill: none; stroke: #000000; stroke-width: 0.8; stroke-linejoin: miter; stroke-linecap: square"/>
   </g>
   <g id="text_18">
    <!-- Evolución del Error (MSE) durante el entrenamiento -->
    <g transform="translate(121.077 45.84) scale(0.192 -0.192)">
     <defs>
      <path id="DejaVuSans-76" d="M 191 3500 
L 800 3500 
L 1894 563 
L 2988 3500 
L 3597 3500 
L 2284 0 
L 1503 0 
L 191 3500 
z
" transform="scale(0.015625)"/>
      <path id="DejaVuSans-6c" d="M 603 4863 
L 1178 4863 
L 1178 0 
L 603 0 
L 603 4863 
z
" transform="scale(0.015625)"/>
      <path id="DejaVuSans-f3" d="M 1959 3097 
Q 1497 3097 1228 2736 
Q 959 2375 959 1747 
Q 959 1119 1226 758 
Q 1494 397 1959 397 
Q 2419 397 2687 759 
Q 2956 1122 2956 1747 
Q 2956 2369 2687 2733 
Q 2419 3097 1959 3097 
z
M 1959 3584 
Q 2709 3584 3137 3096 
Q 3566 2609 3566 1747 
Q 3566 888 3137 398 
Q 2709 -91 1959 -91 
Q 1206 -91 779 398 
Q 353 888 353 1747 
Q 353 2609 779 3096 
Q 1206 3584 1959 3584 
z
M 2394 5119 
L 3016 5119 
L 1997 3944 
L 1519 3944 
L 2394 5119 
z
" transform="scale(0.015625)"/>
      <path id="DejaVuSans-6e" d="M 3513 2113 
L 3513 0 
L 2938 0 
L 2938 2094 
Q 2938 2591 2744 2837 
Q 2550 3084 2163 3084 
Q 1697 3084 1428 2787 
Q 1159 2491 1159 1978 
L 1159 0 
L 581 0 
L 581 3500 
L 1159 3500 
L 1159 2956 
Q 1366 3272 1645 3428 
Q 1925 3584 2291 3584 
Q 2894 3584 3203 3211 
Q 3513 2838 3513 2113 
z
" transform="scale(0.015625)"/>
      <path id="DejaVuSans-6d" d="M 3328 2828 
Q 3544 3216 3844 3400 
Q 4144 3584 4550 3584 
Q 5097 3584 5394 3201 
Q 5691 2819 5691 2113 
L 5691 0 
L 5113 0 
L 5113 2094 
Q 5113 2597 4934 2840 
Q 4756 3084 4391 3084 
Q 3944 3084 3684 2787 
Q 3425 2491 3425 1978 
L 3425 0 
L 2847 0 
L 2847 2094 
Q 2847 2600 2669 2842 
Q 2491 3084 2119 3084 
Q 1678 3084 1418 2786 
Q 1159 2488 1159 1978 
L 1159 0 
L 581 0 
L 581 3500 
L 1159 3500 
L 1159 2956 
Q 1356 3278 1631 3431 
Q 1906 3584 2284 3584 
Q 2666 3584 2933 3390 
Q 3200 3197 3328 2828 
z
" transform="scale(0.015625)"/>
     </defs>
     <use xlink:href="#DejaVuSans-45"/>
     <use xlink:href="#DejaVuSans-76" transform="translate(63.183594 0)"/>
     <use xlink:href="#DejaVuSans-6f" transform="translate(122.363281 0)"/>
     <use xlink:href="#DejaVuSans-6c" transform="translate(183.544922 0)"/>
     <use xlink:href="#DejaVuSans-75" transform="translate(211.328125 0)"/>
     <use xlink:href="#DejaVuSans-63" transform="translate(274.707031 0)"/>
     <use xlink:href="#DejaVuSans-69" transform="translate(329.6875 0)"/>
     <use xlink:href="#DejaVuSans-f3" transform="translate(357.470703 0)"/>
     <use xlink:href="#DejaVuSans-6e" transform="translate(418.652344 0)"/>
     <use xlink:href="#DejaVuSans-20" transform="translate(482.03125 0)"/>
     <use xlink:href="#DejaVuSans-64" transform="translate(513.818359 0)"/>
     <use xlink:href="#DejaVuSans-65" transform="translate(577.294922 0)"/>
     <use xlink:href="#DejaVuSans-6c" transform="translate(638.818359 0)"/>
     <use xlink:href="#DejaVuSans-20" transform="translate(666.601562 0)"/>
     <use xlink:href="#DejaVuSans-45" transform="translate(698.388672 0)"/>
     <use xlink:href="#DejaVuSans-72" transform="translate(761.572266 0)"/>
     <use xlink:href="#DejaVuSans-72" transform="translate(800.935547 0)"/>
     <use xlink:href="#DejaVuSans-6f" transform="translate(839.798828 0)"/>
     <use xlink:href="#DejaVuSans-72" transform="translate(900.980469 0)"/>
     <use xlink:href="#DejaVuSans-20" transform="translate(942.09375 0)"/>
     <use xlink:href="#DejaVuSans-28" transform="translate(973.880859 0)"/>
     <use xlink:href="#DejaVuSans-4d" transform="translate(1012.894531 0)"/>
     <use xlink:href="#DejaVuSans-53" transform="translate(1099.173828 0)"/>
     <use xlink:href="#DejaVuSans-45" transform="translate(1162.650391 0)"/>
     <use xlink:href="#DejaVuSans-29" transform="translate(1225.833984 0)"/>
     <use xlink:href="#DejaVuSans-20" transform="translate(1264.847656 0)"/>
     <use xlink:href="#DejaVuSans-64" transform="translate(1296.634766 0)"/>
     <use xlink:href="#DejaVuSans-75" transform="translate(1360.111328 0)"/>
     <use xlink:href="#DejaVuSans-72" transform="translate(1423.490234 0)"/>
     <use xlink:href="#DejaVuSans-61" transform="translate(1464.603516 0)"/>
     <use xlink:href="#DejaVuSans-6e" transform="translate(1525.882812 0)"/>
     <use xlink:href="#DejaVuSans-74" transform="translate(1589.261719 0)"/>
     <use xlink:href="#DejaVuSans-65" transform="translate(1628.470703 0)"/>
     <use xlink:href="#DejaVuSans-20" transform="translate(1689.994141 0)"/>
     <use xlink:href="#DejaVuSans-65" transform="translate(1721.78125 0)"/>
     <use xlink:href="#DejaVuSans-6c" transform="translate(1783.304688 0)"/>
     <use xlink:href="#DejaVuSans-20" transform="translate(1811.087891 0)"/>
     <use xlink:href="#DejaVuSans-65" transform="translate(1842.875 0)"/>
     <use xlink:href="#DejaVuSans-6e" transform="translate(1904.398438 0)"/>
     <use xlink:href="#DejaVuSans-74" transform="translate(1967.777344 0)"/>
     <use xlink:href="#DejaVuSans-72" transform="translate(2006.986328 0)"/>
     <use xlink:href="#DejaVuSans-65" transform="translate(2045.849609 0)"/>
     <use xlink:href="#DejaVuSans-6e" transform="translate(2107.373047 0)"/>
     <use xlink:href="#DejaVuSans-61" transform="translate(2170.751953 0)"/>
     <use xlink:href="#DejaVuSans-6d" transform="translate(2232.03125 0)"/>
     <use xlink:href="#DejaVuSans-69" transform="translate(2329.443359 0)"/>
     <use xlink:href="#DejaVuSans-65" transform="translate(2357.226562 0)"/>
     <use xlink:href="#DejaVuSans-6e" transform="translate(2418.75 0)"/>
     <use xlink:href="#DejaVuSans-74" transform="translate(2482.128906 0)"/>
     <use xlink:href="#DejaVuSans-6f" transform="translate(2521.337891 0)"/>
    </g>
   </g>
   <g id="legend_1">
    <g id="patch_7">
     <path d="M 551.5275 88.125 
L 636.8 88.125 
Q 640 88.125 640 84.925 
L 640 63.04 
Q 640 59.84 636.8 59.84 
L 551.5275 59.84 
Q 548.3275 59.84 548.3275 63.04 
L 548.3275 84.925 
Q 548.3275 88.125 551.5275 88.125 
z
" style="fill: #ffffff; opacity: 0.8; stroke: #cccccc; stroke-linejoin: miter"/>
    </g>
    <g id="line2d_32">
     <path d="M 554.7275 72.7975 
L 570.7275 72.7975 
L 586.7275 72.7975 
" style="fill: none; stroke: #008000; stroke-linecap: square"/>
    </g>
    <g id="text_19">
     <!-- MSE -->
     <g transform="translate(599.5275 78.3975) scale(0.16 -0.16)">
      <use xlink:href="#DejaVuSans-4d"/>
      <use xlink:href="#DejaVuSans-53" transform="translate(86.279297 0)"/>
      <use xlink:href="#DejaVuSans-45" transform="translate(149.755859 0)"/>
     </g>
    </g>
   </g>
  </g>
 </g>
 <defs>
  <clipPath id="pf2bd86066f">
   <rect x="90" y="51.84" width="558" height="332.64"/>
  </clipPath>
 </defs>
</svg>
