<?xml version="1.0" encoding="utf-8" standalone="no"?>
<!DOCTYPE svg PUBLIC "-//W3C//DTD SVG 1.1//EN"
  "http://www.w3.org/Graphics/SVG/1.1/DTD/svg11.dtd">
<svg xmlns:xlink="http://www.w3.org/1999/xlink" width="1152pt" height="648pt" viewBox="0 0 1152 648" xmlns="http://www.w3.org/2000/svg" version="1.1">
 <metadata>
  <rdf:RDF xmlns:dc="http://purl.org/dc/elements/1.1/" xmlns:cc="http://creativecommons.org/ns#" xmlns:rdf="http://www.w3.org/1999/02/22-rdf-syntax-ns#">
   <cc:Work>
    <dc:type rdf:resource="http://purl.org/dc/dcmitype/StillImage"/>
    <dc:date>2025-11-14T09:16:11.809411</dc:date>
    <dc:format>image/svg+xml</dc:format>
    <dc:creator>
     <cc:Agent>
      <dc:title>Matplotlib v3.10.7, https://matplotlib.org/</dc:title>
     </cc:Agent>
    </dc:creator>
   </cc:Work>
  </rdf:RDF>
 </metadata>
 <defs>
  <style type="text/css">*{stroke-linejoin: round; stroke-linecap: butt}</style>
 </defs>
 <g id="figure_1">
  <g id="patch_1">
   <path d="M 0 648 
L 1152 648 
L 1152 0 
L 0 0 
z
" style="fill: #ffffff"/>
  </g>
  <g id="axes_1">
   <g id="patch_2">
    <path d="M 51.32 600.28 
L 729.792 600.28 
L 729.792 33.36 
L 51.32 33.36 
z
" style="fill: #ffffff"/>
   </g>
   <g id="matplotlib.axis_1">
    <g id="xtick_1">
     <g id="line2d_1">
      <path d="M 75.929407 600.28 
L 75.929407 33.36 
" clip-path="url(#pe5a7d230ba)" style="fill: none; stroke-dasharray: 2.96,1.28; stroke-dashoffset: 0; stroke: #b0b0b0; stroke-opacity: 0.6; stroke-width: 0.8"/>
     </g>
     <g id="line2d_2">
      <defs>
       <path id="ma1d0a81ae6" d="M 0 0 
L 0 3.5 
" style="stroke: #000000; stroke-width: 0.8"/>
      </defs>
      <g>
       <use xlink:href="#ma1d0a81ae6" x="75.929407" y="600.28" style="stroke: #000000; stroke-width: 0.8"/>
      </g>
     </g>
     <g id="text_1">
      <!-- 0 -->
      <g transform="translate(72.748157 614.878438) scale(0.1 -0.1)">
       <defs>
        <path id="DejaVuSans-30" d="M 2034 4250 
Q 1547 4250 1301 3770 
Q 1056 3291 1056 2328 
Q 1056 1369 1301 889 
Q 1547 409 2034 409 
Q 2525 409 2770 889 
Q 3016 1369 3016 2328 
Q 3016 3291 2770 3770 
Q 2525 4250 2034 4250 
z
M 2034 4750 
Q 2819 4750 3233 4129 
Q 3647 3509 3647 2328 
Q 3647 1150 3233 529 
Q 2819 -91 2034 -91 
Q 1250 -91 836 529 
Q 422 1150 422 2328 
Q 422 3509 836 4129 
Q 1250 4750 2034 4750 
z
" transform="scale(0.015625)"/>
       </defs>
       <use xlink:href="#DejaVuSans-30"/>
      </g>
     </g>
    </g>
    <g id="xtick_2">
     <g id="line2d_3">
      <path d="M 200.533998 600.28 
L 200.533998 33.36 
" clip-path="url(#pe5a7d230ba)" style="fill: none; stroke-dasharray: 2.96,1.28; stroke-dashoffset: 0; stroke: #b0b0b0; stroke-opacity: 0.6; stroke-width: 0.8"/>
     </g>
     <g id="line2d_4">
      <g>
       <use xlink:href="#ma1d0a81ae6" x="200.533998" y="600.28" style="stroke: #000000; stroke-width: 0.8"/>
      </g>
     </g>
     <g id="text_2">
      <!-- 20 -->
      <g transform="translate(194.171498 614.878438) scale(0.1 -0.1)">
       <defs>
        <path id="DejaVuSans-32" d="M 1228 531 
L 3431 531 
L 3431 0 
L 469 0 
L 469 531 
Q 828 903 1448 1529 
Q 2069 2156 2228 2338 
Q 2531 2678 2651 2914 
Q 2772 3150 2772 3378 
Q 2772 3750 2511 3984 
Q 2250 4219 1831 4219 
Q 1534 4219 1204 4116 
Q 875 4013 500 3803 
L 500 4441 
Q 881 4594 1212 4672 
Q 1544 4750 1819 4750 
Q 2544 4750 2975 4387 
Q 3406 4025 3406 3419 
Q 3406 3131 3298 2873 
Q 3191 2616 2906 2266 
Q 2828 2175 2409 1742 
Q 1991 1309 1228 531 
z
" transform="scale(0.015625)"/>
       </defs>
       <use xlink:href="#DejaVuSans-32"/>
       <use xlink:href="#DejaVuSans-30" transform="translate(63.623047 0)"/>
      </g>
     </g>
    </g>
    <g id="xtick_3">
     <g id="line2d_5">
      <path d="M 325.13859 600.28 
L 325.13859 33.36 
" clip-path="url(#pe5a7d230ba)" style="fill: none; stroke-dasharray: 2.96,1.28; stroke-dashoffset: 0; stroke: #b0b0b0; stroke-opacity: 0.6; stroke-width: 0.8"/>
     </g>
     <g id="line2d_6">
      <g>
       <use xlink:href="#ma1d0a81ae6" x="325.13859" y="600.28" style="stroke: #000000; stroke-width: 0.8"/>
      </g>
     </g>
     <g id="text_3">
      <!-- 40 -->
      <g transform="translate(318.77609 614.878438) scale(0.1 -0.1)">
       <defs>
        <path id="DejaVuSans-34" d="M 2419 4116 
L 825 1625 
L 2419 1625 
L 2419 4116 
z
M 2253 4666 
L 3047 4666 
L 3047 1625 
L 3713 1625 
L 3713 1100 
L 3047 1100 
L 3047 0 
L 2419 0 
L 2419 1100 
L 313 1100 
L 313 1709 
L 2253 4666 
z
" transform="scale(0.015625)"/>
       </defs>
       <use xlink:href="#DejaVuSans-34"/>
       <use xlink:href="#DejaVuSans-30" transform="translate(63.623047 0)"/>
      </g>
     </g>
    </g>
    <g id="xtick_4">
     <g id="line2d_7">
      <path d="M 449.743181 600.28 
L 449.743181 33.36 
" clip-path="url(#pe5a7d230ba)" style="fill: none; stroke-dasharray: 2.96,1.28; stroke-dashoffset: 0; stroke: #b0b0b0; stroke-opacity: 0.6; stroke-width: 0.8"/>
     </g>
     <g id="line2d_8">
      <g>
       <use xlink:href="#ma1d0a81ae6" x="449.743181" y="600.28" style="stroke: #000000; stroke-width: 0.8"/>
      </g>
     </g>
     <g id="text_4">
      <!-- 60 -->
      <g transform="translate(443.380681 614.878438) scale(0.1 -0.1)">
       <defs>
        <path id="DejaVuSans-36" d="M 2113 2584 
Q 1688 2584 1439 2293 
Q 1191 2003 1191 1497 
Q 1191 994 1439 701 
Q 1688 409 2113 409 
Q 2538 409 2786 701 
Q 3034 994 3034 1497 
Q 3034 2003 2786 2293 
Q 2538 2584 2113 2584 
z
M 3366 4563 
L 3366 3988 
Q 3128 4100 2886 4159 
Q 2644 4219 2406 4219 
Q 1781 4219 1451 3797 
Q 1122 3375 1075 2522 
Q 1259 2794 1537 2939 
Q 1816 3084 2150 3084 
Q 2853 3084 3261 2657 
Q 3669 2231 3669 1497 
Q 3669 778 3244 343 
Q 2819 -91 2113 -91 
Q 1303 -91 875 529 
Q 447 1150 447 2328 
Q 447 3434 972 4092 
Q 1497 4750 2381 4750 
Q 2619 4750 2861 4703 
Q 3103 4656 3366 4563 
z
" transform="scale(0.015625)"/>
       </defs>
       <use xlink:href="#DejaVuSans-36"/>
       <use xlink:href="#DejaVuSans-30" transform="translate(63.623047 0)"/>
      </g>
     </g>
    </g>
    <g id="xtick_5">
     <g id="line2d_9">
      <path d="M 574.347772 600.28 
L 574.347772 33.36 
" clip-path="url(#pe5a7d230ba)" style="fill: none; stroke-dasharray: 2.96,1.28; stroke-dashoffset: 0; stroke: #b0b0b0; stroke-opacity: 0.6; stroke-width: 0.8"/>
     </g>
     <g id="line2d_10">
      <g>
       <use xlink:href="#ma1d0a81ae6" x="574.347772" y="600.28" style="stroke: #000000; stroke-width: 0.8"/>
      </g>
     </g>
     <g id="text_5">
      <!-- 80 -->
      <g transform="translate(567.985272 614.878438) scale(0.1 -0.1)">
       <defs>
        <path id="DejaVuSans-38" d="M 2034 2216 
Q 1584 2216 1326 1975 
Q 1069 1734 1069 1313 
Q 1069 891 1326 650 
Q 1584 409 2034 409 
Q 2484 409 2743 651 
Q 3003 894 3003 1313 
Q 3003 1734 2745 1975 
Q 2488 2216 2034 2216 
z
M 1403 2484 
Q 997 2584 770 2862 
Q 544 3141 544 3541 
Q 544 4100 942 4425 
Q 1341 4750 2034 4750 
Q 2731 4750 3128 4425 
Q 3525 4100 3525 3541 
Q 3525 3141 3298 2862 
Q 3072 2584 2669 2484 
Q 3125 2378 3379 2068 
Q 3634 1759 3634 1313 
Q 3634 634 3220 271 
Q 2806 -91 2034 -91 
Q 1263 -91 848 271 
Q 434 634 434 1313 
Q 434 1759 690 2068 
Q 947 2378 1403 2484 
z
M 1172 3481 
Q 1172 3119 1398 2916 
Q 1625 2713 2034 2713 
Q 2441 2713 2670 2916 
Q 2900 3119 2900 3481 
Q 2900 3844 2670 4047 
Q 2441 4250 2034 4250 
Q 1625 4250 1398 4047 
Q 1172 3844 1172 3481 
z
" transform="scale(0.015625)"/>
       </defs>
       <use xlink:href="#DejaVuSans-38"/>
       <use xlink:href="#DejaVuSans-30" transform="translate(63.623047 0)"/>
      </g>
     </g>
    </g>
    <g id="xtick_6">
     <g id="line2d_11">
      <path d="M 698.952364 600.28 
L 698.952364 33.36 
" clip-path="url(#pe5a7d230ba)" style="fill: none; stroke-dasharray: 2.96,1.28; stroke-dashoffset: 0; stroke: #b0b0b0; stroke-opacity: 0.6; stroke-width: 0.8"/>
     </g>
     <g id="line2d_12">
      <g>
       <use xlink:href="#ma1d0a81ae6" x="698.952364" y="600.28" style="stroke: #000000; stroke-width: 0.8"/>
      </g>
     </g>
     <g id="text_6">
      <!-- 100 -->
      <g transform="translate(689.408614 614.878438) scale(0.1 -0.1)">
       <defs>
        <path id="DejaVuSans-31" d="M 794 531 
L 1825 531 
L 1825 4091 
L 703 3866 
L 703 4441 
L 1819 4666 
L 2450 4666 
L 2450 531 
L 3481 531 
L 3481 0 
L 794 0 
L 794 531 
z
" transform="scale(0.015625)"/>
       </defs>
       <use xlink:href="#DejaVuSans-31"/>
       <use xlink:href="#DejaVuSans-30" transform="translate(63.623047 0)"/>
       <use xlink:href="#DejaVuSans-30" transform="translate(127.246094 0)"/>
      </g>
     </g>
    </g>
    <g id="text_7">
     <!-- Época -->
     <g transform="translate(369.26725 633.910312) scale(0.14 -0.14)">
      <defs>
       <path id="DejaVuSans-c9" d="M 628 4666 
L 3578 4666 
L 3578 4134 
L 1259 4134 
L 1259 2753 
L 3481 2753 
L 3481 2222 
L 1259 2222 
L 1259 531 
L 3634 531 
L 3634 0 
L 628 0 
L 628 4666 
z
M 2268 5921 
L 2846 5921 
L 2134 5096 
L 1655 5096 
L 2268 5921 
z
" transform="scale(0.015625)"/>
       <path id="DejaVuSans-70" d="M 1159 525 
L 1159 -1331 
L 581 -1331 
L 581 3500 
L 1159 3500 
L 1159 2969 
Q 1341 3281 1617 3432 
Q 1894 3584 2278 3584 
Q 2916 3584 3314 3078 
Q 3713 2572 3713 1747 
Q 3713 922 3314 415 
Q 2916 -91 2278 -91 
Q 1894 -91 1617 61 
Q 1341 213 1159 525 
z
M 3116 1747 
Q 3116 2381 2855 2742 
Q 2594 3103 2138 3103 
Q 1681 3103 1420 2742 
Q 1159 2381 1159 1747 
Q 1159 1113 1420 752 
Q 1681 391 2138 391 
Q 2594 391 2855 752 
Q 3116 1113 3116 1747 
z
" transform="scale(0.015625)"/>
       <path id="DejaVuSans-6f" d="M 1959 3097 
Q 1497 3097 1228 2736 
Q 959 2375 959 1747 
Q 959 1119 1226 758 
Q 1494 397 1959 397 
Q 2419 397 2687 759 
Q 2956 1122 2956 1747 
Q 2956 2369 2687 2733 
Q 2419 3097 1959 3097 
z
M 1959 3584 
Q 2709 3584 3137 3096 
Q 3566 2609 3566 1747 
Q 3566 888 3137 398 
Q 2709 -91 1959 -91 
Q 1206 -91 779 398 
Q 353 888 353 1747 
Q 353 2609 779 3096 
Q 1206 3584 1959 3584 
z
" transform="scale(0.015625)"/>
       <path id="DejaVuSans-63" d="M 3122 3366 
L 3122 2828 
Q 2878 2963 2633 3030 
Q 2388 3097 2138 3097 
Q 1578 3097 1268 2742 
Q 959 2388 959 1747 
Q 959 1106 1268 751 
Q 1578 397 2138 397 
Q 2388 397 2633 464 
Q 2878 531 3122 666 
L 3122 134 
Q 2881 22 2623 -34 
Q 2366 -91 2075 -91 
Q 1284 -91 818 406 
Q 353 903 353 1747 
Q 353 2603 823 3093 
Q 1294 3584 2113 3584 
Q 2378 3584 2631 3529 
Q 2884 3475 3122 3366 
z
" transform="scale(0.015625)"/>
       <path id="DejaVuSans-61" d="M 2194 1759 
Q 1497 1759 1228 1600 
Q 959 1441 959 1056 
Q 959 750 1161 570 
Q 1363 391 1709 391 
Q 2188 391 2477 730 
Q 2766 1069 2766 1631 
L 2766 1759 
L 2194 1759 
z
M 3341 1997 
L 3341 0 
L 2766 0 
L 2766 531 
Q 2569 213 2275 61 
Q 1981 -91 1556 -91 
Q 1019 -91 701 211 
Q 384 513 384 1019 
Q 384 1609 779 1909 
Q 1175 2209 1959 2209 
L 2766 2209 
L 2766 2266 
Q 2766 2663 2505 2880 
Q 2244 3097 1772 3097 
Q 1472 3097 1187 3025 
Q 903 2953 641 2809 
L 641 3341 
Q 956 3463 1253 3523 
Q 1550 3584 1831 3584 
Q 2591 3584 2966 3190 
Q 3341 2797 3341 1997 
z
" transform="scale(0.015625)"/>
      </defs>
      <use xlink:href="#DejaVuSans-c9"/>
      <use xlink:href="#DejaVuSans-70" transform="translate(63.183594 0)"/>
      <use xlink:href="#DejaVuSans-6f" transform="translate(126.660156 0)"/>
      <use xlink:href="#DejaVuSans-63" transform="translate(187.841797 0)"/>
      <use xlink:href="#DejaVuSans-61" transform="translate(242.822266 0)"/>
     </g>
    </g>
   </g>
   <g id="matplotlib.axis_2">
    <g id="ytick_1">
     <g id="line2d_13">
      <path d="M 51.32 574.510909 
L 729.792 574.510909 
" clip-path="url(#pe5a7d230ba)" style="fill: none; stroke-dasharray: 2.96,1.28; stroke-dashoffset: 0; stroke: #b0b0b0; stroke-opacity: 0.6; stroke-width: 0.8"/>
     </g>
     <g id="line2d_14">
      <defs>
       <path id="mf0ba99d4fc" d="M 0 0 
L -3.5 0 
" style="stroke: #000000; stroke-width: 0.8"/>
      </defs>
      <g>
       <use xlink:href="#mf0ba99d4fc" x="51.32" y="574.510909" style="stroke: #000000; stroke-width: 0.8"/>
      </g>
     </g>
     <g id="text_8">
      <!-- 0.0 -->
      <g transform="translate(28.416875 578.310128) scale(0.1 -0.1)">
       <defs>
        <path id="DejaVuSans-2e" d="M 684 794 
L 1344 794 
L 1344 0 
L 684 0 
L 684 794 
z
" transform="scale(0.015625)"/>
       </defs>
       <use xlink:href="#DejaVuSans-30"/>
       <use xlink:href="#DejaVuSans-2e" transform="translate(63.623047 0)"/>
       <use xlink:href="#DejaVuSans-30" transform="translate(95.410156 0)"/>
      </g>
     </g>
    </g>
    <g id="ytick_2">
     <g id="line2d_15">
      <path d="M 51.32 465.417844 
L 729.792 465.417844 
" clip-path="url(#pe5a7d230ba)" style="fill: none; stroke-dasharray: 2.96,1.28; stroke-dashoffset: 0; stroke: #b0b0b0; stroke-opacity: 0.6; stroke-width: 0.8"/>
     </g>
     <g id="line2d_16">
      <g>
       <use xlink:href="#mf0ba99d4fc" x="51.32" y="465.417844" style="stroke: #000000; stroke-width: 0.8"/>
      </g>
     </g>
     <g id="text_9">
      <!-- 0.2 -->
      <g transform="translate(28.416875 469.217063) scale(0.1 -0.1)">
       <use xlink:href="#DejaVuSans-30"/>
       <use xlink:href="#DejaVuSans-2e" transform="translate(63.623047 0)"/>
       <use xlink:href="#DejaVuSans-32" transform="translate(95.410156 0)"/>
      </g>
     </g>
    </g>
    <g id="ytick_3">
     <g id="line2d_17">
      <path d="M 51.32 356.324779 
L 729.792 356.324779 
" clip-path="url(#pe5a7d230ba)" style="fill: none; stroke-dasharray: 2.96,1.28; stroke-dashoffset: 0; stroke: #b0b0b0; stroke-opacity: 0.6; stroke-width: 0.8"/>
     </g>
     <g id="line2d_18">
      <g>
       <use xlink:href="#mf0ba99d4fc" x="51.32" y="356.324779" style="stroke: #000000; stroke-width: 0.8"/>
      </g>
     </g>
     <g id="text_10">
      <!-- 0.4 -->
      <g transform="translate(28.416875 360.123998) scale(0.1 -0.1)">
       <use xlink:href="#DejaVuSans-30"/>
       <use xlink:href="#DejaVuSans-2e" transform="translate(63.623047 0)"/>
       <use xlink:href="#DejaVuSans-34" transform="translate(95.410156 0)"/>
      </g>
     </g>
    </g>
    <g id="ytick_4">
     <g id="line2d_19">
      <path d="M 51.32 247.231715 
L 729.792 247.231715 
" clip-path="url(#pe5a7d230ba)" style="fill: none; stroke-dasharray: 2.96,1.28; stroke-dashoffset: 0; stroke: #b0b0b0; stroke-opacity: 0.6; stroke-width: 0.8"/>
     </g>
     <g id="line2d_20">
      <g>
       <use xlink:href="#mf0ba99d4fc" x="51.32" y="247.231715" style="stroke: #000000; stroke-width: 0.8"/>
      </g>
     </g>
     <g id="text_11">
      <!-- 0.6 -->
      <g transform="translate(28.416875 251.030933) scale(0.1 -0.1)">
       <use xlink:href="#DejaVuSans-30"/>
       <use xlink:href="#DejaVuSans-2e" transform="translate(63.623047 0)"/>
       <use xlink:href="#DejaVuSans-36" transform="translate(95.410156 0)"/>
      </g>
     </g>
    </g>
    <g id="ytick_5">
     <g id="line2d_21">
      <path d="M 51.32 138.13865 
L 729.792 138.13865 
" clip-path="url(#pe5a7d230ba)" style="fill: none; stroke-dasharray: 2.96,1.28; stroke-dashoffset: 0; stroke: #b0b0b0; stroke-opacity: 0.6; stroke-width: 0.8"/>
     </g>
     <g id="line2d_22">
      <g>
       <use xlink:href="#mf0ba99d4fc" x="51.32" y="138.13865" style="stroke: #000000; stroke-width: 0.8"/>
      </g>
     </g>
     <g id="text_12">
      <!-- 0.8 -->
      <g transform="translate(28.416875 141.937869) scale(0.1 -0.1)">
       <use xlink:href="#DejaVuSans-30"/>
       <use xlink:href="#DejaVuSans-2e" transform="translate(63.623047 0)"/>
       <use xlink:href="#DejaVuSans-38" transform="translate(95.410156 0)"/>
      </g>
     </g>
    </g>
    <g id="text_13">
     <!-- F1-score (Entrenamiento/Validación) -->
     <g transform="translate(21.505312 444.238594) rotate(-90) scale(0.14 -0.14)">
      <defs>
       <path id="DejaVuSans-46" d="M 628 4666 
L 3309 4666 
L 3309 4134 
L 1259 4134 
L 1259 2759 
L 3109 2759 
L 3109 2228 
L 1259 2228 
L 1259 0 
L 628 0 
L 628 4666 
z
" transform="scale(0.015625)"/>
       <path id="DejaVuSans-2d" d="M 313 2009 
L 1997 2009 
L 1997 1497 
L 313 1497 
L 313 2009 
z
" transform="scale(0.015625)"/>
       <path id="DejaVuSans-73" d="M 2834 3397 
L 2834 2853 
Q 2591 2978 2328 3040 
Q 2066 3103 1784 3103 
Q 1356 3103 1142 2972 
Q 928 2841 928 2578 
Q 928 2378 1081 2264 
Q 1234 2150 1697 2047 
L 1894 2003 
Q 2506 1872 2764 1633 
Q 3022 1394 3022 966 
Q 3022 478 2636 193 
Q 2250 -91 1575 -91 
Q 1294 -91 989 -36 
Q 684 19 347 128 
L 347 722 
Q 666 556 975 473 
Q 1284 391 1588 391 
Q 1994 391 2212 530 
Q 2431 669 2431 922 
Q 2431 1156 2273 1281 
Q 2116 1406 1581 1522 
L 1381 1569 
Q 847 1681 609 1914 
Q 372 2147 372 2553 
Q 372 3047 722 3315 
Q 1072 3584 1716 3584 
Q 2034 3584 2315 3537 
Q 2597 3491 2834 3397 
z
" transform="scale(0.015625)"/>
       <path id="DejaVuSans-72" d="M 2631 2963 
Q 2534 3019 2420 3045 
Q 2306 3072 2169 3072 
Q 1681 3072 1420 2755 
Q 1159 2438 1159 1844 
L 1159 0 
L 581 0 
L 581 3500 
L 1159 3500 
L 1159 2956 
Q 1341 3275 1631 3429 
Q 1922 3584 2338 3584 
Q 2397 3584 2469 3576 
Q 2541 3569 2628 3553 
L 2631 2963 
z
" transform="scale(0.015625)"/>
       <path id="DejaVuSans-65" d="M 3597 1894 
L 3597 1613 
L 953 1613 
Q 991 1019 1311 708 
Q 1631 397 2203 397 
Q 2534 397 2845 478 
Q 3156 559 3463 722 
L 3463 178 
Q 3153 47 2828 -22 
Q 2503 -91 2169 -91 
Q 1331 -91 842 396 
Q 353 884 353 1716 
Q 353 2575 817 3079 
Q 1281 3584 2069 3584 
Q 2775 3584 3186 3129 
Q 3597 2675 3597 1894 
z
M 3022 2063 
Q 3016 2534 2758 2815 
Q 2500 3097 2075 3097 
Q 1594 3097 1305 2825 
Q 1016 2553 972 2059 
L 3022 2063 
z
" transform="scale(0.015625)"/>
       <path id="DejaVuSans-20" transform="scale(0.015625)"/>
       <path id="DejaVuSans-28" d="M 1984 4856 
Q 1566 4138 1362 3434 
Q 1159 2731 1159 2009 
Q 1159 1288 1364 580 
Q 1569 -128 1984 -844 
L 1484 -844 
Q 1016 -109 783 600 
Q 550 1309 550 2009 
Q 550 2706 781 3412 
Q 1013 4119 1484 4856 
L 1984 4856 
z
" transform="scale(0.015625)"/>
       <path id="DejaVuSans-45" d="M 628 4666 
L 3578 4666 
L 3578 4134 
L 1259 4134 
L 1259 2753 
L 3481 2753 
L 3481 2222 
L 1259 2222 
L 1259 531 
L 3634 531 
L 3634 0 
L 628 0 
L 628 4666 
z
" transform="scale(0.015625)"/>
       <path id="DejaVuSans-6e" d="M 3513 2113 
L 3513 0 
L 2938 0 
L 2938 2094 
Q 2938 2591 2744 2837 
Q 2550 3084 2163 3084 
Q 1697 3084 1428 2787 
Q 1159 2491 1159 1978 
L 1159 0 
L 581 0 
L 581 3500 
L 1159 3500 
L 1159 2956 
Q 1366 3272 1645 3428 
Q 1925 3584 2291 3584 
Q 2894 3584 3203 3211 
Q 3513 2838 3513 2113 
z
" transform="scale(0.015625)"/>
       <path id="DejaVuSans-74" d="M 1172 4494 
L 1172 3500 
L 2356 3500 
L 2356 3053 
L 1172 3053 
L 1172 1153 
Q 1172 725 1289 603 
Q 1406 481 1766 481 
L 2356 481 
L 2356 0 
L 1766 0 
Q 1100 0 847 248 
Q 594 497 594 1153 
L 594 3053 
L 172 3053 
L 172 3500 
L 594 3500 
L 594 4494 
L 1172 4494 
z
" transform="scale(0.015625)"/>
       <path id="DejaVuSans-6d" d="M 3328 2828 
Q 3544 3216 3844 3400 
Q 4144 3584 4550 3584 
Q 5097 3584 5394 3201 
Q 5691 2819 5691 2113 
L 5691 0 
L 5113 0 
L 5113 2094 
Q 5113 2597 4934 2840 
Q 4756 3084 4391 3084 
Q 3944 3084 3684 2787 
Q 3425 2491 3425 1978 
L 3425 0 
L 2847 0 
L 2847 2094 
Q 2847 2600 2669 2842 
Q 2491 3084 2119 3084 
Q 1678 3084 1418 2786 
Q 1159 2488 1159 1978 
L 1159 0 
L 581 0 
L 581 3500 
L 1159 3500 
L 1159 2956 
Q 1356 3278 1631 3431 
Q 1906 3584 2284 3584 
Q 2666 3584 2933 3390 
Q 3200 3197 3328 2828 
z
" transform="scale(0.015625)"/>
       <path id="DejaVuSans-69" d="M 603 3500 
L 1178 3500 
L 1178 0 
L 603 0 
L 603 3500 
z
M 603 4863 
L 1178 4863 
L 1178 4134 
L 603 4134 
L 603 4863 
z
" transform="scale(0.015625)"/>
       <path id="DejaVuSans-2f" d="M 1625 4666 
L 2156 4666 
L 531 -594 
L 0 -594 
L 1625 4666 
z
" transform="scale(0.015625)"/>
       <path id="DejaVuSans-56" d="M 1831 0 
L 50 4666 
L 709 4666 
L 2188 738 
L 3669 4666 
L 4325 4666 
L 2547 0 
L 1831 0 
z
" transform="scale(0.015625)"/>
       <path id="DejaVuSans-6c" d="M 603 4863 
L 1178 4863 
L 1178 0 
L 603 0 
L 603 4863 
z
" transform="scale(0.015625)"/>
       <path id="DejaVuSans-64" d="M 2906 2969 
L 2906 4863 
L 3481 4863 
L 3481 0 
L 2906 0 
L 2906 525 
Q 2725 213 2448 61 
Q 2172 -91 1784 -91 
Q 1150 -91 751 415 
Q 353 922 353 1747 
Q 353 2572 751 3078 
Q 1150 3584 1784 3584 
Q 2172 3584 2448 3432 
Q 2725 3281 2906 2969 
z
M 947 1747 
Q 947 1113 1208 752 
Q 1469 391 1925 391 
Q 2381 391 2643 752 
Q 2906 1113 2906 1747 
Q 2906 2381 2643 2742 
Q 2381 3103 1925 3103 
Q 1469 3103 1208 2742 
Q 947 2381 947 1747 
z
" transform="scale(0.015625)"/>
       <path id="DejaVuSans-f3" d="M 1959 3097 
Q 1497 3097 1228 2736 
Q 959 2375 959 1747 
Q 959 1119 1226 758 
Q 1494 397 1959 397 
Q 2419 397 2687 759 
Q 2956 1122 2956 1747 
Q 2956 2369 2687 2733 
Q 2419 3097 1959 3097 
z
M 1959 3584 
Q 2709 3584 3137 3096 
Q 3566 2609 3566 1747 
Q 3566 888 3137 398 
Q 2709 -91 1959 -91 
Q 1206 -91 779 398 
Q 353 888 353 1747 
Q 353 2609 779 3096 
Q 1206 3584 1959 3584 
z
M 2394 5119 
L 3016 5119 
L 1998 3944 
L 1519 3944 
L 2394 5119 
z
" transform="scale(0.015625)"/>
       <path id="DejaVuSans-29" d="M 513 4856 
L 1013 4856 
Q 1481 4119 1714 3412 
Q 1947 2706 1947 2009 
Q 1947 1309 1714 600 
Q 1481 -109 1013 -844 
L 513 -844 
Q 928 -128 1133 580 
Q 1338 1288 1338 2009 
Q 1338 2731 1133 3434 
Q 928 4138 513 4856 
z
" transform="scale(0.015625)"/>
      </defs>
      <use xlink:href="#DejaVuSans-46"/>
      <use xlink:href="#DejaVuSans-31" transform="translate(57.519531 0)"/>
      <use xlink:href="#DejaVuSans-2d" transform="translate(121.142578 0)"/>
      <use xlink:href="#DejaVuSans-73" transform="translate(157.226562 0)"/>
      <use xlink:href="#DejaVuSans-63" transform="translate(209.326172 0)"/>
      <use xlink:href="#DejaVuSans-6f" transform="translate(264.306641 0)"/>
      <use xlink:href="#DejaVuSans-72" transform="translate(325.488281 0)"/>
      <use xlink:href="#DejaVuSans-65" transform="translate(364.351562 0)"/>
      <use xlink:href="#DejaVuSans-20" transform="translate(425.875 0)"/>
      <use xlink:href="#DejaVuSans-28" transform="translate(457.662109 0)"/>
      <use xlink:href="#DejaVuSans-45" transform="translate(496.675781 0)"/>
      <use xlink:href="#DejaVuSans-6e" transform="translate(559.859375 0)"/>
      <use xlink:href="#DejaVuSans-74" transform="translate(623.238281 0)"/>
      <use xlink:href="#DejaVuSans-72" transform="translate(662.447266 0)"/>
      <use xlink:href="#DejaVuSans-65" transform="translate(701.310547 0)"/>
      <use xlink:href="#DejaVuSans-6e" transform="translate(762.833984 0)"/>
      <use xlink:href="#DejaVuSans-61" transform="translate(826.212891 0)"/>
      <use xlink:href="#DejaVuSans-6d" transform="translate(887.492188 0)"/>
      <use xlink:href="#DejaVuSans-69" transform="translate(984.904297 0)"/>
      <use xlink:href="#DejaVuSans-65" transform="translate(1012.6875 0)"/>
      <use xlink:href="#DejaVuSans-6e" transform="translate(1074.210938 0)"/>
      <use xlink:href="#DejaVuSans-74" transform="translate(1137.589844 0)"/>
      <use xlink:href="#DejaVuSans-6f" transform="translate(1176.798828 0)"/>
      <use xlink:href="#DejaVuSans-2f" transform="translate(1237.980469 0)"/>
      <use xlink:href="#DejaVuSans-56" transform="translate(1271.671875 0)"/>
      <use xlink:href="#DejaVuSans-61" transform="translate(1332.330078 0)"/>
      <use xlink:href="#DejaVuSans-6c" transform="translate(1393.609375 0)"/>
      <use xlink:href="#DejaVuSans-69" transform="translate(1421.392578 0)"/>
      <use xlink:href="#DejaVuSans-64" transform="translate(1449.175781 0)"/>
      <use xlink:href="#DejaVuSans-61" transform="translate(1512.652344 0)"/>
      <use xlink:href="#DejaVuSans-63" transform="translate(1573.931641 0)"/>
      <use xlink:href="#DejaVuSans-69" transform="translate(1628.912109 0)"/>
      <use xlink:href="#DejaVuSans-f3" transform="translate(1656.695312 0)"/>
      <use xlink:href="#DejaVuSans-6e" transform="translate(1717.876953 0)"/>
      <use xlink:href="#DejaVuSans-29" transform="translate(1781.255859 0)"/>
     </g>
    </g>
   </g>
   <g id="line2d_23">
    <path d="M 82.159636 574.510909 
L 88.389866 574.510909 
L 94.620096 574.510909 
L 100.850325 574.510909 
L 107.080555 572.753234 
L 113.310784 562.917597 
L 119.541014 364.943358 
L 125.771243 433.066108 
L 132.001473 567.521498 
L 138.231702 297.570028 
L 144.461932 198.393383 
L 150.692162 258.586987 
L 156.922391 261.362941 
L 163.152621 319.58119 
L 169.38285 413.77818 
L 175.61308 294.516135 
L 181.843309 234.522898 
L 188.073539 376.922445 
L 194.303769 215.50567 
L 200.533998 197.746201 
L 206.764228 269.674832 
L 212.994457 188.499318 
L 219.224687 244.912178 
L 225.454916 211.455399 
L 231.685146 204.822134 
L 237.915376 181.723285 
L 244.145605 183.70496 
L 250.375835 170.521661 
L 256.606064 174.220268 
L 262.836294 214.127113 
L 269.066523 190.864074 
L 275.296753 138.535249 
L 281.526983 152.255474 
L 287.757212 155.879435 
L 293.987442 141.905718 
L 300.217671 199.670998 
L 306.447901 157.188204 
L 312.67813 143.731555 
L 318.90836 131.705496 
L 325.13859 132.200788 
L 331.368819 135.963005 
L 337.599049 146.219618 
L 343.829278 134.82142 
L 350.059508 120.221378 
L 356.289737 135.358404 
L 362.519967 122.705234 
L 368.750197 129.175531 
L 374.980426 128.221098 
L 381.210656 118.894075 
L 387.440885 112.358732 
L 393.671115 111.117228 
L 399.901344 109.828014 
L 406.131574 113.699858 
L 412.361803 106.377752 
L 418.592033 116.369936 
L 424.822263 114.109614 
L 431.052492 116.213237 
L 437.282722 108.144915 
L 443.512951 118.071896 
L 449.743181 100.257875 
L 455.97341 97.541771 
L 462.20364 95.515972 
L 468.43387 105.099036 
L 474.664099 95.456164 
L 480.894329 98.835761 
L 487.124558 91.858539 
L 493.354788 89.079725 
L 499.585017 94.087108 
L 505.815247 89.886526 
L 512.045477 85.334036 
L 518.275706 86.167022 
L 524.505936 85.270019 
L 530.736165 84.05425 
L 536.966395 81.429991 
L 543.196624 80.687272 
L 549.426854 79.429932 
L 555.657084 84.338496 
L 561.887313 83.363889 
L 568.117543 78.064457 
L 574.347772 81.296459 
L 580.578002 73.232958 
L 586.808231 75.782525 
L 593.038461 74.475957 
L 599.268691 72.387103 
L 605.49892 70.797988 
L 611.72915 69.966485 
L 617.959379 70.657784 
L 624.189609 68.017899 
L 630.419838 68.049288 
L 636.650068 67.408951 
L 642.880298 66.286189 
L 649.110527 64.974439 
L 655.340757 65.350179 
L 661.570986 63.781099 
L 667.801216 61.802752 
L 674.031445 62.014887 
L 680.261675 63.015579 
L 686.491904 60.265523 
L 692.722134 59.792682 
L 698.952364 59.129091 
" clip-path="url(#pe5a7d230ba)" style="fill: none; stroke: #f7fbff; stroke-opacity: 0.8; stroke-linecap: square"/>
   </g>
   <g id="line2d_24">
    <path d="M 82.159636 574.510909 
L 88.389866 574.510909 
L 94.620096 574.510909 
L 100.850325 574.510909 
L 107.080555 572.753234 
L 113.310784 562.917597 
L 119.541014 364.943358 
L 125.771243 433.066108 
L 132.001473 567.521498 
L 138.231702 297.570028 
L 144.461932 198.393383 
L 150.692162 258.586987 
L 156.922391 261.362941 
L 163.152621 319.58119 
L 169.38285 413.77818 
L 175.61308 294.516135 
L 181.843309 234.522898 
L 188.073539 376.922445 
L 194.303769 215.50567 
L 200.533998 197.746201 
L 206.764228 269.674832 
L 212.994457 188.499318 
L 219.224687 244.912178 
L 225.454916 211.455399 
L 231.685146 204.822134 
L 237.915376 181.723285 
L 244.145605 183.70496 
L 250.375835 170.521661 
L 256.606064 174.220268 
L 262.836294 214.127113 
L 269.066523 190.864074 
L 275.296753 138.535249 
L 281.526983 152.255474 
L 287.757212 155.879435 
L 293.987442 141.905718 
L 300.217671 199.670998 
L 306.447901 157.188204 
L 312.67813 143.731555 
L 318.90836 131.705496 
L 325.13859 132.200788 
L 331.368819 135.963005 
L 337.599049 146.219618 
L 343.829278 134.82142 
L 350.059508 120.221378 
L 356.289737 135.358404 
L 362.519967 122.705234 
L 368.750197 129.175531 
L 374.980426 128.221098 
L 381.210656 118.894075 
L 387.440885 112.358732 
L 393.671115 111.117228 
L 399.901344 109.828014 
L 406.131574 113.699858 
L 412.361803 106.377752 
L 418.592033 116.369936 
L 424.822263 114.109614 
L 431.052492 116.213237 
L 437.282722 108.144915 
L 443.512951 118.071896 
L 449.743181 100.257875 
L 455.97341 97.541771 
L 462.20364 95.515972 
L 468.43387 105.099036 
L 474.664099 95.456164 
L 480.894329 98.835761 
L 487.124558 91.858539 
L 493.354788 89.079725 
L 499.585017 94.087108 
L 505.815247 89.886526 
L 512.045477 85.334036 
L 518.275706 86.167022 
L 524.505936 85.270019 
L 530.736165 84.05425 
L 536.966395 81.429991 
L 543.196624 80.687272 
L 549.426854 79.429932 
L 555.657084 84.338496 
L 561.887313 83.363889 
L 568.117543 78.064457 
L 574.347772 81.296459 
L 580.578002 73.232958 
L 586.808231 75.782525 
L 593.038461 74.475957 
L 599.268691 72.387103 
L 605.49892 70.797988 
L 611.72915 69.966485 
L 617.959379 70.657784 
L 624.189609 68.017899 
L 630.419838 68.049288 
L 636.650068 67.408951 
L 642.880298 66.286189 
L 649.110527 64.974439 
L 655.340757 65.350179 
L 661.570986 63.781099 
L 667.801216 61.802752 
L 674.031445 62.014887 
L 680.261675 63.015579 
L 686.491904 60.265523 
L 692.722134 59.792682 
L 698.952364 59.129091 
" clip-path="url(#pe5a7d230ba)" style="fill: none; stroke: #c6dbef; stroke-opacity: 0.8; stroke-linecap: square"/>
   </g>
   <g id="line2d_25">
    <path d="M 82.159636 574.510909 
L 88.389866 574.510909 
L 94.620096 574.510909 
L 100.850325 574.510909 
L 107.080555 574.510909 
L 113.310784 574.510909 
L 119.541014 573.924072 
L 125.771243 574.510909 
L 132.001473 574.510909 
L 138.231702 574.510909 
L 144.461932 572.1686 
L 150.692162 568.100526 
L 156.922391 485.291801 
L 163.152621 552.76098 
L 169.38285 574.510909 
L 175.61308 564.640861 
L 181.843309 558.94266 
L 188.073539 573.924072 
L 194.303769 456.391231 
L 200.533998 451.415772 
L 206.764228 437.26154 
L 212.994457 398.508069 
L 219.224687 418.663674 
L 225.454916 367.476312 
L 231.685146 390.561181 
L 237.915376 324.815611 
L 244.145605 296.359717 
L 250.375835 299.047887 
L 256.606064 284.566485 
L 262.836294 356.324779 
L 269.066523 326.259762 
L 275.296753 200.532339 
L 281.526983 261.247143 
L 287.757212 283.068093 
L 293.987442 237.691533 
L 300.217671 289.920305 
L 306.447901 264.130219 
L 312.67813 238.896186 
L 318.90836 223.42313 
L 325.13859 218.826086 
L 331.368819 223.624691 
L 337.599049 243.667067 
L 343.829278 208.225603 
L 350.059508 185.528932 
L 356.289737 205.235712 
L 362.519967 184.869608 
L 368.750197 218.594339 
L 374.980426 206.789332 
L 381.210656 207.360672 
L 387.440885 158.096126 
L 393.671115 167.332569 
L 399.901344 176.061782 
L 406.131574 183.472584 
L 412.361803 179.179671 
L 418.592033 181.484254 
L 424.822263 176.499608 
L 431.052492 188.352844 
L 437.282722 183.976639 
L 443.512951 202.739273 
L 449.743181 161.14553 
L 455.97341 160.654951 
L 462.20364 154.158007 
L 468.43387 170.170789 
L 474.664099 144.322792 
L 480.894329 165.819954 
L 487.124558 157.53155 
L 493.354788 141.817299 
L 499.585017 150.575764 
L 505.815247 149.419793 
L 512.045477 135.654009 
L 518.275706 142.377063 
L 524.505936 144.465609 
L 530.736165 145.245895 
L 536.966395 137.893703 
L 543.196624 143.731555 
L 549.426854 134.93625 
L 555.657084 142.612001 
L 561.887313 142.637986 
L 568.117543 139.833421 
L 574.347772 127.796136 
L 580.578002 133.384736 
L 586.808231 141.435854 
L 593.038461 132.091636 
L 599.268691 130.091808 
L 605.49892 130.685086 
L 611.72915 125.553316 
L 617.959379 135.060297 
L 624.189609 125.071792 
L 630.419838 123.174557 
L 636.650068 121.102199 
L 642.880298 122.934675 
L 649.110527 126.306296 
L 655.340757 121.729108 
L 661.570986 123.260926 
L 667.801216 119.77975 
L 674.031445 118.798051 
L 680.261675 124.975457 
L 686.491904 120.237456 
L 692.722134 123.262323 
L 698.952364 116.465737 
" clip-path="url(#pe5a7d230ba)" style="fill: none; stroke: #6baed6; stroke-opacity: 0.8; stroke-linecap: square"/>
   </g>
   <g id="line2d_26">
    <path d="M 82.159636 574.510909 
L 88.389866 574.510909 
L 94.620096 574.510909 
L 100.850325 574.510909 
L 107.080555 574.510909 
L 113.310784 574.510909 
L 119.541014 573.924072 
L 125.771243 574.510909 
L 132.001473 574.510909 
L 138.231702 574.510909 
L 144.461932 572.1686 
L 150.692162 568.100526 
L 156.922391 485.291801 
L 163.152621 552.76098 
L 169.38285 574.510909 
L 175.61308 564.640861 
L 181.843309 558.94266 
L 188.073539 573.924072 
L 194.303769 456.391231 
L 200.533998 451.415772 
L 206.764228 437.26154 
L 212.994457 398.508069 
L 219.224687 418.663674 
L 225.454916 367.476312 
L 231.685146 390.561181 
L 237.915376 324.815611 
L 244.145605 296.359717 
L 250.375835 299.047887 
L 256.606064 284.566485 
L 262.836294 356.324779 
L 269.066523 326.259762 
L 275.296753 200.532339 
L 281.526983 261.247143 
L 287.757212 283.068093 
L 293.987442 237.691533 
L 300.217671 289.920305 
L 306.447901 264.130219 
L 312.67813 238.896186 
L 318.90836 223.42313 
L 325.13859 218.826086 
L 331.368819 223.624691 
L 337.599049 243.667067 
L 343.829278 208.225603 
L 350.059508 185.528932 
L 356.289737 205.235712 
L 362.519967 184.869608 
L 368.750197 218.594339 
L 374.980426 206.789332 
L 381.210656 207.360672 
L 387.440885 158.096126 
L 393.671115 167.332569 
L 399.901344 176.061782 
L 406.131574 183.472584 
L 412.361803 179.179671 
L 418.592033 181.484254 
L 424.822263 176.499608 
L 431.052492 188.352844 
L 437.282722 183.976639 
L 443.512951 202.739273 
L 449.743181 161.14553 
L 455.97341 160.654951 
L 462.20364 154.158007 
L 468.43387 170.170789 
L 474.664099 144.322792 
L 480.894329 165.819954 
L 487.124558 157.53155 
L 493.354788 141.817299 
L 499.585017 150.575764 
L 505.815247 149.419793 
L 512.045477 135.654009 
L 518.275706 142.377063 
L 524.505936 144.465609 
L 530.736165 145.245895 
L 536.966395 137.893703 
L 543.196624 143.731555 
L 549.426854 134.93625 
L 555.657084 142.612001 
L 561.887313 142.637986 
L 568.117543 139.833421 
L 574.347772 127.796136 
L 580.578002 133.384736 
L 586.808231 141.435854 
L 593.038461 132.091636 
L 599.268691 130.091808 
L 605.49892 130.685086 
L 611.72915 125.553316 
L 617.959379 135.060297 
L 624.189609 125.071792 
L 630.419838 123.174557 
L 636.650068 121.102199 
L 642.880298 122.934675 
L 649.110527 126.306296 
L 655.340757 121.729108 
L 661.570986 123.260926 
L 667.801216 119.77975 
L 674.031445 118.798051 
L 680.261675 124.975457 
L 686.491904 120.237456 
L 692.722134 123.262323 
L 698.952364 116.465737 
" clip-path="url(#pe5a7d230ba)" style="fill: none; stroke: #2171b5; stroke-opacity: 0.8; stroke-linecap: square"/>
   </g>
   <g id="line2d_27">
    <path d="M 82.159636 574.510909 
L 88.389866 574.510909 
L 94.620096 574.510909 
L 100.850325 574.510909 
L 107.080555 574.510909 
L 113.310784 574.510909 
L 119.541014 574.510909 
L 125.771243 574.510909 
L 132.001473 571.584593 
L 138.231702 572.1686 
L 144.461932 570.422839 
L 150.692162 562.923754 
L 156.922391 564.071381 
L 163.152621 462.660604 
L 169.38285 447.278248 
L 175.61308 405.411827 
L 181.843309 413.706167 
L 188.073539 419.085262 
L 194.303769 296.587142 
L 200.533998 362.574195 
L 206.764228 341.084159 
L 212.994457 326.727208 
L 219.224687 324.948832 
L 225.454916 311.34052 
L 231.685146 304.53932 
L 237.915376 306.404319 
L 244.145605 305.272185 
L 250.375835 282.177742 
L 256.606064 230.194871 
L 262.836294 297.011257 
L 269.066523 267.974762 
L 275.296753 264.452916 
L 281.526983 233.301091 
L 287.757212 222.894481 
L 293.987442 234.23061 
L 300.217671 227.87012 
L 306.447901 205.40417 
L 312.67813 216.719364 
L 318.90836 192.833631 
L 325.13859 194.824262 
L 331.368819 190.561276 
L 337.599049 219.531191 
L 343.829278 196.204313 
L 350.059508 185.996288 
L 356.289737 189.024229 
L 362.519967 181.033835 
L 368.750197 185.700565 
L 374.980426 180.245892 
L 381.210656 180.554611 
L 387.440885 175.460811 
L 393.671115 182.85219 
L 399.901344 179.575569 
L 406.131574 168.242085 
L 412.361803 176.052746 
L 418.592033 162.880754 
L 424.822263 166.413726 
L 431.052492 158.96322 
L 437.282722 159.779566 
L 443.512951 157.056522 
L 449.743181 161.96062 
L 455.97341 145.381343 
L 462.20364 153.99869 
L 468.43387 150.958342 
L 474.664099 151.065863 
L 480.894329 146.463519 
L 487.124558 147.187844 
L 493.354788 152.782443 
L 499.585017 143.667854 
L 505.815247 140.849037 
L 512.045477 140.488061 
L 518.275706 134.634137 
L 524.505936 139.503865 
L 530.736165 137.953012 
L 536.966395 138.200758 
L 543.196624 137.517037 
L 549.426854 135.1852 
L 555.657084 137.080098 
L 561.887313 131.120075 
L 568.117543 131.033206 
L 574.347772 126.374306 
L 580.578002 129.195591 
L 586.808231 126.754496 
L 593.038461 126.70665 
L 599.268691 125.089966 
L 605.49892 124.730564 
L 611.72915 125.972822 
L 617.959379 124.188443 
L 624.189609 124.402367 
L 630.419838 124.202732 
L 636.650068 122.63708 
L 642.880298 120.591148 
L 649.110527 119.020811 
L 655.340757 117.666716 
L 661.570986 116.056005 
L 667.801216 116.332118 
L 674.031445 116.259261 
L 680.261675 117.181539 
L 686.491904 110.285101 
L 692.722134 114.388434 
L 698.952364 113.882304 
" clip-path="url(#pe5a7d230ba)" style="fill: none; stroke: #08306b; stroke-opacity: 0.8; stroke-linecap: square"/>
   </g>
   <g id="line2d_28">
    <path d="M 82.159636 566.975256 
L 88.389866 506.819686 
L 94.620096 574.510909 
L 100.850325 573.337865 
L 107.080555 452.121183 
L 113.310784 351.987083 
L 119.541014 267.484673 
L 125.771243 314.008411 
L 132.001473 412.404749 
L 138.231702 251.572849 
L 144.461932 210.778078 
L 150.692162 216.243949 
L 156.922391 231.146159 
L 163.152621 261.265985 
L 169.38285 327.865719 
L 175.61308 239.89168 
L 181.843309 218.469269 
L 188.073539 327.20432 
L 194.303769 210.86736 
L 200.533998 197.667564 
L 206.764228 237.253915 
L 212.994457 187.920527 
L 219.224687 218.418686 
L 225.454916 209.012627 
L 231.685146 207.732502 
L 237.915376 185.453758 
L 244.145605 181.385677 
L 250.375835 170.336148 
L 256.606064 174.384974 
L 262.836294 206.949555 
L 269.066523 190.747503 
L 275.296753 145.530993 
L 281.526983 162.353306 
L 287.757212 161.005318 
L 293.987442 145.654082 
L 300.217671 192.843186 
L 306.447901 167.594766 
L 312.67813 145.997311 
L 318.90836 137.902964 
L 325.13859 136.413623 
L 331.368819 136.494949 
L 337.599049 154.32225 
L 343.829278 135.392251 
L 350.059508 128.677228 
L 356.289737 142.657674 
L 362.519967 127.706253 
L 368.750197 134.87746 
L 374.980426 130.437232 
L 381.210656 125.997063 
L 387.440885 119.084821 
L 393.671115 120.768836 
L 399.901344 119.637314 
L 406.131574 121.660257 
L 412.361803 118.022198 
L 418.592033 121.460417 
L 424.822263 117.507694 
L 431.052492 124.053939 
L 437.282722 115.348556 
L 443.512951 124.963935 
L 449.743181 108.508435 
L 455.97341 104.944117 
L 462.20364 102.584965 
L 468.43387 116.23775 
L 474.664099 103.847455 
L 480.894329 109.142371 
L 487.124558 98.65735 
L 493.354788 97.956937 
L 499.585017 101.490198 
L 505.815247 96.70484 
L 512.045477 92.879693 
L 518.275706 92.582002 
L 524.505936 91.887212 
L 530.736165 92.394799 
L 536.966395 89.009112 
L 543.196624 88.537473 
L 549.426854 87.242235 
L 555.657084 90.126734 
L 561.887313 86.573954 
L 568.117543 84.44324 
L 574.347772 88.838061 
L 580.578002 81.700076 
L 586.808231 82.375299 
L 593.038461 81.79388 
L 599.268691 79.400708 
L 605.49892 79.47681 
L 611.72915 77.100947 
L 617.959379 80.590391 
L 624.189609 74.832283 
L 630.419838 74.059714 
L 636.650068 74.011207 
L 642.880298 73.755857 
L 649.110527 73.417867 
L 655.340757 72.868272 
L 661.570986 71.391699 
L 667.801216 70.688637 
L 674.031445 69.472124 
L 680.261675 70.311875 
L 686.491904 68.491 
L 692.722134 68.378459 
L 698.952364 66.26971 
" clip-path="url(#pe5a7d230ba)" style="fill: none; stroke: #fff5eb; stroke-opacity: 0.9; stroke-width: 1.5; stroke-linecap: square"/>
   </g>
   <g id="line2d_29">
    <path d="M 82.159636 566.975256 
L 88.389866 506.819686 
L 94.620096 574.510909 
L 100.850325 573.337865 
L 107.080555 452.121183 
L 113.310784 351.987083 
L 119.541014 267.484673 
L 125.771243 314.008411 
L 132.001473 412.404749 
L 138.231702 251.572849 
L 144.461932 210.778078 
L 150.692162 216.243949 
L 156.922391 231.146159 
L 163.152621 261.265985 
L 169.38285 327.865719 
L 175.61308 239.89168 
L 181.843309 218.469269 
L 188.073539 327.20432 
L 194.303769 210.86736 
L 200.533998 197.667564 
L 206.764228 237.253915 
L 212.994457 187.920527 
L 219.224687 218.418686 
L 225.454916 209.012627 
L 231.685146 207.732502 
L 237.915376 185.453758 
L 244.145605 181.385677 
L 250.375835 170.336148 
L 256.606064 174.384974 
L 262.836294 206.949555 
L 269.066523 190.747503 
L 275.296753 145.530993 
L 281.526983 162.353306 
L 287.757212 161.005318 
L 293.987442 145.654082 
L 300.217671 192.843186 
L 306.447901 167.594766 
L 312.67813 145.997311 
L 318.90836 137.902964 
L 325.13859 136.413623 
L 331.368819 136.494949 
L 337.599049 154.32225 
L 343.829278 135.392251 
L 350.059508 128.677228 
L 356.289737 142.657674 
L 362.519967 127.706253 
L 368.750197 134.87746 
L 374.980426 130.437232 
L 381.210656 125.997063 
L 387.440885 119.084821 
L 393.671115 120.768836 
L 399.901344 119.637314 
L 406.131574 121.660257 
L 412.361803 118.022198 
L 418.592033 121.460417 
L 424.822263 117.507694 
L 431.052492 124.053939 
L 437.282722 115.348556 
L 443.512951 124.963935 
L 449.743181 108.508435 
L 455.97341 104.944117 
L 462.20364 102.584965 
L 468.43387 116.23775 
L 474.664099 103.847455 
L 480.894329 109.142371 
L 487.124558 98.65735 
L 493.354788 97.956937 
L 499.585017 101.490198 
L 505.815247 96.70484 
L 512.045477 92.879693 
L 518.275706 92.582002 
L 524.505936 91.887212 
L 530.736165 92.394799 
L 536.966395 89.009112 
L 543.196624 88.537473 
L 549.426854 87.242235 
L 555.657084 90.126734 
L 561.887313 86.573954 
L 568.117543 84.44324 
L 574.347772 88.838061 
L 580.578002 81.700076 
L 586.808231 82.375299 
L 593.038461 81.79388 
L 599.268691 79.400708 
L 605.49892 79.47681 
L 611.72915 77.100947 
L 617.959379 80.590391 
L 624.189609 74.832283 
L 630.419838 74.059714 
L 636.650068 74.011207 
L 642.880298 73.755857 
L 649.110527 73.417867 
L 655.340757 72.868272 
L 661.570986 71.391699 
L 667.801216 70.688637 
L 674.031445 69.472124 
L 680.261675 70.311875 
L 686.491904 68.491 
L 692.722134 68.378459 
L 698.952364 66.26971 
" clip-path="url(#pe5a7d230ba)" style="fill: none; stroke: #fdd0a2; stroke-opacity: 0.9; stroke-width: 1.5; stroke-linecap: square"/>
   </g>
   <g id="line2d_30">
    <path d="M 82.159636 573.923756 
L 88.389866 574.510909 
L 94.620096 573.923756 
L 100.850325 574.510909 
L 107.080555 574.510909 
L 113.310784 572.755119 
L 119.541014 567.543816 
L 125.771243 570.429394 
L 132.001473 478.345057 
L 138.231702 549.418934 
L 144.461932 454.493151 
L 150.692162 397.027615 
L 156.922391 396.884413 
L 163.152621 292.02386 
L 169.38285 307.261331 
L 175.61308 286.97276 
L 181.843309 263.553305 
L 188.073539 275.831165 
L 194.303769 220.395138 
L 200.533998 255.482451 
L 206.764228 235.1572 
L 212.994457 230.154144 
L 219.224687 238.479778 
L 225.454916 231.86048 
L 231.685146 220.019268 
L 237.915376 216.186152 
L 244.145605 226.098503 
L 250.375835 197.098871 
L 256.606064 173.588621 
L 262.836294 202.649426 
L 269.066523 193.945888 
L 275.296753 188.340768 
L 281.526983 171.671614 
L 287.757212 170.85069 
L 293.987442 171.670957 
L 300.217671 166.207519 
L 306.447901 160.503828 
L 312.67813 155.516853 
L 318.90836 145.017598 
L 325.13859 150.791594 
L 331.368819 143.357562 
L 337.599049 163.935024 
L 343.829278 145.039764 
L 350.059508 139.647544 
L 356.289737 141.514244 
L 362.519967 138.873902 
L 368.750197 137.708302 
L 374.980426 134.609705 
L 381.210656 131.840743 
L 387.440885 130.428678 
L 393.671115 138.327883 
L 399.901344 132.92156 
L 406.131574 124.935163 
L 412.361803 127.575278 
L 418.592033 121.677419 
L 424.822263 123.511647 
L 431.052492 115.944259 
L 437.282722 117.828291 
L 443.512951 113.395893 
L 449.743181 118.481142 
L 455.97341 110.894615 
L 462.20364 114.884841 
L 468.43387 109.023203 
L 474.664099 110.45832 
L 480.894329 106.841214 
L 487.124558 108.30123 
L 493.354788 111.209646 
L 499.585017 102.149185 
L 505.815247 102.030382 
L 512.045477 101.222125 
L 518.275706 96.410334 
L 524.505936 100.310159 
L 530.736165 99.515267 
L 536.966395 98.884412 
L 543.196624 97.713907 
L 549.426854 93.408142 
L 555.657084 95.83109 
L 561.887313 91.418103 
L 568.117543 90.378876 
L 574.347772 89.52173 
L 580.578002 87.673831 
L 586.808231 86.549012 
L 593.038461 85.534383 
L 599.268691 84.301281 
L 605.49892 83.357256 
L 611.72915 82.540011 
L 617.959379 82.301514 
L 624.189609 81.774893 
L 630.419838 82.025117 
L 636.650068 80.937858 
L 642.880298 79.279963 
L 649.110527 78.606282 
L 655.340757 77.053602 
L 661.570986 76.718962 
L 667.801216 74.820964 
L 674.031445 74.710387 
L 680.261675 74.861687 
L 686.491904 72.378311 
L 692.722134 72.998677 
L 698.952364 71.870763 
" clip-path="url(#pe5a7d230ba)" style="fill: none; stroke: #fd8d3c; stroke-opacity: 0.9; stroke-width: 1.5; stroke-linecap: square"/>
   </g>
   <g id="line2d_31">
    <path d="M 82.159636 573.923756 
L 88.389866 574.510909 
L 94.620096 573.923756 
L 100.850325 574.510909 
L 107.080555 574.510909 
L 113.310784 572.755119 
L 119.541014 567.543816 
L 125.771243 570.429394 
L 132.001473 478.345057 
L 138.231702 549.418934 
L 144.461932 454.493151 
L 150.692162 397.027615 
L 156.922391 396.884413 
L 163.152621 292.02386 
L 169.38285 307.261331 
L 175.61308 286.97276 
L 181.843309 263.553305 
L 188.073539 275.831165 
L 194.303769 220.395138 
L 200.533998 255.482451 
L 206.764228 235.1572 
L 212.994457 230.154144 
L 219.224687 238.479778 
L 225.454916 231.86048 
L 231.685146 220.019268 
L 237.915376 216.186152 
L 244.145605 226.098503 
L 250.375835 197.098871 
L 256.606064 173.588621 
L 262.836294 202.649426 
L 269.066523 193.945888 
L 275.296753 188.340768 
L 281.526983 171.671614 
L 287.757212 170.85069 
L 293.987442 171.670957 
L 300.217671 166.207519 
L 306.447901 160.503828 
L 312.67813 155.516853 
L 318.90836 145.017598 
L 325.13859 150.791594 
L 331.368819 143.357562 
L 337.599049 163.935024 
L 343.829278 145.039764 
L 350.059508 139.647544 
L 356.289737 141.514244 
L 362.519967 138.873902 
L 368.750197 137.708302 
L 374.980426 134.609705 
L 381.210656 131.840743 
L 387.440885 130.428678 
L 393.671115 138.327883 
L 399.901344 132.92156 
L 406.131574 124.935163 
L 412.361803 127.575278 
L 418.592033 121.677419 
L 424.822263 123.511647 
L 431.052492 115.944259 
L 437.282722 117.828291 
L 443.512951 113.395893 
L 449.743181 118.481142 
L 455.97341 110.894615 
L 462.20364 114.884841 
L 468.43387 109.023203 
L 474.664099 110.45832 
L 480.894329 106.841214 
L 487.124558 108.30123 
L 493.354788 111.209646 
L 499.585017 102.149185 
L 505.815247 102.030382 
L 512.045477 101.222125 
L 518.275706 96.410334 
L 524.505936 100.310159 
L 530.736165 99.515267 
L 536.966395 98.884412 
L 543.196624 97.713907 
L 549.426854 93.408142 
L 555.657084 95.83109 
L 561.887313 91.418103 
L 568.117543 90.378876 
L 574.347772 89.52173 
L 580.578002 87.673831 
L 586.808231 86.549012 
L 593.038461 85.534383 
L 599.268691 84.301281 
L 605.49892 83.357256 
L 611.72915 82.540011 
L 617.959379 82.301514 
L 624.189609 81.774893 
L 630.419838 82.025117 
L 636.650068 80.937858 
L 642.880298 79.279963 
L 649.110527 78.606282 
L 655.340757 77.053602 
L 661.570986 76.718962 
L 667.801216 74.820964 
L 674.031445 74.710387 
L 680.261675 74.861687 
L 686.491904 72.378311 
L 692.722134 72.998677 
L 698.952364 71.870763 
" clip-path="url(#pe5a7d230ba)" style="fill: none; stroke: #d94801; stroke-opacity: 0.9; stroke-width: 1.5; stroke-linecap: square"/>
   </g>
   <g id="line2d_32">
    <path d="M 82.159636 574.510909 
L 88.389866 574.510909 
L 94.620096 574.510909 
L 100.850325 574.510909 
L 107.080555 574.510909 
L 113.310784 574.510909 
L 119.541014 574.510909 
L 125.771243 574.510909 
L 132.001473 573.923756 
L 138.231702 574.510909 
L 144.461932 573.923756 
L 150.692162 573.337234 
L 156.922391 573.923756 
L 163.152621 572.172365 
L 169.38285 572.173618 
L 175.61308 546.18976 
L 181.843309 547.25184 
L 188.073539 557.249348 
L 194.303769 358.597552 
L 200.533998 494.595144 
L 206.764228 457.350199 
L 212.994457 426.71378 
L 219.224687 414.624737 
L 225.454916 399.657913 
L 231.685146 376.785464 
L 237.915376 378.005008 
L 244.145605 381.093358 
L 250.375835 346.777494 
L 256.606064 291.445988 
L 262.836294 358.116863 
L 269.066523 324.698725 
L 275.296753 316.405598 
L 281.526983 286.148868 
L 287.757212 274.942723 
L 293.987442 287.299482 
L 300.217671 283.569965 
L 306.447901 256.094842 
L 312.67813 267.899589 
L 318.90836 233.724298 
L 325.13859 240.747781 
L 331.368819 233.529709 
L 337.599049 266.949163 
L 343.829278 244.441889 
L 350.059508 226.422454 
L 356.289737 235.173498 
L 362.519967 215.79812 
L 368.750197 227.013695 
L 374.980426 214.147504 
L 381.210656 218.316723 
L 387.440885 204.018666 
L 393.671115 221.140436 
L 399.901344 212.810144 
L 406.131574 197.03191 
L 412.361803 206.012758 
L 418.592033 191.202239 
L 424.822263 193.179562 
L 431.052492 187.758502 
L 437.282722 190.172198 
L 443.512951 187.364365 
L 449.743181 190.138134 
L 455.97341 171.526998 
L 462.20364 184.312168 
L 468.43387 182.386641 
L 474.664099 184.120836 
L 480.894329 172.906315 
L 487.124558 178.22025 
L 493.354788 185.512397 
L 499.585017 170.403827 
L 505.815247 166.589518 
L 512.045477 166.120926 
L 518.275706 157.59668 
L 524.505936 165.928606 
L 530.736165 161.997852 
L 536.966395 161.657989 
L 543.196624 160.425799 
L 549.426854 156.148855 
L 555.657084 158.903162 
L 561.887313 153.064241 
L 568.117543 154.321413 
L 574.347772 148.499444 
L 580.578002 151.363933 
L 586.808231 148.241 
L 593.038461 148.510826 
L 599.268691 145.493238 
L 605.49892 145.60064 
L 611.72915 146.030885 
L 617.959379 144.384908 
L 624.189609 144.043972 
L 630.419838 142.716414 
L 636.650068 142.179134 
L 642.880298 140.176042 
L 649.110527 138.689934 
L 655.340757 136.320432 
L 661.570986 135.305064 
L 667.801216 135.936603 
L 674.031445 135.380679 
L 680.261675 136.958594 
L 686.491904 131.320333 
L 692.722134 133.535567 
L 698.952364 131.721411 
" clip-path="url(#pe5a7d230ba)" style="fill: none; stroke: #7f2704; stroke-opacity: 0.9; stroke-width: 1.5; stroke-linecap: square"/>
   </g>
   <g id="patch_3">
    <path d="M 51.32 600.28 
L 51.32 33.36 
" style="fill: none; stroke: #000000; stroke-width: 0.8; stroke-linejoin: miter; stroke-linecap: square"/>
   </g>
   <g id="patch_4">
    <path d="M 729.792 600.28 
L 729.792 33.36 
" style="fill: none; stroke: #000000; stroke-width: 0.8; stroke-linejoin: miter; stroke-linecap: square"/>
   </g>
   <g id="patch_5">
    <path d="M 51.32 600.28 
L 729.792 600.28 
" style="fill: none; stroke: #000000; stroke-width: 0.8; stroke-linejoin: miter; stroke-linecap: square"/>
   </g>
   <g id="patch_6">
    <path d="M 51.32 33.36 
L 729.792 33.36 
" style="fill: none; stroke: #000000; stroke-width: 0.8; stroke-linejoin: miter; stroke-linecap: square"/>
   </g>
   <g id="text_14">
    <!-- Curvas de Aprendizaje Comparativas (F1-score vs. Época) - Xavier vs Normal -->
    <g transform="translate(43.651 27.36) scale(0.18 -0.18)">
     <defs>
      <path id="DejaVuSans-43" d="M 4122 4306 
L 4122 3641 
Q 3803 3938 3442 4084 
Q 3081 4231 2675 4231 
Q 1875 4231 1450 3742 
Q 1025 3253 1025 2328 
Q 1025 1406 1450 917 
Q 1875 428 2675 428 
Q 3081 428 3442 575 
Q 3803 722 4122 1019 
L 4122 359 
Q 3791 134 3420 21 
Q 3050 -91 2638 -91 
Q 1578 -91 968 557 
Q 359 1206 359 2328 
Q 359 3453 968 4101 
Q 1578 4750 2638 4750 
Q 3056 4750 3426 4639 
Q 3797 4528 4122 4306 
z
" transform="scale(0.015625)"/>
      <path id="DejaVuSans-75" d="M 544 1381 
L 544 3500 
L 1119 3500 
L 1119 1403 
Q 1119 906 1312 657 
Q 1506 409 1894 409 
Q 2359 409 2629 706 
Q 2900 1003 2900 1516 
L 2900 3500 
L 3475 3500 
L 3475 0 
L 2900 0 
L 2900 538 
Q 2691 219 2414 64 
Q 2138 -91 1772 -91 
Q 1169 -91 856 284 
Q 544 659 544 1381 
z
M 1991 3584 
L 1991 3584 
z
" transform="scale(0.015625)"/>
      <path id="DejaVuSans-76" d="M 191 3500 
L 800 3500 
L 1894 563 
L 2988 3500 
L 3597 3500 
L 2284 0 
L 1503 0 
L 191 3500 
z
" transform="scale(0.015625)"/>
      <path id="DejaVuSans-41" d="M 2188 4044 
L 1331 1722 
L 3047 1722 
L 2188 4044 
z
M 1831 4666 
L 2547 4666 
L 4325 0 
L 3669 0 
L 3244 1197 
L 1141 1197 
L 716 0 
L 50 0 
L 1831 4666 
z
" transform="scale(0.015625)"/>
      <path id="DejaVuSans-7a" d="M 353 3500 
L 3084 3500 
L 3084 2975 
L 922 459 
L 3084 459 
L 3084 0 
L 275 0 
L 275 525 
L 2438 3041 
L 353 3041 
L 353 3500 
z
" transform="scale(0.015625)"/>
      <path id="DejaVuSans-6a" d="M 603 3500 
L 1178 3500 
L 1178 -63 
Q 1178 -731 923 -1031 
Q 669 -1331 103 -1331 
L -116 -1331 
L -116 -844 
L 38 -844 
Q 366 -844 484 -692 
Q 603 -541 603 -63 
L 603 3500 
z
M 603 4863 
L 1178 4863 
L 1178 4134 
L 603 4134 
L 603 4863 
z
" transform="scale(0.015625)"/>
      <path id="DejaVuSans-58" d="M 403 4666 
L 1081 4666 
L 2241 2931 
L 3406 4666 
L 4084 4666 
L 2584 2425 
L 4184 0 
L 3506 0 
L 2194 1984 
L 872 0 
L 191 0 
L 1856 2491 
L 403 4666 
z
" transform="scale(0.015625)"/>
      <path id="DejaVuSans-4e" d="M 628 4666 
L 1478 4666 
L 3547 763 
L 3547 4666 
L 4159 4666 
L 4159 0 
L 3309 0 
L 1241 3903 
L 1241 0 
L 628 0 
L 628 4666 
z
" transform="scale(0.015625)"/>
     </defs>
     <use xlink:href="#DejaVuSans-43"/>
     <use xlink:href="#DejaVuSans-75" transform="translate(69.824219 0)"/>
     <use xlink:href="#DejaVuSans-72" transform="translate(133.203125 0)"/>
     <use xlink:href="#DejaVuSans-76" transform="translate(174.316406 0)"/>
     <use xlink:href="#DejaVuSans-61" transform="translate(233.496094 0)"/>
     <use xlink:href="#DejaVuSans-73" transform="translate(294.775391 0)"/>
     <use xlink:href="#DejaVuSans-20" transform="translate(346.875 0)"/>
     <use xlink:href="#DejaVuSans-64" transform="translate(378.662109 0)"/>
     <use xlink:href="#DejaVuSans-65" transform="translate(442.138672 0)"/>
     <use xlink:href="#DejaVuSans-20" transform="translate(503.662109 0)"/>
     <use xlink:href="#DejaVuSans-41" transform="translate(535.449219 0)"/>
     <use xlink:href="#DejaVuSans-70" transform="translate(603.857422 0)"/>
     <use xlink:href="#DejaVuSans-72" transform="translate(667.333984 0)"/>
     <use xlink:href="#DejaVuSans-65" transform="translate(706.197266 0)"/>
     <use xlink:href="#DejaVuSans-6e" transform="translate(767.720703 0)"/>
     <use xlink:href="#DejaVuSans-64" transform="translate(831.099609 0)"/>
     <use xlink:href="#DejaVuSans-69" transform="translate(894.576172 0)"/>
     <use xlink:href="#DejaVuSans-7a" transform="translate(922.359375 0)"/>
     <use xlink:href="#DejaVuSans-61" transform="translate(974.849609 0)"/>
     <use xlink:href="#DejaVuSans-6a" transform="translate(1036.128906 0)"/>
     <use xlink:href="#DejaVuSans-65" transform="translate(1063.912109 0)"/>
     <use xlink:href="#DejaVuSans-20" transform="translate(1125.435547 0)"/>
     <use xlink:href="#DejaVuSans-43" transform="translate(1157.222656 0)"/>
     <use xlink:href="#DejaVuSans-6f" transform="translate(1227.046875 0)"/>
     <use xlink:href="#DejaVuSans-6d" transform="translate(1288.228516 0)"/>
     <use xlink:href="#DejaVuSans-70" transform="translate(1385.640625 0)"/>
     <use xlink:href="#DejaVuSans-61" transform="translate(1449.117188 0)"/>
     <use xlink:href="#DejaVuSans-72" transform="translate(1510.396484 0)"/>
     <use xlink:href="#DejaVuSans-61" transform="translate(1551.509766 0)"/>
     <use xlink:href="#DejaVuSans-74" transform="translate(1612.789062 0)"/>
     <use xlink:href="#DejaVuSans-69" transform="translate(1651.998047 0)"/>
     <use xlink:href="#DejaVuSans-76" transform="translate(1679.78125 0)"/>
     <use xlink:href="#DejaVuSans-61" transform="translate(1738.960938 0)"/>
     <use xlink:href="#DejaVuSans-73" transform="translate(1800.240234 0)"/>
     <use xlink:href="#DejaVuSans-20" transform="translate(1852.339844 0)"/>
     <use xlink:href="#DejaVuSans-28" transform="translate(1884.126953 0)"/>
     <use xlink:href="#DejaVuSans-46" transform="translate(1923.140625 0)"/>
     <use xlink:href="#DejaVuSans-31" transform="translate(1980.660156 0)"/>
     <use xlink:href="#DejaVuSans-2d" transform="translate(2044.283203 0)"/>
     <use xlink:href="#DejaVuSans-73" transform="translate(2080.367188 0)"/>
     <use xlink:href="#DejaVuSans-63" transform="translate(2132.466797 0)"/>
     <use xlink:href="#DejaVuSans-6f" transform="translate(2187.447266 0)"/>
     <use xlink:href="#DejaVuSans-72" transform="translate(2248.628906 0)"/>
     <use xlink:href="#DejaVuSans-65" transform="translate(2287.492188 0)"/>
     <use xlink:href="#DejaVuSans-20" transform="translate(2349.015625 0)"/>
     <use xlink:href="#DejaVuSans-76" transform="translate(2380.802734 0)"/>
     <use xlink:href="#DejaVuSans-73" transform="translate(2439.982422 0)"/>
     <use xlink:href="#DejaVuSans-2e" transform="translate(2492.082031 0)"/>
     <use xlink:href="#DejaVuSans-20" transform="translate(2523.869141 0)"/>
     <use xlink:href="#DejaVuSans-c9" transform="translate(2555.65625 0)"/>
     <use xlink:href="#DejaVuSans-70" transform="translate(2618.839844 0)"/>
     <use xlink:href="#DejaVuSans-6f" transform="translate(2682.316406 0)"/>
     <use xlink:href="#DejaVuSans-63" transform="translate(2743.498047 0)"/>
     <use xlink:href="#DejaVuSans-61" transform="translate(2798.478516 0)"/>
     <use xlink:href="#DejaVuSans-29" transform="translate(2859.757812 0)"/>
     <use xlink:href="#DejaVuSans-20" transform="translate(2898.771484 0)"/>
     <use xlink:href="#DejaVuSans-2d" transform="translate(2930.558594 0)"/>
     <use xlink:href="#DejaVuSans-20" transform="translate(2966.642578 0)"/>
     <use xlink:href="#DejaVuSans-58" transform="translate(2998.429688 0)"/>
     <use xlink:href="#DejaVuSans-61" transform="translate(3066.935547 0)"/>
     <use xlink:href="#DejaVuSans-76" transform="translate(3128.214844 0)"/>
     <use xlink:href="#DejaVuSans-69" transform="translate(3187.394531 0)"/>
     <use xlink:href="#DejaVuSans-65" transform="translate(3215.177734 0)"/>
     <use xlink:href="#DejaVuSans-72" transform="translate(3276.701172 0)"/>
     <use xlink:href="#DejaVuSans-20" transform="translate(3317.814453 0)"/>
     <use xlink:href="#DejaVuSans-76" transform="translate(3349.601562 0)"/>
     <use xlink:href="#DejaVuSans-73" transform="translate(3408.78125 0)"/>
     <use xlink:href="#DejaVuSans-20" transform="translate(3460.880859 0)"/>
     <use xlink:href="#DejaVuSans-4e" transform="translate(3492.667969 0)"/>
     <use xlink:href="#DejaVuSans-6f" transform="translate(3567.472656 0)"/>
     <use xlink:href="#DejaVuSans-72" transform="translate(3628.654297 0)"/>
     <use xlink:href="#DejaVuSans-6d" transform="translate(3668.017578 0)"/>
     <use xlink:href="#DejaVuSans-61" transform="translate(3765.429688 0)"/>
     <use xlink:href="#DejaVuSans-6c" transform="translate(3826.708984 0)"/>
    </g>
   </g>
   <g id="legend_1">
    <g id="patch_7">
     <path d="M 742.87672 416.705703 
L 906.820157 416.705703 
Q 908.620157 416.705703 908.620157 414.905703 
L 908.620157 218.734297 
Q 908.620157 216.934297 906.820157 216.934297 
L 742.87672 216.934297 
Q 741.07672 216.934297 741.07672 218.734297 
L 741.07672 414.905703 
Q 741.07672 416.705703 742.87672 416.705703 
z
" style="fill: #ffffff; opacity: 0.8; stroke: #cccccc; stroke-linejoin: miter"/>
    </g>
    <g id="text_15">
     <!-- Configuración -->
     <g transform="translate(790.150782 228.532734) scale(0.1 -0.1)">
      <defs>
       <path id="DejaVuSans-66" d="M 2375 4863 
L 2375 4384 
L 1825 4384 
Q 1516 4384 1395 4259 
Q 1275 4134 1275 3809 
L 1275 3500 
L 2222 3500 
L 2222 3053 
L 1275 3053 
L 1275 0 
L 697 0 
L 697 3053 
L 147 3053 
L 147 3500 
L 697 3500 
L 697 3744 
Q 697 4328 969 4595 
Q 1241 4863 1831 4863 
L 2375 4863 
z
" transform="scale(0.015625)"/>
       <path id="DejaVuSans-67" d="M 2906 1791 
Q 2906 2416 2648 2759 
Q 2391 3103 1925 3103 
Q 1463 3103 1205 2759 
Q 947 2416 947 1791 
Q 947 1169 1205 825 
Q 1463 481 1925 481 
Q 2391 481 2648 825 
Q 2906 1169 2906 1791 
z
M 3481 434 
Q 3481 -459 3084 -895 
Q 2688 -1331 1869 -1331 
Q 1566 -1331 1297 -1286 
Q 1028 -1241 775 -1147 
L 775 -588 
Q 1028 -725 1275 -790 
Q 1522 -856 1778 -856 
Q 2344 -856 2625 -561 
Q 2906 -266 2906 331 
L 2906 616 
Q 2728 306 2450 153 
Q 2172 0 1784 0 
Q 1141 0 747 490 
Q 353 981 353 1791 
Q 353 2603 747 3093 
Q 1141 3584 1784 3584 
Q 2172 3584 2450 3431 
Q 2728 3278 2906 2969 
L 2906 3500 
L 3481 3500 
L 3481 434 
z
" transform="scale(0.015625)"/>
      </defs>
      <use xlink:href="#DejaVuSans-43"/>
      <use xlink:href="#DejaVuSans-6f" transform="translate(69.824219 0)"/>
      <use xlink:href="#DejaVuSans-6e" transform="translate(131.005859 0)"/>
      <use xlink:href="#DejaVuSans-66" transform="translate(194.384766 0)"/>
      <use xlink:href="#DejaVuSans-69" transform="translate(229.589844 0)"/>
      <use xlink:href="#DejaVuSans-67" transform="translate(257.373047 0)"/>
      <use xlink:href="#DejaVuSans-75" transform="translate(320.849609 0)"/>
      <use xlink:href="#DejaVuSans-72" transform="translate(384.228516 0)"/>
      <use xlink:href="#DejaVuSans-61" transform="translate(425.341797 0)"/>
      <use xlink:href="#DejaVuSans-63" transform="translate(486.621094 0)"/>
      <use xlink:href="#DejaVuSans-69" transform="translate(541.601562 0)"/>
      <use xlink:href="#DejaVuSans-f3" transform="translate(569.384766 0)"/>
      <use xlink:href="#DejaVuSans-6e" transform="translate(630.566406 0)"/>
     </g>
    </g>
    <g id="line2d_33">
     <path d="M 744.67672 244.775891 
L 753.67672 244.775891 
L 762.67672 244.775891 
" style="fill: none; stroke: #f7fbff; stroke-opacity: 0.8; stroke-linecap: square"/>
    </g>
    <g id="text_16">
     <!-- ID 61 (XAVIER, F1 Test: 0.729) -->
     <g transform="translate(769.87672 241.951016) scale(0.09 -0.09)">
      <defs>
       <path id="DejaVuSans-49" d="M 628 4666 
L 1259 4666 
L 1259 0 
L 628 0 
L 628 4666 
z
" transform="scale(0.015625)"/>
       <path id="DejaVuSans-44" d="M 1259 4147 
L 1259 519 
L 2022 519 
Q 2988 519 3436 956 
Q 3884 1394 3884 2338 
Q 3884 3275 3436 3711 
Q 2988 4147 2022 4147 
L 1259 4147 
z
M 628 4666 
L 1925 4666 
Q 3281 4666 3915 4102 
Q 4550 3538 4550 2338 
Q 4550 1131 3912 565 
Q 3275 0 1925 0 
L 628 0 
L 628 4666 
z
" transform="scale(0.015625)"/>
       <path id="DejaVuSans-52" d="M 2841 2188 
Q 3044 2119 3236 1894 
Q 3428 1669 3622 1275 
L 4263 0 
L 3584 0 
L 2988 1197 
Q 2756 1666 2539 1819 
Q 2322 1972 1947 1972 
L 1259 1972 
L 1259 0 
L 628 0 
L 628 4666 
L 2053 4666 
Q 2853 4666 3247 4331 
Q 3641 3997 3641 3322 
Q 3641 2881 3436 2590 
Q 3231 2300 2841 2188 
z
M 1259 4147 
L 1259 2491 
L 2053 2491 
Q 2509 2491 2742 2702 
Q 2975 2913 2975 3322 
Q 2975 3731 2742 3939 
Q 2509 4147 2053 4147 
L 1259 4147 
z
" transform="scale(0.015625)"/>
       <path id="DejaVuSans-2c" d="M 750 794 
L 1409 794 
L 1409 256 
L 897 -744 
L 494 -744 
L 750 256 
L 750 794 
z
" transform="scale(0.015625)"/>
       <path id="DejaVuSans-54" d="M -19 4666 
L 3928 4666 
L 3928 4134 
L 2272 4134 
L 2272 0 
L 1638 0 
L 1638 4134 
L -19 4134 
L -19 4666 
z
" transform="scale(0.015625)"/>
       <path id="DejaVuSans-3a" d="M 750 794 
L 1409 794 
L 1409 0 
L 750 0 
L 750 794 
z
M 750 3309 
L 1409 3309 
L 1409 2516 
L 750 2516 
L 750 3309 
z
" transform="scale(0.015625)"/>
       <path id="DejaVuSans-37" d="M 525 4666 
L 3525 4666 
L 3525 4397 
L 1831 0 
L 1172 0 
L 2766 4134 
L 525 4134 
L 525 4666 
z
" transform="scale(0.015625)"/>
       <path id="DejaVuSans-39" d="M 703 97 
L 703 672 
Q 941 559 1184 500 
Q 1428 441 1663 441 
Q 2288 441 2617 861 
Q 2947 1281 2994 2138 
Q 2813 1869 2534 1725 
Q 2256 1581 1919 1581 
Q 1219 1581 811 2004 
Q 403 2428 403 3163 
Q 403 3881 828 4315 
Q 1253 4750 1959 4750 
Q 2769 4750 3195 4129 
Q 3622 3509 3622 2328 
Q 3622 1225 3098 567 
Q 2575 -91 1691 -91 
Q 1453 -91 1209 -44 
Q 966 3 703 97 
z
M 1959 2075 
Q 2384 2075 2632 2365 
Q 2881 2656 2881 3163 
Q 2881 3666 2632 3958 
Q 2384 4250 1959 4250 
Q 1534 4250 1286 3958 
Q 1038 3666 1038 3163 
Q 1038 2656 1286 2365 
Q 1534 2075 1959 2075 
z
" transform="scale(0.015625)"/>
      </defs>
      <use xlink:href="#DejaVuSans-49"/>
      <use xlink:href="#DejaVuSans-44" transform="translate(29.492188 0)"/>
      <use xlink:href="#DejaVuSans-20" transform="translate(106.494141 0)"/>
      <use xlink:href="#DejaVuSans-36" transform="translate(138.28125 0)"/>
      <use xlink:href="#DejaVuSans-31" transform="translate(201.904297 0)"/>
      <use xlink:href="#DejaVuSans-20" transform="translate(265.527344 0)"/>
      <use xlink:href="#DejaVuSans-28" transform="translate(297.314453 0)"/>
      <use xlink:href="#DejaVuSans-58" transform="translate(336.328125 0)"/>
      <use xlink:href="#DejaVuSans-41" transform="translate(404.833984 0)"/>
      <use xlink:href="#DejaVuSans-56" transform="translate(466.867188 0)"/>
      <use xlink:href="#DejaVuSans-49" transform="translate(535.275391 0)"/>
      <use xlink:href="#DejaVuSans-45" transform="translate(564.767578 0)"/>
      <use xlink:href="#DejaVuSans-52" transform="translate(627.951172 0)"/>
      <use xlink:href="#DejaVuSans-2c" transform="translate(697.433594 0)"/>
      <use xlink:href="#DejaVuSans-20" transform="translate(729.220703 0)"/>
      <use xlink:href="#DejaVuSans-46" transform="translate(761.007812 0)"/>
      <use xlink:href="#DejaVuSans-31" transform="translate(818.527344 0)"/>
      <use xlink:href="#DejaVuSans-20" transform="translate(882.150391 0)"/>
      <use xlink:href="#DejaVuSans-54" transform="translate(913.9375 0)"/>
      <use xlink:href="#DejaVuSans-65" transform="translate(958.021484 0)"/>
      <use xlink:href="#DejaVuSans-73" transform="translate(1019.544922 0)"/>
      <use xlink:href="#DejaVuSans-74" transform="translate(1071.644531 0)"/>
      <use xlink:href="#DejaVuSans-3a" transform="translate(1110.853516 0)"/>
      <use xlink:href="#DejaVuSans-20" transform="translate(1144.544922 0)"/>
      <use xlink:href="#DejaVuSans-30" transform="translate(1176.332031 0)"/>
      <use xlink:href="#DejaVuSans-2e" transform="translate(1239.955078 0)"/>
      <use xlink:href="#DejaVuSans-37" transform="translate(1271.742188 0)"/>
      <use xlink:href="#DejaVuSans-32" transform="translate(1335.365234 0)"/>
      <use xlink:href="#DejaVuSans-39" transform="translate(1398.988281 0)"/>
      <use xlink:href="#DejaVuSans-29" transform="translate(1462.611328 0)"/>
     </g>
     <!--  -->
     <g transform="translate(769.87672 252.029047) scale(0.09 -0.09)"/>
    </g>
    <g id="line2d_34">
     <path d="M 744.67672 268.064234 
L 753.67672 268.064234 
L 762.67672 268.064234 
" style="fill: none; stroke: #c6dbef; stroke-opacity: 0.8; stroke-linecap: square"/>
    </g>
    <g id="text_17">
     <!-- ID 62 (XAVIER, F1 Test: 0.729) -->
     <g transform="translate(769.87672 265.239359) scale(0.09 -0.09)">
      <use xlink:href="#DejaVuSans-49"/>
      <use xlink:href="#DejaVuSans-44" transform="translate(29.492188 0)"/>
      <use xlink:href="#DejaVuSans-20" transform="translate(106.494141 0)"/>
      <use xlink:href="#DejaVuSans-36" transform="translate(138.28125 0)"/>
      <use xlink:href="#DejaVuSans-32" transform="translate(201.904297 0)"/>
      <use xlink:href="#DejaVuSans-20" transform="translate(265.527344 0)"/>
      <use xlink:href="#DejaVuSans-28" transform="translate(297.314453 0)"/>
      <use xlink:href="#DejaVuSans-58" transform="translate(336.328125 0)"/>
      <use xlink:href="#DejaVuSans-41" transform="translate(404.833984 0)"/>
      <use xlink:href="#DejaVuSans-56" transform="translate(466.867188 0)"/>
      <use xlink:href="#DejaVuSans-49" transform="translate(535.275391 0)"/>
      <use xlink:href="#DejaVuSans-45" transform="translate(564.767578 0)"/>
      <use xlink:href="#DejaVuSans-52" transform="translate(627.951172 0)"/>
      <use xlink:href="#DejaVuSans-2c" transform="translate(697.433594 0)"/>
      <use xlink:href="#DejaVuSans-20" transform="translate(729.220703 0)"/>
      <use xlink:href="#DejaVuSans-46" transform="translate(761.007812 0)"/>
      <use xlink:href="#DejaVuSans-31" transform="translate(818.527344 0)"/>
      <use xlink:href="#DejaVuSans-20" transform="translate(882.150391 0)"/>
      <use xlink:href="#DejaVuSans-54" transform="translate(913.9375 0)"/>
      <use xlink:href="#DejaVuSans-65" transform="translate(958.021484 0)"/>
      <use xlink:href="#DejaVuSans-73" transform="translate(1019.544922 0)"/>
      <use xlink:href="#DejaVuSans-74" transform="translate(1071.644531 0)"/>
      <use xlink:href="#DejaVuSans-3a" transform="translate(1110.853516 0)"/>
      <use xlink:href="#DejaVuSans-20" transform="translate(1144.544922 0)"/>
      <use xlink:href="#DejaVuSans-30" transform="translate(1176.332031 0)"/>
      <use xlink:href="#DejaVuSans-2e" transform="translate(1239.955078 0)"/>
      <use xlink:href="#DejaVuSans-37" transform="translate(1271.742188 0)"/>
      <use xlink:href="#DejaVuSans-32" transform="translate(1335.365234 0)"/>
      <use xlink:href="#DejaVuSans-39" transform="translate(1398.988281 0)"/>
      <use xlink:href="#DejaVuSans-29" transform="translate(1462.611328 0)"/>
     </g>
     <!--  -->
     <g transform="translate(769.87672 275.317391) scale(0.09 -0.09)"/>
    </g>
    <g id="line2d_35">
     <path d="M 744.67672 291.352578 
L 753.67672 291.352578 
L 762.67672 291.352578 
" style="fill: none; stroke: #6baed6; stroke-opacity: 0.8; stroke-linecap: square"/>
    </g>
    <g id="text_18">
     <!-- ID 65 (XAVIER, F1 Test: 0.723) -->
     <g transform="translate(769.87672 288.527703) scale(0.09 -0.09)">
      <defs>
       <path id="DejaVuSans-35" d="M 691 4666 
L 3169 4666 
L 3169 4134 
L 1269 4134 
L 1269 2991 
Q 1406 3038 1543 3061 
Q 1681 3084 1819 3084 
Q 2600 3084 3056 2656 
Q 3513 2228 3513 1497 
Q 3513 744 3044 326 
Q 2575 -91 1722 -91 
Q 1428 -91 1123 -41 
Q 819 9 494 109 
L 494 744 
Q 775 591 1075 516 
Q 1375 441 1709 441 
Q 2250 441 2565 725 
Q 2881 1009 2881 1497 
Q 2881 1984 2565 2268 
Q 2250 2553 1709 2553 
Q 1456 2553 1204 2497 
Q 953 2441 691 2322 
L 691 4666 
z
" transform="scale(0.015625)"/>
       <path id="DejaVuSans-33" d="M 2597 2516 
Q 3050 2419 3304 2112 
Q 3559 1806 3559 1356 
Q 3559 666 3084 287 
Q 2609 -91 1734 -91 
Q 1441 -91 1130 -33 
Q 819 25 488 141 
L 488 750 
Q 750 597 1062 519 
Q 1375 441 1716 441 
Q 2309 441 2620 675 
Q 2931 909 2931 1356 
Q 2931 1769 2642 2001 
Q 2353 2234 1838 2234 
L 1294 2234 
L 1294 2753 
L 1863 2753 
Q 2328 2753 2575 2939 
Q 2822 3125 2822 3475 
Q 2822 3834 2567 4026 
Q 2313 4219 1838 4219 
Q 1578 4219 1281 4162 
Q 984 4106 628 3988 
L 628 4550 
Q 988 4650 1302 4700 
Q 1616 4750 1894 4750 
Q 2613 4750 3031 4423 
Q 3450 4097 3450 3541 
Q 3450 3153 3228 2886 
Q 3006 2619 2597 2516 
z
" transform="scale(0.015625)"/>
      </defs>
      <use xlink:href="#DejaVuSans-49"/>
      <use xlink:href="#DejaVuSans-44" transform="translate(29.492188 0)"/>
      <use xlink:href="#DejaVuSans-20" transform="translate(106.494141 0)"/>
      <use xlink:href="#DejaVuSans-36" transform="translate(138.28125 0)"/>
      <use xlink:href="#DejaVuSans-35" transform="translate(201.904297 0)"/>
      <use xlink:href="#DejaVuSans-20" transform="translate(265.527344 0)"/>
      <use xlink:href="#DejaVuSans-28" transform="translate(297.314453 0)"/>
      <use xlink:href="#DejaVuSans-58" transform="translate(336.328125 0)"/>
      <use xlink:href="#DejaVuSans-41" transform="translate(404.833984 0)"/>
      <use xlink:href="#DejaVuSans-56" transform="translate(466.867188 0)"/>
      <use xlink:href="#DejaVuSans-49" transform="translate(535.275391 0)"/>
      <use xlink:href="#DejaVuSans-45" transform="translate(564.767578 0)"/>
      <use xlink:href="#DejaVuSans-52" transform="translate(627.951172 0)"/>
      <use xlink:href="#DejaVuSans-2c" transform="translate(697.433594 0)"/>
      <use xlink:href="#DejaVuSans-20" transform="translate(729.220703 0)"/>
      <use xlink:href="#DejaVuSans-46" transform="translate(761.007812 0)"/>
      <use xlink:href="#DejaVuSans-31" transform="translate(818.527344 0)"/>
      <use xlink:href="#DejaVuSans-20" transform="translate(882.150391 0)"/>
      <use xlink:href="#DejaVuSans-54" transform="translate(913.9375 0)"/>
      <use xlink:href="#DejaVuSans-65" transform="translate(958.021484 0)"/>
      <use xlink:href="#DejaVuSans-73" transform="translate(1019.544922 0)"/>
      <use xlink:href="#DejaVuSans-74" transform="translate(1071.644531 0)"/>
      <use xlink:href="#DejaVuSans-3a" transform="translate(1110.853516 0)"/>
      <use xlink:href="#DejaVuSans-20" transform="translate(1144.544922 0)"/>
      <use xlink:href="#DejaVuSans-30" transform="translate(1176.332031 0)"/>
      <use xlink:href="#DejaVuSans-2e" transform="translate(1239.955078 0)"/>
      <use xlink:href="#DejaVuSans-37" transform="translate(1271.742188 0)"/>
      <use xlink:href="#DejaVuSans-32" transform="translate(1335.365234 0)"/>
      <use xlink:href="#DejaVuSans-33" transform="translate(1398.988281 0)"/>
      <use xlink:href="#DejaVuSans-29" transform="translate(1462.611328 0)"/>
     </g>
     <!--  -->
     <g transform="translate(769.87672 298.605734) scale(0.09 -0.09)"/>
    </g>
    <g id="line2d_36">
     <path d="M 744.67672 314.640922 
L 753.67672 314.640922 
L 762.67672 314.640922 
" style="fill: none; stroke: #2171b5; stroke-opacity: 0.8; stroke-linecap: square"/>
    </g>
    <g id="text_19">
     <!-- ID 66 (XAVIER, F1 Test: 0.723) -->
     <g transform="translate(769.87672 311.816047) scale(0.09 -0.09)">
      <use xlink:href="#DejaVuSans-49"/>
      <use xlink:href="#DejaVuSans-44" transform="translate(29.492188 0)"/>
      <use xlink:href="#DejaVuSans-20" transform="translate(106.494141 0)"/>
      <use xlink:href="#DejaVuSans-36" transform="translate(138.28125 0)"/>
      <use xlink:href="#DejaVuSans-36" transform="translate(201.904297 0)"/>
      <use xlink:href="#DejaVuSans-20" transform="translate(265.527344 0)"/>
      <use xlink:href="#DejaVuSans-28" transform="translate(297.314453 0)"/>
      <use xlink:href="#DejaVuSans-58" transform="translate(336.328125 0)"/>
      <use xlink:href="#DejaVuSans-41" transform="translate(404.833984 0)"/>
      <use xlink:href="#DejaVuSans-56" transform="translate(466.867188 0)"/>
      <use xlink:href="#DejaVuSans-49" transform="translate(535.275391 0)"/>
      <use xlink:href="#DejaVuSans-45" transform="translate(564.767578 0)"/>
      <use xlink:href="#DejaVuSans-52" transform="translate(627.951172 0)"/>
      <use xlink:href="#DejaVuSans-2c" transform="translate(697.433594 0)"/>
      <use xlink:href="#DejaVuSans-20" transform="translate(729.220703 0)"/>
      <use xlink:href="#DejaVuSans-46" transform="translate(761.007812 0)"/>
      <use xlink:href="#DejaVuSans-31" transform="translate(818.527344 0)"/>
      <use xlink:href="#DejaVuSans-20" transform="translate(882.150391 0)"/>
      <use xlink:href="#DejaVuSans-54" transform="translate(913.9375 0)"/>
      <use xlink:href="#DejaVuSans-65" transform="translate(958.021484 0)"/>
      <use xlink:href="#DejaVuSans-73" transform="translate(1019.544922 0)"/>
      <use xlink:href="#DejaVuSans-74" transform="translate(1071.644531 0)"/>
      <use xlink:href="#DejaVuSans-3a" transform="translate(1110.853516 0)"/>
      <use xlink:href="#DejaVuSans-20" transform="translate(1144.544922 0)"/>
      <use xlink:href="#DejaVuSans-30" transform="translate(1176.332031 0)"/>
      <use xlink:href="#DejaVuSans-2e" transform="translate(1239.955078 0)"/>
      <use xlink:href="#DejaVuSans-37" transform="translate(1271.742188 0)"/>
      <use xlink:href="#DejaVuSans-32" transform="translate(1335.365234 0)"/>
      <use xlink:href="#DejaVuSans-33" transform="translate(1398.988281 0)"/>
      <use xlink:href="#DejaVuSans-29" transform="translate(1462.611328 0)"/>
     </g>
     <!--  -->
     <g transform="translate(769.87672 321.894078) scale(0.09 -0.09)"/>
    </g>
    <g id="line2d_37">
     <path d="M 744.67672 337.929266 
L 753.67672 337.929266 
L 762.67672 337.929266 
" style="fill: none; stroke: #08306b; stroke-opacity: 0.8; stroke-linecap: square"/>
    </g>
    <g id="text_20">
     <!-- ID 18 (XAVIER, F1 Test: 0.721) -->
     <g transform="translate(769.87672 335.104391) scale(0.09 -0.09)">
      <use xlink:href="#DejaVuSans-49"/>
      <use xlink:href="#DejaVuSans-44" transform="translate(29.492188 0)"/>
      <use xlink:href="#DejaVuSans-20" transform="translate(106.494141 0)"/>
      <use xlink:href="#DejaVuSans-31" transform="translate(138.28125 0)"/>
      <use xlink:href="#DejaVuSans-38" transform="translate(201.904297 0)"/>
      <use xlink:href="#DejaVuSans-20" transform="translate(265.527344 0)"/>
      <use xlink:href="#DejaVuSans-28" transform="translate(297.314453 0)"/>
      <use xlink:href="#DejaVuSans-58" transform="translate(336.328125 0)"/>
      <use xlink:href="#DejaVuSans-41" transform="translate(404.833984 0)"/>
      <use xlink:href="#DejaVuSans-56" transform="translate(466.867188 0)"/>
      <use xlink:href="#DejaVuSans-49" transform="translate(535.275391 0)"/>
      <use xlink:href="#DejaVuSans-45" transform="translate(564.767578 0)"/>
      <use xlink:href="#DejaVuSans-52" transform="translate(627.951172 0)"/>
      <use xlink:href="#DejaVuSans-2c" transform="translate(697.433594 0)"/>
      <use xlink:href="#DejaVuSans-20" transform="translate(729.220703 0)"/>
      <use xlink:href="#DejaVuSans-46" transform="translate(761.007812 0)"/>
      <use xlink:href="#DejaVuSans-31" transform="translate(818.527344 0)"/>
      <use xlink:href="#DejaVuSans-20" transform="translate(882.150391 0)"/>
      <use xlink:href="#DejaVuSans-54" transform="translate(913.9375 0)"/>
      <use xlink:href="#DejaVuSans-65" transform="translate(958.021484 0)"/>
      <use xlink:href="#DejaVuSans-73" transform="translate(1019.544922 0)"/>
      <use xlink:href="#DejaVuSans-74" transform="translate(1071.644531 0)"/>
      <use xlink:href="#DejaVuSans-3a" transform="translate(1110.853516 0)"/>
      <use xlink:href="#DejaVuSans-20" transform="translate(1144.544922 0)"/>
      <use xlink:href="#DejaVuSans-30" transform="translate(1176.332031 0)"/>
      <use xlink:href="#DejaVuSans-2e" transform="translate(1239.955078 0)"/>
      <use xlink:href="#DejaVuSans-37" transform="translate(1271.742188 0)"/>
      <use xlink:href="#DejaVuSans-32" transform="translate(1335.365234 0)"/>
      <use xlink:href="#DejaVuSans-31" transform="translate(1398.988281 0)"/>
      <use xlink:href="#DejaVuSans-29" transform="translate(1462.611328 0)"/>
     </g>
     <!--  -->
     <g transform="translate(769.87672 345.182422) scale(0.09 -0.09)"/>
    </g>
    <g id="line2d_38">
     <path d="M 744.67672 355.242734 
L 753.67672 355.242734 
L 762.67672 355.242734 
" style="fill: none; stroke: #fff5eb; stroke-opacity: 0.9; stroke-width: 1.5; stroke-linecap: square"/>
    </g>
    <g id="text_21">
     <!-- normal -->
     <g transform="translate(769.87672 358.392734) scale(0.09 -0.09)">
      <use xlink:href="#DejaVuSans-6e"/>
      <use xlink:href="#DejaVuSans-6f" transform="translate(63.378906 0)"/>
      <use xlink:href="#DejaVuSans-72" transform="translate(124.560547 0)"/>
      <use xlink:href="#DejaVuSans-6d" transform="translate(163.923828 0)"/>
      <use xlink:href="#DejaVuSans-61" transform="translate(261.335938 0)"/>
      <use xlink:href="#DejaVuSans-6c" transform="translate(322.615234 0)"/>
     </g>
    </g>
    <g id="line2d_39">
     <path d="M 744.67672 368.453047 
L 753.67672 368.453047 
L 762.67672 368.453047 
" style="fill: none; stroke: #fdd0a2; stroke-opacity: 0.9; stroke-width: 1.5; stroke-linecap: square"/>
    </g>
    <g id="text_22">
     <!-- normal -->
     <g transform="translate(769.87672 371.603047) scale(0.09 -0.09)">
      <use xlink:href="#DejaVuSans-6e"/>
      <use xlink:href="#DejaVuSans-6f" transform="translate(63.378906 0)"/>
      <use xlink:href="#DejaVuSans-72" transform="translate(124.560547 0)"/>
      <use xlink:href="#DejaVuSans-6d" transform="translate(163.923828 0)"/>
      <use xlink:href="#DejaVuSans-61" transform="translate(261.335938 0)"/>
      <use xlink:href="#DejaVuSans-6c" transform="translate(322.615234 0)"/>
     </g>
    </g>
    <g id="line2d_40">
     <path d="M 744.67672 381.663359 
L 753.67672 381.663359 
L 762.67672 381.663359 
" style="fill: none; stroke: #fd8d3c; stroke-opacity: 0.9; stroke-width: 1.5; stroke-linecap: square"/>
    </g>
    <g id="text_23">
     <!-- normal -->
     <g transform="translate(769.87672 384.813359) scale(0.09 -0.09)">
      <use xlink:href="#DejaVuSans-6e"/>
      <use xlink:href="#DejaVuSans-6f" transform="translate(63.378906 0)"/>
      <use xlink:href="#DejaVuSans-72" transform="translate(124.560547 0)"/>
      <use xlink:href="#DejaVuSans-6d" transform="translate(163.923828 0)"/>
      <use xlink:href="#DejaVuSans-61" transform="translate(261.335938 0)"/>
      <use xlink:href="#DejaVuSans-6c" transform="translate(322.615234 0)"/>
     </g>
    </g>
    <g id="line2d_41">
     <path d="M 744.67672 394.873672 
L 753.67672 394.873672 
L 762.67672 394.873672 
" style="fill: none; stroke: #d94801; stroke-opacity: 0.9; stroke-width: 1.5; stroke-linecap: square"/>
    </g>
    <g id="text_24">
     <!-- normal -->
     <g transform="translate(769.87672 398.023672) scale(0.09 -0.09)">
      <use xlink:href="#DejaVuSans-6e"/>
      <use xlink:href="#DejaVuSans-6f" transform="translate(63.378906 0)"/>
      <use xlink:href="#DejaVuSans-72" transform="translate(124.560547 0)"/>
      <use xlink:href="#DejaVuSans-6d" transform="translate(163.923828 0)"/>
      <use xlink:href="#DejaVuSans-61" transform="translate(261.335938 0)"/>
      <use xlink:href="#DejaVuSans-6c" transform="translate(322.615234 0)"/>
     </g>
    </g>
    <g id="line2d_42">
     <path d="M 744.67672 408.083984 
L 753.67672 408.083984 
L 762.67672 408.083984 
" style="fill: none; stroke: #7f2704; stroke-opacity: 0.9; stroke-width: 1.5; stroke-linecap: square"/>
    </g>
    <g id="text_25">
     <!-- normal -->
     <g transform="translate(769.87672 411.233984) scale(0.09 -0.09)">
      <use xlink:href="#DejaVuSans-6e"/>
      <use xlink:href="#DejaVuSans-6f" transform="translate(63.378906 0)"/>
      <use xlink:href="#DejaVuSans-72" transform="translate(124.560547 0)"/>
      <use xlink:href="#DejaVuSans-6d" transform="translate(163.923828 0)"/>
      <use xlink:href="#DejaVuSans-61" transform="translate(261.335938 0)"/>
      <use xlink:href="#DejaVuSans-6c" transform="translate(322.615234 0)"/>
     </g>
    </g>
   </g>
  </g>
 </g>
 <defs>
  <clipPath id="pe5a7d230ba">
   <rect x="51.32" y="33.36" width="678.472" height="566.92"/>
  </clipPath>
 </defs>
</svg>
