<?xml version="1.0" encoding="utf-8" standalone="no"?>
<!DOCTYPE svg PUBLIC "-//W3C//DTD SVG 1.1//EN"
  "http://www.w3.org/Graphics/SVG/1.1/DTD/svg11.dtd">
<svg xmlns:xlink="http://www.w3.org/1999/xlink" width="1152pt" height="648pt" viewBox="0 0 1152 648" xmlns="http://www.w3.org/2000/svg" version="1.1">
 <metadata>
  <rdf:RDF xmlns:dc="http://purl.org/dc/elements/1.1/" xmlns:cc="http://creativecommons.org/ns#" xmlns:rdf="http://www.w3.org/1999/02/22-rdf-syntax-ns#">
   <cc:Work>
    <dc:type rdf:resource="http://purl.org/dc/dcmitype/StillImage"/>
    <dc:date>2025-11-14T11:44:11.895966</dc:date>
    <dc:format>image/svg+xml</dc:format>
    <dc:creator>
     <cc:Agent>
      <dc:title>Matplotlib v3.10.7, https://matplotlib.org/</dc:title>
     </cc:Agent>
    </dc:creator>
   </cc:Work>
  </rdf:RDF>
 </metadata>
 <defs>
  <style type="text/css">*{stroke-linejoin: round; stroke-linecap: butt}</style>
 </defs>
 <g id="figure_1">
  <g id="patch_1">
   <path d="M 0 648 
L 1152 648 
L 1152 0 
L 0 0 
z
" style="fill: #ffffff"/>
  </g>
  <g id="axes_1">
   <g id="patch_2">
    <path d="M 63.92 600.28 
L 727.992 600.28 
L 727.992 33.36 
L 63.92 33.36 
z
" style="fill: #ffffff"/>
   </g>
   <g id="matplotlib.axis_1">
    <g id="xtick_1">
     <g id="line2d_1">
      <path d="M 88.007093 600.28 
L 88.007093 33.36 
" clip-path="url(#p8988aba6f6)" style="fill: none; stroke-dasharray: 2.96,1.28; stroke-dashoffset: 0; stroke: #b0b0b0; stroke-opacity: 0.6; stroke-width: 0.8"/>
     </g>
     <g id="line2d_2">
      <defs>
       <path id="m3c10e45951" d="M 0 0 
L 0 3.5 
" style="stroke: #000000; stroke-width: 0.8"/>
      </defs>
      <g>
       <use xlink:href="#m3c10e45951" x="88.007093" y="600.28" style="stroke: #000000; stroke-width: 0.8"/>
      </g>
     </g>
     <g id="text_1">
      <!-- 0 -->
      <g transform="translate(84.825843 614.878438) scale(0.1 -0.1)">
       <defs>
        <path id="DejaVuSans-30" d="M 2034 4250 
Q 1547 4250 1301 3770 
Q 1056 3291 1056 2328 
Q 1056 1369 1301 889 
Q 1547 409 2034 409 
Q 2525 409 2770 889 
Q 3016 1369 3016 2328 
Q 3016 3291 2770 3770 
Q 2525 4250 2034 4250 
z
M 2034 4750 
Q 2819 4750 3233 4129 
Q 3647 3509 3647 2328 
Q 3647 1150 3233 529 
Q 2819 -91 2034 -91 
Q 1250 -91 836 529 
Q 422 1150 422 2328 
Q 422 3509 836 4129 
Q 1250 4750 2034 4750 
z
" transform="scale(0.015625)"/>
       </defs>
       <use xlink:href="#DejaVuSans-30"/>
      </g>
     </g>
    </g>
    <g id="xtick_2">
     <g id="line2d_3">
      <path d="M 209.967056 600.28 
L 209.967056 33.36 
" clip-path="url(#p8988aba6f6)" style="fill: none; stroke-dasharray: 2.96,1.28; stroke-dashoffset: 0; stroke: #b0b0b0; stroke-opacity: 0.6; stroke-width: 0.8"/>
     </g>
     <g id="line2d_4">
      <g>
       <use xlink:href="#m3c10e45951" x="209.967056" y="600.28" style="stroke: #000000; stroke-width: 0.8"/>
      </g>
     </g>
     <g id="text_2">
      <!-- 20 -->
      <g transform="translate(203.604556 614.878438) scale(0.1 -0.1)">
       <defs>
        <path id="DejaVuSans-32" d="M 1228 531 
L 3431 531 
L 3431 0 
L 469 0 
L 469 531 
Q 828 903 1448 1529 
Q 2069 2156 2228 2338 
Q 2531 2678 2651 2914 
Q 2772 3150 2772 3378 
Q 2772 3750 2511 3984 
Q 2250 4219 1831 4219 
Q 1534 4219 1204 4116 
Q 875 4013 500 3803 
L 500 4441 
Q 881 4594 1212 4672 
Q 1544 4750 1819 4750 
Q 2544 4750 2975 4387 
Q 3406 4025 3406 3419 
Q 3406 3131 3298 2873 
Q 3191 2616 2906 2266 
Q 2828 2175 2409 1742 
Q 1991 1309 1228 531 
z
" transform="scale(0.015625)"/>
       </defs>
       <use xlink:href="#DejaVuSans-32"/>
       <use xlink:href="#DejaVuSans-30" transform="translate(63.623047 0)"/>
      </g>
     </g>
    </g>
    <g id="xtick_3">
     <g id="line2d_5">
      <path d="M 331.927019 600.28 
L 331.927019 33.36 
" clip-path="url(#p8988aba6f6)" style="fill: none; stroke-dasharray: 2.96,1.28; stroke-dashoffset: 0; stroke: #b0b0b0; stroke-opacity: 0.6; stroke-width: 0.8"/>
     </g>
     <g id="line2d_6">
      <g>
       <use xlink:href="#m3c10e45951" x="331.927019" y="600.28" style="stroke: #000000; stroke-width: 0.8"/>
      </g>
     </g>
     <g id="text_3">
      <!-- 40 -->
      <g transform="translate(325.564519 614.878438) scale(0.1 -0.1)">
       <defs>
        <path id="DejaVuSans-34" d="M 2419 4116 
L 825 1625 
L 2419 1625 
L 2419 4116 
z
M 2253 4666 
L 3047 4666 
L 3047 1625 
L 3713 1625 
L 3713 1100 
L 3047 1100 
L 3047 0 
L 2419 0 
L 2419 1100 
L 313 1100 
L 313 1709 
L 2253 4666 
z
" transform="scale(0.015625)"/>
       </defs>
       <use xlink:href="#DejaVuSans-34"/>
       <use xlink:href="#DejaVuSans-30" transform="translate(63.623047 0)"/>
      </g>
     </g>
    </g>
    <g id="xtick_4">
     <g id="line2d_7">
      <path d="M 453.886983 600.28 
L 453.886983 33.36 
" clip-path="url(#p8988aba6f6)" style="fill: none; stroke-dasharray: 2.96,1.28; stroke-dashoffset: 0; stroke: #b0b0b0; stroke-opacity: 0.6; stroke-width: 0.8"/>
     </g>
     <g id="line2d_8">
      <g>
       <use xlink:href="#m3c10e45951" x="453.886983" y="600.28" style="stroke: #000000; stroke-width: 0.8"/>
      </g>
     </g>
     <g id="text_4">
      <!-- 60 -->
      <g transform="translate(447.524483 614.878438) scale(0.1 -0.1)">
       <defs>
        <path id="DejaVuSans-36" d="M 2113 2584 
Q 1688 2584 1439 2293 
Q 1191 2003 1191 1497 
Q 1191 994 1439 701 
Q 1688 409 2113 409 
Q 2538 409 2786 701 
Q 3034 994 3034 1497 
Q 3034 2003 2786 2293 
Q 2538 2584 2113 2584 
z
M 3366 4563 
L 3366 3988 
Q 3128 4100 2886 4159 
Q 2644 4219 2406 4219 
Q 1781 4219 1451 3797 
Q 1122 3375 1075 2522 
Q 1259 2794 1537 2939 
Q 1816 3084 2150 3084 
Q 2853 3084 3261 2657 
Q 3669 2231 3669 1497 
Q 3669 778 3244 343 
Q 2819 -91 2113 -91 
Q 1303 -91 875 529 
Q 447 1150 447 2328 
Q 447 3434 972 4092 
Q 1497 4750 2381 4750 
Q 2619 4750 2861 4703 
Q 3103 4656 3366 4563 
z
" transform="scale(0.015625)"/>
       </defs>
       <use xlink:href="#DejaVuSans-36"/>
       <use xlink:href="#DejaVuSans-30" transform="translate(63.623047 0)"/>
      </g>
     </g>
    </g>
    <g id="xtick_5">
     <g id="line2d_9">
      <path d="M 575.846946 600.28 
L 575.846946 33.36 
" clip-path="url(#p8988aba6f6)" style="fill: none; stroke-dasharray: 2.96,1.28; stroke-dashoffset: 0; stroke: #b0b0b0; stroke-opacity: 0.6; stroke-width: 0.8"/>
     </g>
     <g id="line2d_10">
      <g>
       <use xlink:href="#m3c10e45951" x="575.846946" y="600.28" style="stroke: #000000; stroke-width: 0.8"/>
      </g>
     </g>
     <g id="text_5">
      <!-- 80 -->
      <g transform="translate(569.484446 614.878438) scale(0.1 -0.1)">
       <defs>
        <path id="DejaVuSans-38" d="M 2034 2216 
Q 1584 2216 1326 1975 
Q 1069 1734 1069 1313 
Q 1069 891 1326 650 
Q 1584 409 2034 409 
Q 2484 409 2743 651 
Q 3003 894 3003 1313 
Q 3003 1734 2745 1975 
Q 2488 2216 2034 2216 
z
M 1403 2484 
Q 997 2584 770 2862 
Q 544 3141 544 3541 
Q 544 4100 942 4425 
Q 1341 4750 2034 4750 
Q 2731 4750 3128 4425 
Q 3525 4100 3525 3541 
Q 3525 3141 3298 2862 
Q 3072 2584 2669 2484 
Q 3125 2378 3379 2068 
Q 3634 1759 3634 1313 
Q 3634 634 3220 271 
Q 2806 -91 2034 -91 
Q 1263 -91 848 271 
Q 434 634 434 1313 
Q 434 1759 690 2068 
Q 947 2378 1403 2484 
z
M 1172 3481 
Q 1172 3119 1398 2916 
Q 1625 2713 2034 2713 
Q 2441 2713 2670 2916 
Q 2900 3119 2900 3481 
Q 2900 3844 2670 4047 
Q 2441 4250 2034 4250 
Q 1625 4250 1398 4047 
Q 1172 3844 1172 3481 
z
" transform="scale(0.015625)"/>
       </defs>
       <use xlink:href="#DejaVuSans-38"/>
       <use xlink:href="#DejaVuSans-30" transform="translate(63.623047 0)"/>
      </g>
     </g>
    </g>
    <g id="xtick_6">
     <g id="line2d_11">
      <path d="M 697.806909 600.28 
L 697.806909 33.36 
" clip-path="url(#p8988aba6f6)" style="fill: none; stroke-dasharray: 2.96,1.28; stroke-dashoffset: 0; stroke: #b0b0b0; stroke-opacity: 0.6; stroke-width: 0.8"/>
     </g>
     <g id="line2d_12">
      <g>
       <use xlink:href="#m3c10e45951" x="697.806909" y="600.28" style="stroke: #000000; stroke-width: 0.8"/>
      </g>
     </g>
     <g id="text_6">
      <!-- 100 -->
      <g transform="translate(688.263159 614.878438) scale(0.1 -0.1)">
       <defs>
        <path id="DejaVuSans-31" d="M 794 531 
L 1825 531 
L 1825 4091 
L 703 3866 
L 703 4441 
L 1819 4666 
L 2450 4666 
L 2450 531 
L 3481 531 
L 3481 0 
L 794 0 
L 794 531 
z
" transform="scale(0.015625)"/>
       </defs>
       <use xlink:href="#DejaVuSans-31"/>
       <use xlink:href="#DejaVuSans-30" transform="translate(63.623047 0)"/>
       <use xlink:href="#DejaVuSans-30" transform="translate(127.246094 0)"/>
      </g>
     </g>
    </g>
    <g id="text_7">
     <!-- Época -->
     <g transform="translate(374.66725 633.910312) scale(0.14 -0.14)">
      <defs>
       <path id="DejaVuSans-c9" d="M 628 4666 
L 3578 4666 
L 3578 4134 
L 1259 4134 
L 1259 2753 
L 3481 2753 
L 3481 2222 
L 1259 2222 
L 1259 531 
L 3634 531 
L 3634 0 
L 628 0 
L 628 4666 
z
M 2268 5921 
L 2846 5921 
L 2134 5096 
L 1655 5096 
L 2268 5921 
z
" transform="scale(0.015625)"/>
       <path id="DejaVuSans-70" d="M 1159 525 
L 1159 -1331 
L 581 -1331 
L 581 3500 
L 1159 3500 
L 1159 2969 
Q 1341 3281 1617 3432 
Q 1894 3584 2278 3584 
Q 2916 3584 3314 3078 
Q 3713 2572 3713 1747 
Q 3713 922 3314 415 
Q 2916 -91 2278 -91 
Q 1894 -91 1617 61 
Q 1341 213 1159 525 
z
M 3116 1747 
Q 3116 2381 2855 2742 
Q 2594 3103 2138 3103 
Q 1681 3103 1420 2742 
Q 1159 2381 1159 1747 
Q 1159 1113 1420 752 
Q 1681 391 2138 391 
Q 2594 391 2855 752 
Q 3116 1113 3116 1747 
z
" transform="scale(0.015625)"/>
       <path id="DejaVuSans-6f" d="M 1959 3097 
Q 1497 3097 1228 2736 
Q 959 2375 959 1747 
Q 959 1119 1226 758 
Q 1494 397 1959 397 
Q 2419 397 2687 759 
Q 2956 1122 2956 1747 
Q 2956 2369 2687 2733 
Q 2419 3097 1959 3097 
z
M 1959 3584 
Q 2709 3584 3137 3096 
Q 3566 2609 3566 1747 
Q 3566 888 3137 398 
Q 2709 -91 1959 -91 
Q 1206 -91 779 398 
Q 353 888 353 1747 
Q 353 2609 779 3096 
Q 1206 3584 1959 3584 
z
" transform="scale(0.015625)"/>
       <path id="DejaVuSans-63" d="M 3122 3366 
L 3122 2828 
Q 2878 2963 2633 3030 
Q 2388 3097 2138 3097 
Q 1578 3097 1268 2742 
Q 959 2388 959 1747 
Q 959 1106 1268 751 
Q 1578 397 2138 397 
Q 2388 397 2633 464 
Q 2878 531 3122 666 
L 3122 134 
Q 2881 22 2623 -34 
Q 2366 -91 2075 -91 
Q 1284 -91 818 406 
Q 353 903 353 1747 
Q 353 2603 823 3093 
Q 1294 3584 2113 3584 
Q 2378 3584 2631 3529 
Q 2884 3475 3122 3366 
z
" transform="scale(0.015625)"/>
       <path id="DejaVuSans-61" d="M 2194 1759 
Q 1497 1759 1228 1600 
Q 959 1441 959 1056 
Q 959 750 1161 570 
Q 1363 391 1709 391 
Q 2188 391 2477 730 
Q 2766 1069 2766 1631 
L 2766 1759 
L 2194 1759 
z
M 3341 1997 
L 3341 0 
L 2766 0 
L 2766 531 
Q 2569 213 2275 61 
Q 1981 -91 1556 -91 
Q 1019 -91 701 211 
Q 384 513 384 1019 
Q 384 1609 779 1909 
Q 1175 2209 1959 2209 
L 2766 2209 
L 2766 2266 
Q 2766 2663 2505 2880 
Q 2244 3097 1772 3097 
Q 1472 3097 1187 3025 
Q 903 2953 641 2809 
L 641 3341 
Q 956 3463 1253 3523 
Q 1550 3584 1831 3584 
Q 2591 3584 2966 3190 
Q 3341 2797 3341 1997 
z
" transform="scale(0.015625)"/>
      </defs>
      <use xlink:href="#DejaVuSans-c9"/>
      <use xlink:href="#DejaVuSans-70" transform="translate(63.183594 0)"/>
      <use xlink:href="#DejaVuSans-6f" transform="translate(126.660156 0)"/>
      <use xlink:href="#DejaVuSans-63" transform="translate(187.841797 0)"/>
      <use xlink:href="#DejaVuSans-61" transform="translate(242.822266 0)"/>
     </g>
    </g>
   </g>
   <g id="matplotlib.axis_2">
    <g id="ytick_1">
     <g id="line2d_13">
      <path d="M 63.92 598.249896 
L 727.992 598.249896 
" clip-path="url(#p8988aba6f6)" style="fill: none; stroke-dasharray: 2.96,1.28; stroke-dashoffset: 0; stroke: #b0b0b0; stroke-opacity: 0.6; stroke-width: 0.8"/>
     </g>
     <g id="line2d_14">
      <defs>
       <path id="m5619725e16" d="M 0 0 
L -3.5 0 
" style="stroke: #000000; stroke-width: 0.8"/>
      </defs>
      <g>
       <use xlink:href="#m5619725e16" x="63.92" y="598.249896" style="stroke: #000000; stroke-width: 0.8"/>
      </g>
     </g>
     <g id="text_8">
      <!-- 0.050 -->
      <g transform="translate(28.291875 602.049115) scale(0.1 -0.1)">
       <defs>
        <path id="DejaVuSans-2e" d="M 684 794 
L 1344 794 
L 1344 0 
L 684 0 
L 684 794 
z
" transform="scale(0.015625)"/>
        <path id="DejaVuSans-35" d="M 691 4666 
L 3169 4666 
L 3169 4134 
L 1269 4134 
L 1269 2991 
Q 1406 3038 1543 3061 
Q 1681 3084 1819 3084 
Q 2600 3084 3056 2656 
Q 3513 2228 3513 1497 
Q 3513 744 3044 326 
Q 2575 -91 1722 -91 
Q 1428 -91 1123 -41 
Q 819 9 494 109 
L 494 744 
Q 775 591 1075 516 
Q 1375 441 1709 441 
Q 2250 441 2565 725 
Q 2881 1009 2881 1497 
Q 2881 1984 2565 2268 
Q 2250 2553 1709 2553 
Q 1456 2553 1204 2497 
Q 953 2441 691 2322 
L 691 4666 
z
" transform="scale(0.015625)"/>
       </defs>
       <use xlink:href="#DejaVuSans-30"/>
       <use xlink:href="#DejaVuSans-2e" transform="translate(63.623047 0)"/>
       <use xlink:href="#DejaVuSans-30" transform="translate(95.410156 0)"/>
       <use xlink:href="#DejaVuSans-35" transform="translate(159.033203 0)"/>
       <use xlink:href="#DejaVuSans-30" transform="translate(222.65625 0)"/>
      </g>
     </g>
    </g>
    <g id="ytick_2">
     <g id="line2d_15">
      <path d="M 63.92 529.244678 
L 727.992 529.244678 
" clip-path="url(#p8988aba6f6)" style="fill: none; stroke-dasharray: 2.96,1.28; stroke-dashoffset: 0; stroke: #b0b0b0; stroke-opacity: 0.6; stroke-width: 0.8"/>
     </g>
     <g id="line2d_16">
      <g>
       <use xlink:href="#m5619725e16" x="63.92" y="529.244678" style="stroke: #000000; stroke-width: 0.8"/>
      </g>
     </g>
     <g id="text_9">
      <!-- 0.075 -->
      <g transform="translate(28.291875 533.043897) scale(0.1 -0.1)">
       <defs>
        <path id="DejaVuSans-37" d="M 525 4666 
L 3525 4666 
L 3525 4397 
L 1831 0 
L 1172 0 
L 2766 4134 
L 525 4134 
L 525 4666 
z
" transform="scale(0.015625)"/>
       </defs>
       <use xlink:href="#DejaVuSans-30"/>
       <use xlink:href="#DejaVuSans-2e" transform="translate(63.623047 0)"/>
       <use xlink:href="#DejaVuSans-30" transform="translate(95.410156 0)"/>
       <use xlink:href="#DejaVuSans-37" transform="translate(159.033203 0)"/>
       <use xlink:href="#DejaVuSans-35" transform="translate(222.65625 0)"/>
      </g>
     </g>
    </g>
    <g id="ytick_3">
     <g id="line2d_17">
      <path d="M 63.92 460.23946 
L 727.992 460.23946 
" clip-path="url(#p8988aba6f6)" style="fill: none; stroke-dasharray: 2.96,1.28; stroke-dashoffset: 0; stroke: #b0b0b0; stroke-opacity: 0.6; stroke-width: 0.8"/>
     </g>
     <g id="line2d_18">
      <g>
       <use xlink:href="#m5619725e16" x="63.92" y="460.23946" style="stroke: #000000; stroke-width: 0.8"/>
      </g>
     </g>
     <g id="text_10">
      <!-- 0.100 -->
      <g transform="translate(28.291875 464.038679) scale(0.1 -0.1)">
       <use xlink:href="#DejaVuSans-30"/>
       <use xlink:href="#DejaVuSans-2e" transform="translate(63.623047 0)"/>
       <use xlink:href="#DejaVuSans-31" transform="translate(95.410156 0)"/>
       <use xlink:href="#DejaVuSans-30" transform="translate(159.033203 0)"/>
       <use xlink:href="#DejaVuSans-30" transform="translate(222.65625 0)"/>
      </g>
     </g>
    </g>
    <g id="ytick_4">
     <g id="line2d_19">
      <path d="M 63.92 391.234242 
L 727.992 391.234242 
" clip-path="url(#p8988aba6f6)" style="fill: none; stroke-dasharray: 2.96,1.28; stroke-dashoffset: 0; stroke: #b0b0b0; stroke-opacity: 0.6; stroke-width: 0.8"/>
     </g>
     <g id="line2d_20">
      <g>
       <use xlink:href="#m5619725e16" x="63.92" y="391.234242" style="stroke: #000000; stroke-width: 0.8"/>
      </g>
     </g>
     <g id="text_11">
      <!-- 0.125 -->
      <g transform="translate(28.291875 395.033461) scale(0.1 -0.1)">
       <use xlink:href="#DejaVuSans-30"/>
       <use xlink:href="#DejaVuSans-2e" transform="translate(63.623047 0)"/>
       <use xlink:href="#DejaVuSans-31" transform="translate(95.410156 0)"/>
       <use xlink:href="#DejaVuSans-32" transform="translate(159.033203 0)"/>
       <use xlink:href="#DejaVuSans-35" transform="translate(222.65625 0)"/>
      </g>
     </g>
    </g>
    <g id="ytick_5">
     <g id="line2d_21">
      <path d="M 63.92 322.229024 
L 727.992 322.229024 
" clip-path="url(#p8988aba6f6)" style="fill: none; stroke-dasharray: 2.96,1.28; stroke-dashoffset: 0; stroke: #b0b0b0; stroke-opacity: 0.6; stroke-width: 0.8"/>
     </g>
     <g id="line2d_22">
      <g>
       <use xlink:href="#m5619725e16" x="63.92" y="322.229024" style="stroke: #000000; stroke-width: 0.8"/>
      </g>
     </g>
     <g id="text_12">
      <!-- 0.150 -->
      <g transform="translate(28.291875 326.028242) scale(0.1 -0.1)">
       <use xlink:href="#DejaVuSans-30"/>
       <use xlink:href="#DejaVuSans-2e" transform="translate(63.623047 0)"/>
       <use xlink:href="#DejaVuSans-31" transform="translate(95.410156 0)"/>
       <use xlink:href="#DejaVuSans-35" transform="translate(159.033203 0)"/>
       <use xlink:href="#DejaVuSans-30" transform="translate(222.65625 0)"/>
      </g>
     </g>
    </g>
    <g id="ytick_6">
     <g id="line2d_23">
      <path d="M 63.92 253.223806 
L 727.992 253.223806 
" clip-path="url(#p8988aba6f6)" style="fill: none; stroke-dasharray: 2.96,1.28; stroke-dashoffset: 0; stroke: #b0b0b0; stroke-opacity: 0.6; stroke-width: 0.8"/>
     </g>
     <g id="line2d_24">
      <g>
       <use xlink:href="#m5619725e16" x="63.92" y="253.223806" style="stroke: #000000; stroke-width: 0.8"/>
      </g>
     </g>
     <g id="text_13">
      <!-- 0.175 -->
      <g transform="translate(28.291875 257.023024) scale(0.1 -0.1)">
       <use xlink:href="#DejaVuSans-30"/>
       <use xlink:href="#DejaVuSans-2e" transform="translate(63.623047 0)"/>
       <use xlink:href="#DejaVuSans-31" transform="translate(95.410156 0)"/>
       <use xlink:href="#DejaVuSans-37" transform="translate(159.033203 0)"/>
       <use xlink:href="#DejaVuSans-35" transform="translate(222.65625 0)"/>
      </g>
     </g>
    </g>
    <g id="ytick_7">
     <g id="line2d_25">
      <path d="M 63.92 184.218588 
L 727.992 184.218588 
" clip-path="url(#p8988aba6f6)" style="fill: none; stroke-dasharray: 2.96,1.28; stroke-dashoffset: 0; stroke: #b0b0b0; stroke-opacity: 0.6; stroke-width: 0.8"/>
     </g>
     <g id="line2d_26">
      <g>
       <use xlink:href="#m5619725e16" x="63.92" y="184.218588" style="stroke: #000000; stroke-width: 0.8"/>
      </g>
     </g>
     <g id="text_14">
      <!-- 0.200 -->
      <g transform="translate(28.291875 188.017806) scale(0.1 -0.1)">
       <use xlink:href="#DejaVuSans-30"/>
       <use xlink:href="#DejaVuSans-2e" transform="translate(63.623047 0)"/>
       <use xlink:href="#DejaVuSans-32" transform="translate(95.410156 0)"/>
       <use xlink:href="#DejaVuSans-30" transform="translate(159.033203 0)"/>
       <use xlink:href="#DejaVuSans-30" transform="translate(222.65625 0)"/>
      </g>
     </g>
    </g>
    <g id="ytick_8">
     <g id="line2d_27">
      <path d="M 63.92 115.213369 
L 727.992 115.213369 
" clip-path="url(#p8988aba6f6)" style="fill: none; stroke-dasharray: 2.96,1.28; stroke-dashoffset: 0; stroke: #b0b0b0; stroke-opacity: 0.6; stroke-width: 0.8"/>
     </g>
     <g id="line2d_28">
      <g>
       <use xlink:href="#m5619725e16" x="63.92" y="115.213369" style="stroke: #000000; stroke-width: 0.8"/>
      </g>
     </g>
     <g id="text_15">
      <!-- 0.225 -->
      <g transform="translate(28.291875 119.012588) scale(0.1 -0.1)">
       <use xlink:href="#DejaVuSans-30"/>
       <use xlink:href="#DejaVuSans-2e" transform="translate(63.623047 0)"/>
       <use xlink:href="#DejaVuSans-32" transform="translate(95.410156 0)"/>
       <use xlink:href="#DejaVuSans-32" transform="translate(159.033203 0)"/>
       <use xlink:href="#DejaVuSans-35" transform="translate(222.65625 0)"/>
      </g>
     </g>
    </g>
    <g id="ytick_9">
     <g id="line2d_29">
      <path d="M 63.92 46.208151 
L 727.992 46.208151 
" clip-path="url(#p8988aba6f6)" style="fill: none; stroke-dasharray: 2.96,1.28; stroke-dashoffset: 0; stroke: #b0b0b0; stroke-opacity: 0.6; stroke-width: 0.8"/>
     </g>
     <g id="line2d_30">
      <g>
       <use xlink:href="#m5619725e16" x="63.92" y="46.208151" style="stroke: #000000; stroke-width: 0.8"/>
      </g>
     </g>
     <g id="text_16">
      <!-- 0.250 -->
      <g transform="translate(28.291875 50.00737) scale(0.1 -0.1)">
       <use xlink:href="#DejaVuSans-30"/>
       <use xlink:href="#DejaVuSans-2e" transform="translate(63.623047 0)"/>
       <use xlink:href="#DejaVuSans-32" transform="translate(95.410156 0)"/>
       <use xlink:href="#DejaVuSans-35" transform="translate(159.033203 0)"/>
       <use xlink:href="#DejaVuSans-30" transform="translate(222.65625 0)"/>
      </g>
     </g>
    </g>
    <g id="text_17">
     <!-- Error Cuadrático Medio (MSE) -->
     <g transform="translate(21.380312 419.986875) rotate(-90) scale(0.14 -0.14)">
      <defs>
       <path id="DejaVuSans-45" d="M 628 4666 
L 3578 4666 
L 3578 4134 
L 1259 4134 
L 1259 2753 
L 3481 2753 
L 3481 2222 
L 1259 2222 
L 1259 531 
L 3634 531 
L 3634 0 
L 628 0 
L 628 4666 
z
" transform="scale(0.015625)"/>
       <path id="DejaVuSans-72" d="M 2631 2963 
Q 2534 3019 2420 3045 
Q 2306 3072 2169 3072 
Q 1681 3072 1420 2755 
Q 1159 2438 1159 1844 
L 1159 0 
L 581 0 
L 581 3500 
L 1159 3500 
L 1159 2956 
Q 1341 3275 1631 3429 
Q 1922 3584 2338 3584 
Q 2397 3584 2469 3576 
Q 2541 3569 2628 3553 
L 2631 2963 
z
" transform="scale(0.015625)"/>
       <path id="DejaVuSans-20" transform="scale(0.015625)"/>
       <path id="DejaVuSans-43" d="M 4122 4306 
L 4122 3641 
Q 3803 3938 3442 4084 
Q 3081 4231 2675 4231 
Q 1875 4231 1450 3742 
Q 1025 3253 1025 2328 
Q 1025 1406 1450 917 
Q 1875 428 2675 428 
Q 3081 428 3442 575 
Q 3803 722 4122 1019 
L 4122 359 
Q 3791 134 3420 21 
Q 3050 -91 2638 -91 
Q 1578 -91 968 557 
Q 359 1206 359 2328 
Q 359 3453 968 4101 
Q 1578 4750 2638 4750 
Q 3056 4750 3426 4639 
Q 3797 4528 4122 4306 
z
" transform="scale(0.015625)"/>
       <path id="DejaVuSans-75" d="M 544 1381 
L 544 3500 
L 1119 3500 
L 1119 1403 
Q 1119 906 1312 657 
Q 1506 409 1894 409 
Q 2359 409 2629 706 
Q 2900 1003 2900 1516 
L 2900 3500 
L 3475 3500 
L 3475 0 
L 2900 0 
L 2900 538 
Q 2691 219 2414 64 
Q 2138 -91 1772 -91 
Q 1169 -91 856 284 
Q 544 659 544 1381 
z
M 1991 3584 
L 1991 3584 
z
" transform="scale(0.015625)"/>
       <path id="DejaVuSans-64" d="M 2906 2969 
L 2906 4863 
L 3481 4863 
L 3481 0 
L 2906 0 
L 2906 525 
Q 2725 213 2448 61 
Q 2172 -91 1784 -91 
Q 1150 -91 751 415 
Q 353 922 353 1747 
Q 353 2572 751 3078 
Q 1150 3584 1784 3584 
Q 2172 3584 2448 3432 
Q 2725 3281 2906 2969 
z
M 947 1747 
Q 947 1113 1208 752 
Q 1469 391 1925 391 
Q 2381 391 2643 752 
Q 2906 1113 2906 1747 
Q 2906 2381 2643 2742 
Q 2381 3103 1925 3103 
Q 1469 3103 1208 2742 
Q 947 2381 947 1747 
z
" transform="scale(0.015625)"/>
       <path id="DejaVuSans-e1" d="M 2194 1759 
Q 1497 1759 1228 1600 
Q 959 1441 959 1056 
Q 959 750 1161 570 
Q 1363 391 1709 391 
Q 2188 391 2477 730 
Q 2766 1069 2766 1631 
L 2766 1759 
L 2194 1759 
z
M 3341 1997 
L 3341 0 
L 2766 0 
L 2766 531 
Q 2569 213 2275 61 
Q 1981 -91 1556 -91 
Q 1019 -91 701 211 
Q 384 513 384 1019 
Q 384 1609 779 1909 
Q 1175 2209 1959 2209 
L 2766 2209 
L 2766 2266 
Q 2766 2663 2505 2880 
Q 2244 3097 1772 3097 
Q 1472 3097 1187 3025 
Q 903 2953 641 2809 
L 641 3341 
Q 956 3463 1253 3523 
Q 1550 3584 1831 3584 
Q 2591 3584 2966 3190 
Q 3341 2797 3341 1997 
z
M 2290 5119 
L 2912 5119 
L 1894 3944 
L 1415 3944 
L 2290 5119 
z
" transform="scale(0.015625)"/>
       <path id="DejaVuSans-74" d="M 1172 4494 
L 1172 3500 
L 2356 3500 
L 2356 3053 
L 1172 3053 
L 1172 1153 
Q 1172 725 1289 603 
Q 1406 481 1766 481 
L 2356 481 
L 2356 0 
L 1766 0 
Q 1100 0 847 248 
Q 594 497 594 1153 
L 594 3053 
L 172 3053 
L 172 3500 
L 594 3500 
L 594 4494 
L 1172 4494 
z
" transform="scale(0.015625)"/>
       <path id="DejaVuSans-69" d="M 603 3500 
L 1178 3500 
L 1178 0 
L 603 0 
L 603 3500 
z
M 603 4863 
L 1178 4863 
L 1178 4134 
L 603 4134 
L 603 4863 
z
" transform="scale(0.015625)"/>
       <path id="DejaVuSans-4d" d="M 628 4666 
L 1569 4666 
L 2759 1491 
L 3956 4666 
L 4897 4666 
L 4897 0 
L 4281 0 
L 4281 4097 
L 3078 897 
L 2444 897 
L 1241 4097 
L 1241 0 
L 628 0 
L 628 4666 
z
" transform="scale(0.015625)"/>
       <path id="DejaVuSans-65" d="M 3597 1894 
L 3597 1613 
L 953 1613 
Q 991 1019 1311 708 
Q 1631 397 2203 397 
Q 2534 397 2845 478 
Q 3156 559 3463 722 
L 3463 178 
Q 3153 47 2828 -22 
Q 2503 -91 2169 -91 
Q 1331 -91 842 396 
Q 353 884 353 1716 
Q 353 2575 817 3079 
Q 1281 3584 2069 3584 
Q 2775 3584 3186 3129 
Q 3597 2675 3597 1894 
z
M 3022 2063 
Q 3016 2534 2758 2815 
Q 2500 3097 2075 3097 
Q 1594 3097 1305 2825 
Q 1016 2553 972 2059 
L 3022 2063 
z
" transform="scale(0.015625)"/>
       <path id="DejaVuSans-28" d="M 1984 4856 
Q 1566 4138 1362 3434 
Q 1159 2731 1159 2009 
Q 1159 1288 1364 580 
Q 1569 -128 1984 -844 
L 1484 -844 
Q 1016 -109 783 600 
Q 550 1309 550 2009 
Q 550 2706 781 3412 
Q 1013 4119 1484 4856 
L 1984 4856 
z
" transform="scale(0.015625)"/>
       <path id="DejaVuSans-53" d="M 3425 4513 
L 3425 3897 
Q 3066 4069 2747 4153 
Q 2428 4238 2131 4238 
Q 1616 4238 1336 4038 
Q 1056 3838 1056 3469 
Q 1056 3159 1242 3001 
Q 1428 2844 1947 2747 
L 2328 2669 
Q 3034 2534 3370 2195 
Q 3706 1856 3706 1288 
Q 3706 609 3251 259 
Q 2797 -91 1919 -91 
Q 1588 -91 1214 -16 
Q 841 59 441 206 
L 441 856 
Q 825 641 1194 531 
Q 1563 422 1919 422 
Q 2459 422 2753 634 
Q 3047 847 3047 1241 
Q 3047 1584 2836 1778 
Q 2625 1972 2144 2069 
L 1759 2144 
Q 1053 2284 737 2584 
Q 422 2884 422 3419 
Q 422 4038 858 4394 
Q 1294 4750 2059 4750 
Q 2388 4750 2728 4690 
Q 3069 4631 3425 4513 
z
" transform="scale(0.015625)"/>
       <path id="DejaVuSans-29" d="M 513 4856 
L 1013 4856 
Q 1481 4119 1714 3412 
Q 1947 2706 1947 2009 
Q 1947 1309 1714 600 
Q 1481 -109 1013 -844 
L 513 -844 
Q 928 -128 1133 580 
Q 1338 1288 1338 2009 
Q 1338 2731 1133 3434 
Q 928 4138 513 4856 
z
" transform="scale(0.015625)"/>
      </defs>
      <use xlink:href="#DejaVuSans-45"/>
      <use xlink:href="#DejaVuSans-72" transform="translate(63.183594 0)"/>
      <use xlink:href="#DejaVuSans-72" transform="translate(102.546875 0)"/>
      <use xlink:href="#DejaVuSans-6f" transform="translate(141.410156 0)"/>
      <use xlink:href="#DejaVuSans-72" transform="translate(202.591797 0)"/>
      <use xlink:href="#DejaVuSans-20" transform="translate(243.705078 0)"/>
      <use xlink:href="#DejaVuSans-43" transform="translate(275.492188 0)"/>
      <use xlink:href="#DejaVuSans-75" transform="translate(345.316406 0)"/>
      <use xlink:href="#DejaVuSans-61" transform="translate(408.695312 0)"/>
      <use xlink:href="#DejaVuSans-64" transform="translate(469.974609 0)"/>
      <use xlink:href="#DejaVuSans-72" transform="translate(533.451172 0)"/>
      <use xlink:href="#DejaVuSans-e1" transform="translate(574.564453 0)"/>
      <use xlink:href="#DejaVuSans-74" transform="translate(635.84375 0)"/>
      <use xlink:href="#DejaVuSans-69" transform="translate(675.052734 0)"/>
      <use xlink:href="#DejaVuSans-63" transform="translate(702.835938 0)"/>
      <use xlink:href="#DejaVuSans-6f" transform="translate(757.816406 0)"/>
      <use xlink:href="#DejaVuSans-20" transform="translate(818.998047 0)"/>
      <use xlink:href="#DejaVuSans-4d" transform="translate(850.785156 0)"/>
      <use xlink:href="#DejaVuSans-65" transform="translate(937.064453 0)"/>
      <use xlink:href="#DejaVuSans-64" transform="translate(998.587891 0)"/>
      <use xlink:href="#DejaVuSans-69" transform="translate(1062.064453 0)"/>
      <use xlink:href="#DejaVuSans-6f" transform="translate(1089.847656 0)"/>
      <use xlink:href="#DejaVuSans-20" transform="translate(1151.029297 0)"/>
      <use xlink:href="#DejaVuSans-28" transform="translate(1182.816406 0)"/>
      <use xlink:href="#DejaVuSans-4d" transform="translate(1221.830078 0)"/>
      <use xlink:href="#DejaVuSans-53" transform="translate(1308.109375 0)"/>
      <use xlink:href="#DejaVuSans-45" transform="translate(1371.585938 0)"/>
      <use xlink:href="#DejaVuSans-29" transform="translate(1434.769531 0)"/>
     </g>
    </g>
   </g>
   <g id="line2d_31">
    <path d="M 94.105091 60.796148 
L 100.203089 61.43566 
L 106.301087 63.386512 
L 112.399085 63.750538 
L 118.497084 64.352889 
L 124.595082 65.426221 
L 130.69308 66.014914 
L 136.791078 67.064365 
L 142.889076 68.786136 
L 148.987074 68.016469 
L 155.085073 69.283601 
L 161.183071 70.366898 
L 167.281069 71.091253 
L 173.379067 72.392426 
L 179.477065 73.058804 
L 185.575063 73.782431 
L 191.673062 74.592193 
L 197.77106 75.908976 
L 203.869058 75.765541 
L 209.967056 76.916889 
L 216.065054 77.780341 
L 222.163052 78.426778 
L 228.261051 79.769219 
L 234.359049 80.081381 
L 240.457047 81.136817 
L 246.555045 81.822538 
L 252.653043 83.015393 
L 258.751041 83.935825 
L 264.849039 84.185364 
L 270.947038 84.714815 
L 277.045036 86.945669 
L 283.143034 86.887526 
L 289.241032 87.759567 
L 295.33903 88.491097 
L 301.437028 88.679758 
L 307.535027 90.806778 
L 313.633025 91.123004 
L 319.731023 91.6942 
L 325.829021 92.94457 
L 331.927019 93.951082 
L 338.025017 94.658312 
L 344.123016 95.533164 
L 350.221014 96.240118 
L 356.319012 96.965089 
L 362.41701 98.167319 
L 368.515008 98.825199 
L 374.613006 99.185939 
L 380.711005 100.973043 
L 386.809003 101.411482 
L 392.907001 102.631362 
L 399.004999 103.95583 
L 405.102997 104.34002 
L 411.200995 105.54537 
L 417.298994 105.873855 
L 423.396992 107.91121 
L 429.49499 109.074772 
L 435.592988 110.297405 
L 441.690986 111.069659 
L 447.788984 111.664213 
L 453.886983 112.672675 
L 459.984981 113.205966 
L 466.082979 114.483595 
L 472.180977 115.860123 
L 478.278975 116.269305 
L 484.376973 118.076097 
L 490.474972 119.000431 
L 496.57297 119.688246 
L 502.670968 121.476305 
L 508.768966 122.79733 
L 514.866964 125.061166 
L 520.964962 124.693828 
L 527.062961 125.135634 
L 533.160959 126.955428 
L 539.258957 128.117168 
L 545.356955 128.796164 
L 551.454953 129.697445 
L 557.552951 131.972649 
L 563.650949 132.82622 
L 569.748948 133.680633 
L 575.846946 134.261699 
L 581.944944 135.367896 
L 588.042942 137.249212 
L 594.14094 138.811108 
L 600.238938 139.060921 
L 606.336937 141.341397 
L 612.434935 142.034347 
L 618.532933 144.01491 
L 624.630931 144.309124 
L 630.728929 145.936735 
L 636.826927 146.588726 
L 642.924926 147.276129 
L 649.022924 148.804117 
L 655.120922 150.544874 
L 661.21892 150.983538 
L 667.316918 152.930567 
L 673.414916 153.40341 
L 679.512915 154.548631 
L 685.610913 156.941496 
L 691.708911 156.716638 
L 697.806909 158.632806 
" clip-path="url(#p8988aba6f6)" style="fill: none; stroke: #f7fcf5; stroke-opacity: 0.8; stroke-width: 1.5; stroke-linecap: square"/>
   </g>
   <g id="line2d_32">
    <path d="M 94.105091 60.796148 
L 100.203089 61.43566 
L 106.301087 63.386512 
L 112.399085 63.750538 
L 118.497084 64.352889 
L 124.595082 65.426221 
L 130.69308 66.014914 
L 136.791078 67.064365 
L 142.889076 68.786136 
L 148.987074 68.016469 
L 155.085073 69.283601 
L 161.183071 70.366898 
L 167.281069 71.091253 
L 173.379067 72.392426 
L 179.477065 73.058804 
L 185.575063 73.782431 
L 191.673062 74.592193 
L 197.77106 75.908976 
L 203.869058 75.765541 
L 209.967056 76.916889 
L 216.065054 77.780341 
L 222.163052 78.426778 
L 228.261051 79.769219 
L 234.359049 80.081381 
L 240.457047 81.136817 
L 246.555045 81.822538 
L 252.653043 83.015393 
L 258.751041 83.935825 
L 264.849039 84.185364 
L 270.947038 84.714815 
L 277.045036 86.945669 
L 283.143034 86.887526 
L 289.241032 87.759567 
L 295.33903 88.491097 
L 301.437028 88.679758 
L 307.535027 90.806778 
L 313.633025 91.123004 
L 319.731023 91.6942 
L 325.829021 92.94457 
L 331.927019 93.951082 
L 338.025017 94.658312 
L 344.123016 95.533164 
L 350.221014 96.240118 
L 356.319012 96.965089 
L 362.41701 98.167319 
L 368.515008 98.825199 
L 374.613006 99.185939 
L 380.711005 100.973043 
L 386.809003 101.411482 
L 392.907001 102.631362 
L 399.004999 103.95583 
L 405.102997 104.34002 
L 411.200995 105.54537 
L 417.298994 105.873855 
L 423.396992 107.91121 
L 429.49499 109.074772 
L 435.592988 110.297405 
L 441.690986 111.069659 
L 447.788984 111.664213 
L 453.886983 112.672675 
L 459.984981 113.205966 
L 466.082979 114.483595 
L 472.180977 115.860123 
L 478.278975 116.269305 
L 484.376973 118.076097 
L 490.474972 119.000431 
L 496.57297 119.688246 
L 502.670968 121.476305 
L 508.768966 122.79733 
L 514.866964 125.061166 
L 520.964962 124.693828 
L 527.062961 125.135634 
L 533.160959 126.955428 
L 539.258957 128.117168 
L 545.356955 128.796164 
L 551.454953 129.697445 
L 557.552951 131.972649 
L 563.650949 132.82622 
L 569.748948 133.680633 
L 575.846946 134.261699 
L 581.944944 135.367896 
L 588.042942 137.249212 
L 594.14094 138.811108 
L 600.238938 139.060921 
L 606.336937 141.341397 
L 612.434935 142.034347 
L 618.532933 144.01491 
L 624.630931 144.309124 
L 630.728929 145.936735 
L 636.826927 146.588726 
L 642.924926 147.276129 
L 649.022924 148.804117 
L 655.120922 150.544874 
L 661.21892 150.983538 
L 667.316918 152.930567 
L 673.414916 153.40341 
L 679.512915 154.548631 
L 685.610913 156.941496 
L 691.708911 156.716638 
L 697.806909 158.632806 
" clip-path="url(#p8988aba6f6)" style="fill: none; stroke: #c7e9c0; stroke-opacity: 0.8; stroke-width: 1.5; stroke-linecap: square"/>
   </g>
   <g id="line2d_33">
    <path d="M 94.105091 62.147193 
L 100.203089 65.513271 
L 106.301087 66.903613 
L 112.399085 68.122525 
L 118.497084 72.887187 
L 124.595082 72.121497 
L 130.69308 73.699986 
L 136.791078 75.733835 
L 142.889076 77.522386 
L 148.987074 79.441939 
L 155.085073 80.055743 
L 161.183071 81.192371 
L 167.281069 83.01251 
L 173.379067 85.11749 
L 179.477065 85.663739 
L 185.575063 88.331795 
L 191.673062 90.019968 
L 197.77106 90.746032 
L 203.869058 91.892414 
L 209.967056 94.005638 
L 216.065054 95.547391 
L 222.163052 97.338005 
L 228.261051 98.550328 
L 234.359049 100.433979 
L 240.457047 102.121584 
L 246.555045 103.175031 
L 252.653043 105.187467 
L 258.751041 106.16507 
L 264.849039 107.307255 
L 270.947038 108.485726 
L 277.045036 110.66432 
L 283.143034 111.909712 
L 289.241032 112.736036 
L 295.33903 115.341572 
L 301.437028 115.392471 
L 307.535027 116.944084 
L 313.633025 118.682671 
L 319.731023 121.086865 
L 325.829021 121.249708 
L 331.927019 123.439411 
L 338.025017 125.319491 
L 344.123016 125.411582 
L 350.221014 127.372259 
L 356.319012 127.57803 
L 362.41701 129.836662 
L 368.515008 130.358967 
L 374.613006 132.317626 
L 380.711005 133.95975 
L 386.809003 135.344779 
L 392.907001 136.724217 
L 399.004999 138.291083 
L 405.102997 139.409747 
L 411.200995 140.34542 
L 417.298994 142.351562 
L 423.396992 143.697491 
L 429.49499 145.174397 
L 435.592988 146.359768 
L 441.690986 148.281541 
L 447.788984 148.994686 
L 453.886983 150.991099 
L 459.984981 151.858745 
L 466.082979 153.228423 
L 472.180977 154.290084 
L 478.278975 156.043682 
L 484.376973 156.609287 
L 490.474972 158.320069 
L 496.57297 159.182826 
L 502.670968 160.983888 
L 508.768966 162.158871 
L 514.866964 163.158002 
L 520.964962 165.095992 
L 527.062961 165.181934 
L 533.160959 168.424081 
L 539.258957 168.978592 
L 545.356955 169.624137 
L 551.454953 171.630674 
L 557.552951 172.813662 
L 563.650949 173.803951 
L 569.748948 174.903378 
L 575.846946 175.713376 
L 581.944944 176.321326 
L 588.042942 178.429792 
L 594.14094 179.161349 
L 600.238938 180.079246 
L 606.336937 181.880813 
L 612.434935 183.148046 
L 618.532933 184.653107 
L 624.630931 185.311268 
L 630.728929 186.673279 
L 636.826927 188.797421 
L 642.924926 189.201339 
L 649.022924 190.361204 
L 655.120922 192.304096 
L 661.21892 192.51237 
L 667.316918 194.525758 
L 673.414916 195.307784 
L 679.512915 195.733538 
L 685.610913 196.782749 
L 691.708911 198.703011 
L 697.806909 199.196155 
" clip-path="url(#p8988aba6f6)" style="fill: none; stroke: #74c476; stroke-opacity: 0.8; stroke-width: 1.5; stroke-linecap: square"/>
   </g>
   <g id="line2d_34">
    <path d="M 94.105091 62.147193 
L 100.203089 65.513271 
L 106.301087 66.903613 
L 112.399085 68.122525 
L 118.497084 72.887187 
L 124.595082 72.121497 
L 130.69308 73.699986 
L 136.791078 75.733835 
L 142.889076 77.522386 
L 148.987074 79.441939 
L 155.085073 80.055743 
L 161.183071 81.192371 
L 167.281069 83.01251 
L 173.379067 85.11749 
L 179.477065 85.663739 
L 185.575063 88.331795 
L 191.673062 90.019968 
L 197.77106 90.746032 
L 203.869058 91.892414 
L 209.967056 94.005638 
L 216.065054 95.547391 
L 222.163052 97.338005 
L 228.261051 98.550328 
L 234.359049 100.433979 
L 240.457047 102.121584 
L 246.555045 103.175031 
L 252.653043 105.187467 
L 258.751041 106.16507 
L 264.849039 107.307255 
L 270.947038 108.485726 
L 277.045036 110.66432 
L 283.143034 111.909712 
L 289.241032 112.736036 
L 295.33903 115.341572 
L 301.437028 115.392471 
L 307.535027 116.944084 
L 313.633025 118.682671 
L 319.731023 121.086865 
L 325.829021 121.249708 
L 331.927019 123.439411 
L 338.025017 125.319491 
L 344.123016 125.411582 
L 350.221014 127.372259 
L 356.319012 127.57803 
L 362.41701 129.836662 
L 368.515008 130.358967 
L 374.613006 132.317626 
L 380.711005 133.95975 
L 386.809003 135.344779 
L 392.907001 136.724217 
L 399.004999 138.291083 
L 405.102997 139.409747 
L 411.200995 140.34542 
L 417.298994 142.351562 
L 423.396992 143.697491 
L 429.49499 145.174397 
L 435.592988 146.359768 
L 441.690986 148.281541 
L 447.788984 148.994686 
L 453.886983 150.991099 
L 459.984981 151.858745 
L 466.082979 153.228423 
L 472.180977 154.290084 
L 478.278975 156.043682 
L 484.376973 156.609287 
L 490.474972 158.320069 
L 496.57297 159.182826 
L 502.670968 160.983888 
L 508.768966 162.158871 
L 514.866964 163.158002 
L 520.964962 165.095992 
L 527.062961 165.181934 
L 533.160959 168.424081 
L 539.258957 168.978592 
L 545.356955 169.624137 
L 551.454953 171.630674 
L 557.552951 172.813662 
L 563.650949 173.803951 
L 569.748948 174.903378 
L 575.846946 175.713376 
L 581.944944 176.321326 
L 588.042942 178.429792 
L 594.14094 179.161349 
L 600.238938 180.079246 
L 606.336937 181.880813 
L 612.434935 183.148046 
L 618.532933 184.653107 
L 624.630931 185.311268 
L 630.728929 186.673279 
L 636.826927 188.797421 
L 642.924926 189.201339 
L 649.022924 190.361204 
L 655.120922 192.304096 
L 661.21892 192.51237 
L 667.316918 194.525758 
L 673.414916 195.307784 
L 679.512915 195.733538 
L 685.610913 196.782749 
L 691.708911 198.703011 
L 697.806909 199.196155 
" clip-path="url(#p8988aba6f6)" style="fill: none; stroke: #238b45; stroke-opacity: 0.8; stroke-width: 1.5; stroke-linecap: square"/>
   </g>
   <g id="line2d_35">
    <path d="M 94.105091 64.532224 
L 100.203089 67.901471 
L 106.301087 68.209234 
L 112.399085 69.147272 
L 118.497084 68.983022 
L 124.595082 69.153008 
L 130.69308 69.933211 
L 136.791078 70.309187 
L 142.889076 70.484541 
L 148.987074 71.542842 
L 155.085073 71.763592 
L 161.183071 72.251334 
L 167.281069 72.906162 
L 173.379067 72.473459 
L 179.477065 73.596092 
L 185.575063 74.708437 
L 191.673062 74.534961 
L 197.77106 74.621431 
L 203.869058 75.707077 
L 209.967056 75.944302 
L 216.065054 76.411176 
L 222.163052 76.949184 
L 228.261051 77.744446 
L 234.359049 78.175048 
L 240.457047 79.126532 
L 246.555045 79.304108 
L 252.653043 80.121542 
L 258.751041 80.532939 
L 264.849039 80.183294 
L 270.947038 81.246382 
L 277.045036 82.258102 
L 283.143034 82.556419 
L 289.241032 82.708564 
L 295.33903 83.871867 
L 301.437028 84.482937 
L 307.535027 84.417969 
L 313.633025 85.625665 
L 319.731023 85.350929 
L 325.829021 85.554291 
L 331.927019 86.868318 
L 338.025017 87.142043 
L 344.123016 88.412721 
L 350.221014 88.792946 
L 356.319012 89.919571 
L 362.41701 90.159562 
L 368.515008 91.127886 
L 374.613006 91.394744 
L 380.711005 92.501998 
L 386.809003 93.184859 
L 392.907001 93.592797 
L 399.004999 94.932525 
L 405.102997 95.345602 
L 411.200995 96.093504 
L 417.298994 97.266788 
L 423.396992 97.459791 
L 429.49499 98.215355 
L 435.592988 98.791822 
L 441.690986 99.826486 
L 447.788984 100.144657 
L 453.886983 101.471823 
L 459.984981 101.981657 
L 466.082979 102.773487 
L 472.180977 104.20989 
L 478.278975 105.555365 
L 484.376973 105.844999 
L 490.474972 106.59363 
L 496.57297 107.480016 
L 502.670968 108.257156 
L 508.768966 108.721708 
L 514.866964 110.611594 
L 520.964962 111.564034 
L 527.062961 112.611263 
L 533.160959 113.635529 
L 539.258957 114.825244 
L 545.356955 115.655029 
L 551.454953 115.812639 
L 557.552951 117.58463 
L 563.650949 118.545627 
L 569.748948 120.142423 
L 575.846946 121.117104 
L 581.944944 122.181983 
L 588.042942 123.365959 
L 594.14094 124.486908 
L 600.238938 124.858677 
L 606.336937 125.958609 
L 612.434935 127.023082 
L 618.532933 128.657278 
L 624.630931 129.882935 
L 630.728929 130.5056 
L 636.826927 132.272384 
L 642.924926 133.248582 
L 649.022924 134.612805 
L 655.120922 135.221947 
L 661.21892 136.3305 
L 667.316918 137.941555 
L 673.414916 139.450874 
L 679.512915 140.018564 
L 685.610913 141.323798 
L 691.708911 142.925125 
L 697.806909 143.939686 
" clip-path="url(#p8988aba6f6)" style="fill: none; stroke: #00441b; stroke-opacity: 0.8; stroke-width: 1.5; stroke-linecap: square"/>
   </g>
   <g id="line2d_36">
    <path d="M 94.105091 62.341196 
L 100.203089 64.884562 
L 106.301087 71.324615 
L 112.399085 73.311054 
L 118.497084 77.634257 
L 124.595082 83.013264 
L 130.69308 88.642031 
L 136.791078 96.163392 
L 142.889076 107.211217 
L 148.987074 113.94286 
L 155.085073 126.85617 
L 161.183071 138.138812 
L 167.281069 150.907091 
L 173.379067 164.569592 
L 179.477065 177.083268 
L 185.575063 188.863643 
L 191.673062 200.973266 
L 197.77106 212.806081 
L 203.869058 223.533192 
L 209.967056 235.519814 
L 216.065054 243.936531 
L 222.163052 253.184322 
L 228.261051 263.34709 
L 234.359049 270.793517 
L 240.457047 280.448752 
L 246.555045 288.987196 
L 252.653043 297.220779 
L 258.751041 304.401151 
L 264.849039 310.518703 
L 270.947038 317.271979 
L 277.045036 325.258608 
L 283.143034 331.643791 
L 289.241032 337.116301 
L 295.33903 343.498624 
L 301.437028 348.07059 
L 307.535027 354.703836 
L 313.633025 359.158354 
L 319.731023 364.236557 
L 325.829021 369.756505 
L 331.927019 373.941902 
L 338.025017 379.093073 
L 344.123016 385.267362 
L 350.221014 388.855608 
L 356.319012 393.824235 
L 362.41701 398.46547 
L 368.515008 403.319923 
L 374.613006 407.383388 
L 380.711005 411.585129 
L 386.809003 415.021342 
L 392.907001 420.004396 
L 399.004999 424.414105 
L 405.102997 427.273635 
L 411.200995 432.663387 
L 417.298994 435.94517 
L 423.396992 440.490069 
L 429.49499 443.812877 
L 435.592988 446.625016 
L 441.690986 451.829074 
L 447.788984 456.357351 
L 453.886983 459.181987 
L 459.984981 463.082856 
L 466.082979 465.83809 
L 472.180977 469.815828 
L 478.278975 472.545849 
L 484.376973 477.590444 
L 490.474972 479.370904 
L 496.57297 483.676627 
L 502.670968 487.162355 
L 508.768966 490.487391 
L 514.866964 494.513229 
L 520.964962 497.080042 
L 527.062961 499.306694 
L 533.160959 503.545239 
L 539.258957 506.714662 
L 545.356955 508.991573 
L 551.454953 512.625373 
L 557.552951 515.412565 
L 563.650949 518.701239 
L 569.748948 521.009521 
L 575.846946 523.889135 
L 581.944944 526.419258 
L 588.042942 530.326184 
L 594.14094 531.537342 
L 600.238938 534.358074 
L 606.336937 538.190749 
L 612.434935 540.927061 
L 618.532933 543.841231 
L 624.630931 546.507946 
L 630.728929 548.647626 
L 636.826927 550.991578 
L 642.924926 552.217981 
L 649.022924 556.078788 
L 655.120922 557.854825 
L 661.21892 559.177973 
L 667.316918 563.514516 
L 673.414916 565.29502 
L 679.512915 568.158957 
L 685.610913 569.974534 
L 691.708911 572.394838 
L 697.806909 574.510909 
" clip-path="url(#p8988aba6f6)" style="fill: none; stroke: #fff5eb; stroke-opacity: 0.9; stroke-width: 1.5; stroke-linecap: square"/>
   </g>
   <g id="line2d_37">
    <path d="M 94.105091 62.341196 
L 100.203089 64.884562 
L 106.301087 71.324615 
L 112.399085 73.311054 
L 118.497084 77.634257 
L 124.595082 83.013264 
L 130.69308 88.642031 
L 136.791078 96.163392 
L 142.889076 107.211217 
L 148.987074 113.94286 
L 155.085073 126.85617 
L 161.183071 138.138812 
L 167.281069 150.907091 
L 173.379067 164.569592 
L 179.477065 177.083268 
L 185.575063 188.863643 
L 191.673062 200.973266 
L 197.77106 212.806081 
L 203.869058 223.533192 
L 209.967056 235.519814 
L 216.065054 243.936531 
L 222.163052 253.184322 
L 228.261051 263.34709 
L 234.359049 270.793517 
L 240.457047 280.448752 
L 246.555045 288.987196 
L 252.653043 297.220779 
L 258.751041 304.401151 
L 264.849039 310.518703 
L 270.947038 317.271979 
L 277.045036 325.258608 
L 283.143034 331.643791 
L 289.241032 337.116301 
L 295.33903 343.498624 
L 301.437028 348.07059 
L 307.535027 354.703836 
L 313.633025 359.158354 
L 319.731023 364.236557 
L 325.829021 369.756505 
L 331.927019 373.941902 
L 338.025017 379.093073 
L 344.123016 385.267362 
L 350.221014 388.855608 
L 356.319012 393.824235 
L 362.41701 398.46547 
L 368.515008 403.319923 
L 374.613006 407.383388 
L 380.711005 411.585129 
L 386.809003 415.021342 
L 392.907001 420.004396 
L 399.004999 424.414105 
L 405.102997 427.273635 
L 411.200995 432.663387 
L 417.298994 435.94517 
L 423.396992 440.490069 
L 429.49499 443.812877 
L 435.592988 446.625016 
L 441.690986 451.829074 
L 447.788984 456.357351 
L 453.886983 459.181987 
L 459.984981 463.082856 
L 466.082979 465.83809 
L 472.180977 469.815828 
L 478.278975 472.545849 
L 484.376973 477.590444 
L 490.474972 479.370904 
L 496.57297 483.676627 
L 502.670968 487.162355 
L 508.768966 490.487391 
L 514.866964 494.513229 
L 520.964962 497.080042 
L 527.062961 499.306694 
L 533.160959 503.545239 
L 539.258957 506.714662 
L 545.356955 508.991573 
L 551.454953 512.625373 
L 557.552951 515.412565 
L 563.650949 518.701239 
L 569.748948 521.009521 
L 575.846946 523.889135 
L 581.944944 526.419258 
L 588.042942 530.326184 
L 594.14094 531.537342 
L 600.238938 534.358074 
L 606.336937 538.190749 
L 612.434935 540.927061 
L 618.532933 543.841231 
L 624.630931 546.507946 
L 630.728929 548.647626 
L 636.826927 550.991578 
L 642.924926 552.217981 
L 649.022924 556.078788 
L 655.120922 557.854825 
L 661.21892 559.177973 
L 667.316918 563.514516 
L 673.414916 565.29502 
L 679.512915 568.158957 
L 685.610913 569.974534 
L 691.708911 572.394838 
L 697.806909 574.510909 
" clip-path="url(#p8988aba6f6)" style="fill: none; stroke: #fdd0a2; stroke-opacity: 0.9; stroke-width: 1.5; stroke-linecap: square"/>
   </g>
   <g id="line2d_38">
    <path d="M 94.105091 59.129091 
L 100.203089 67.07036 
L 106.301087 78.08806 
L 112.399085 84.662271 
L 118.497084 93.321108 
L 124.595082 103.090836 
L 130.69308 112.614749 
L 136.791078 123.982142 
L 142.889076 137.973361 
L 148.987074 146.443753 
L 155.085073 160.190486 
L 161.183071 171.866261 
L 167.281069 183.290106 
L 173.379067 195.039969 
L 179.477065 205.714272 
L 185.575063 215.281955 
L 191.673062 225.017993 
L 197.77106 233.739231 
L 203.869058 243.015501 
L 209.967056 253.036055 
L 216.065054 258.908954 
L 222.163052 266.207473 
L 228.261051 274.85803 
L 234.359049 280.126124 
L 240.457047 288.607668 
L 246.555045 295.661926 
L 252.653043 302.25985 
L 258.751041 307.95198 
L 264.849039 312.935394 
L 270.947038 318.620994 
L 277.045036 325.313066 
L 283.143034 330.530825 
L 289.241032 334.429625 
L 295.33903 340.445664 
L 301.437028 344.409336 
L 307.535027 350.312628 
L 313.633025 354.295314 
L 319.731023 358.705953 
L 325.829021 363.244468 
L 331.927019 366.926613 
L 338.025017 371.350028 
L 344.123016 377.161088 
L 350.221014 380.245848 
L 356.319012 384.54934 
L 362.41701 388.529473 
L 368.515008 393.291573 
L 374.613006 396.394713 
L 380.711005 400.416869 
L 386.809003 403.875176 
L 392.907001 408.300779 
L 399.004999 412.293529 
L 405.102997 414.738545 
L 411.200995 419.68184 
L 417.298994 422.597985 
L 423.396992 426.737702 
L 429.49499 429.977563 
L 435.592988 432.802558 
L 441.690986 437.31549 
L 447.788984 441.441041 
L 453.886983 443.687076 
L 459.984981 447.547404 
L 466.082979 449.898786 
L 472.180977 453.765265 
L 478.278975 456.164002 
L 484.376973 461.173962 
L 490.474972 463.19416 
L 496.57297 466.776864 
L 502.670968 470.147508 
L 508.768966 473.633786 
L 514.866964 477.172016 
L 520.964962 479.674902 
L 527.062961 481.513423 
L 533.160959 485.715495 
L 539.258957 488.748147 
L 545.356955 490.897869 
L 551.454953 494.439745 
L 557.552951 497.109205 
L 563.650949 500.124417 
L 569.748948 502.505197 
L 575.846946 505.230416 
L 581.944944 507.527399 
L 588.042942 511.538973 
L 594.14094 512.5163 
L 600.238938 515.542582 
L 606.336937 519.251465 
L 612.434935 521.822289 
L 618.532933 524.74125 
L 624.630931 527.317231 
L 630.728929 529.574985 
L 636.826927 531.929375 
L 642.924926 533.103975 
L 649.022924 536.926673 
L 655.120922 538.921826 
L 661.21892 539.925236 
L 667.316918 544.221871 
L 673.414916 545.343626 
L 679.512915 548.991632 
L 685.610913 550.955411 
L 691.708911 553.169312 
L 697.806909 555.453983 
" clip-path="url(#p8988aba6f6)" style="fill: none; stroke: #fd8d3c; stroke-opacity: 0.9; stroke-width: 1.5; stroke-linecap: square"/>
   </g>
   <g id="line2d_39">
    <path d="M 94.105091 59.129091 
L 100.203089 67.07036 
L 106.301087 78.08806 
L 112.399085 84.662271 
L 118.497084 93.321108 
L 124.595082 103.090836 
L 130.69308 112.614749 
L 136.791078 123.982142 
L 142.889076 137.973361 
L 148.987074 146.443753 
L 155.085073 160.190486 
L 161.183071 171.866261 
L 167.281069 183.290106 
L 173.379067 195.039969 
L 179.477065 205.714272 
L 185.575063 215.281955 
L 191.673062 225.017993 
L 197.77106 233.739231 
L 203.869058 243.015501 
L 209.967056 253.036055 
L 216.065054 258.908954 
L 222.163052 266.207473 
L 228.261051 274.85803 
L 234.359049 280.126124 
L 240.457047 288.607668 
L 246.555045 295.661926 
L 252.653043 302.25985 
L 258.751041 307.95198 
L 264.849039 312.935394 
L 270.947038 318.620994 
L 277.045036 325.313066 
L 283.143034 330.530825 
L 289.241032 334.429625 
L 295.33903 340.445664 
L 301.437028 344.409336 
L 307.535027 350.312628 
L 313.633025 354.295314 
L 319.731023 358.705953 
L 325.829021 363.244468 
L 331.927019 366.926613 
L 338.025017 371.350028 
L 344.123016 377.161088 
L 350.221014 380.245848 
L 356.319012 384.54934 
L 362.41701 388.529473 
L 368.515008 393.291573 
L 374.613006 396.394713 
L 380.711005 400.416869 
L 386.809003 403.875176 
L 392.907001 408.300779 
L 399.004999 412.293529 
L 405.102997 414.738545 
L 411.200995 419.68184 
L 417.298994 422.597985 
L 423.396992 426.737702 
L 429.49499 429.977563 
L 435.592988 432.802558 
L 441.690986 437.31549 
L 447.788984 441.441041 
L 453.886983 443.687076 
L 459.984981 447.547404 
L 466.082979 449.898786 
L 472.180977 453.765265 
L 478.278975 456.164002 
L 484.376973 461.173962 
L 490.474972 463.19416 
L 496.57297 466.776864 
L 502.670968 470.147508 
L 508.768966 473.633786 
L 514.866964 477.172016 
L 520.964962 479.674902 
L 527.062961 481.513423 
L 533.160959 485.715495 
L 539.258957 488.748147 
L 545.356955 490.897869 
L 551.454953 494.439745 
L 557.552951 497.109205 
L 563.650949 500.124417 
L 569.748948 502.505197 
L 575.846946 505.230416 
L 581.944944 507.527399 
L 588.042942 511.538973 
L 594.14094 512.5163 
L 600.238938 515.542582 
L 606.336937 519.251465 
L 612.434935 521.822289 
L 618.532933 524.74125 
L 624.630931 527.317231 
L 630.728929 529.574985 
L 636.826927 531.929375 
L 642.924926 533.103975 
L 649.022924 536.926673 
L 655.120922 538.921826 
L 661.21892 539.925236 
L 667.316918 544.221871 
L 673.414916 545.343626 
L 679.512915 548.991632 
L 685.610913 550.955411 
L 691.708911 553.169312 
L 697.806909 555.453983 
" clip-path="url(#p8988aba6f6)" style="fill: none; stroke: #d94801; stroke-opacity: 0.9; stroke-width: 1.5; stroke-linecap: square"/>
   </g>
   <g id="line2d_40">
    <path d="M 94.105091 65.628522 
L 100.203089 66.389268 
L 106.301087 68.722601 
L 112.399085 69.189842 
L 118.497084 70.765915 
L 124.595082 72.341905 
L 130.69308 75.329897 
L 136.791078 77.100937 
L 142.889076 81.096881 
L 148.987074 81.405232 
L 155.085073 84.548897 
L 161.183071 87.162166 
L 167.281069 90.144787 
L 173.379067 94.739693 
L 179.477065 98.01884 
L 185.575063 101.149631 
L 191.673062 105.828465 
L 197.77106 111.791673 
L 203.869058 115.83985 
L 209.967056 122.358361 
L 216.065054 126.248774 
L 222.163052 131.433514 
L 228.261051 137.9864 
L 234.359049 144.448145 
L 240.457047 150.751525 
L 246.555045 158.009492 
L 252.653043 163.788306 
L 258.751041 169.967358 
L 264.849039 176.340305 
L 270.947038 181.838595 
L 277.045036 190.067921 
L 283.143034 194.636109 
L 289.241032 200.758804 
L 295.33903 207.697625 
L 301.437028 211.595595 
L 307.535027 218.915513 
L 313.633025 224.204214 
L 319.731023 229.072717 
L 325.829021 234.371453 
L 331.927019 239.126466 
L 338.025017 244.480179 
L 344.123016 249.664644 
L 350.221014 253.877851 
L 356.319012 258.877717 
L 362.41701 263.353249 
L 368.515008 268.060316 
L 374.613006 272.450322 
L 380.711005 277.305332 
L 386.809003 281.001145 
L 392.907001 285.141501 
L 399.004999 289.638951 
L 405.102997 292.832436 
L 411.200995 296.677009 
L 417.298994 300.494671 
L 423.396992 305.068686 
L 429.49499 309.101174 
L 435.592988 312.667907 
L 441.690986 315.698077 
L 447.788984 319.231964 
L 453.886983 322.8347 
L 459.984981 325.638133 
L 466.082979 329.062806 
L 472.180977 331.734015 
L 478.278975 334.723856 
L 484.376973 338.654036 
L 490.474972 341.062164 
L 496.57297 343.987866 
L 502.670968 347.132226 
L 508.768966 349.470219 
L 514.866964 353.639579 
L 520.964962 355.398983 
L 527.062961 358.486232 
L 533.160959 361.582694 
L 539.258957 364.2719 
L 545.356955 365.585913 
L 551.454953 368.7288 
L 557.552951 371.582554 
L 563.650949 374.020047 
L 569.748948 376.272677 
L 575.846946 379.248201 
L 581.944944 380.563912 
L 588.042942 383.403429 
L 594.14094 386.256174 
L 600.238938 388.31672 
L 606.336937 391.183826 
L 612.434935 393.875613 
L 618.532933 396.357171 
L 624.630931 397.603899 
L 630.728929 399.771338 
L 636.826927 402.182203 
L 642.924926 404.557722 
L 649.022924 406.749103 
L 655.120922 408.986869 
L 661.21892 410.933335 
L 667.316918 413.364605 
L 673.414916 416.135123 
L 679.512915 417.424477 
L 685.610913 419.527595 
L 691.708911 421.414183 
L 697.806909 423.888996 
" clip-path="url(#p8988aba6f6)" style="fill: none; stroke: #7f2704; stroke-opacity: 0.9; stroke-width: 1.5; stroke-linecap: square"/>
   </g>
   <g id="patch_3">
    <path d="M 63.92 600.28 
L 63.92 33.36 
" style="fill: none; stroke: #000000; stroke-width: 0.8; stroke-linejoin: miter; stroke-linecap: square"/>
   </g>
   <g id="patch_4">
    <path d="M 727.992 600.28 
L 727.992 33.36 
" style="fill: none; stroke: #000000; stroke-width: 0.8; stroke-linejoin: miter; stroke-linecap: square"/>
   </g>
   <g id="patch_5">
    <path d="M 63.92 600.28 
L 727.992 600.28 
" style="fill: none; stroke: #000000; stroke-width: 0.8; stroke-linejoin: miter; stroke-linecap: square"/>
   </g>
   <g id="patch_6">
    <path d="M 63.92 33.36 
L 727.992 33.36 
" style="fill: none; stroke: #000000; stroke-width: 0.8; stroke-linejoin: miter; stroke-linecap: square"/>
   </g>
   <g id="text_18">
    <!-- Curvas de Convergencia Comparativas (MSE vs. Época) - Impacto del Learning Rate -->
    <g transform="translate(17.864594 27.36) scale(0.18 -0.18)">
     <defs>
      <path id="DejaVuSans-76" d="M 191 3500 
L 800 3500 
L 1894 563 
L 2988 3500 
L 3597 3500 
L 2284 0 
L 1503 0 
L 191 3500 
z
" transform="scale(0.015625)"/>
      <path id="DejaVuSans-73" d="M 2834 3397 
L 2834 2853 
Q 2591 2978 2328 3040 
Q 2066 3103 1784 3103 
Q 1356 3103 1142 2972 
Q 928 2841 928 2578 
Q 928 2378 1081 2264 
Q 1234 2150 1697 2047 
L 1894 2003 
Q 2506 1872 2764 1633 
Q 3022 1394 3022 966 
Q 3022 478 2636 193 
Q 2250 -91 1575 -91 
Q 1294 -91 989 -36 
Q 684 19 347 128 
L 347 722 
Q 666 556 975 473 
Q 1284 391 1588 391 
Q 1994 391 2212 530 
Q 2431 669 2431 922 
Q 2431 1156 2273 1281 
Q 2116 1406 1581 1522 
L 1381 1569 
Q 847 1681 609 1914 
Q 372 2147 372 2553 
Q 372 3047 722 3315 
Q 1072 3584 1716 3584 
Q 2034 3584 2315 3537 
Q 2597 3491 2834 3397 
z
" transform="scale(0.015625)"/>
      <path id="DejaVuSans-6e" d="M 3513 2113 
L 3513 0 
L 2938 0 
L 2938 2094 
Q 2938 2591 2744 2837 
Q 2550 3084 2163 3084 
Q 1697 3084 1428 2787 
Q 1159 2491 1159 1978 
L 1159 0 
L 581 0 
L 581 3500 
L 1159 3500 
L 1159 2956 
Q 1366 3272 1645 3428 
Q 1925 3584 2291 3584 
Q 2894 3584 3203 3211 
Q 3513 2838 3513 2113 
z
" transform="scale(0.015625)"/>
      <path id="DejaVuSans-67" d="M 2906 1791 
Q 2906 2416 2648 2759 
Q 2391 3103 1925 3103 
Q 1463 3103 1205 2759 
Q 947 2416 947 1791 
Q 947 1169 1205 825 
Q 1463 481 1925 481 
Q 2391 481 2648 825 
Q 2906 1169 2906 1791 
z
M 3481 434 
Q 3481 -459 3084 -895 
Q 2688 -1331 1869 -1331 
Q 1566 -1331 1297 -1286 
Q 1028 -1241 775 -1147 
L 775 -588 
Q 1028 -725 1275 -790 
Q 1522 -856 1778 -856 
Q 2344 -856 2625 -561 
Q 2906 -266 2906 331 
L 2906 616 
Q 2728 306 2450 153 
Q 2172 0 1784 0 
Q 1141 0 747 490 
Q 353 981 353 1791 
Q 353 2603 747 3093 
Q 1141 3584 1784 3584 
Q 2172 3584 2450 3431 
Q 2728 3278 2906 2969 
L 2906 3500 
L 3481 3500 
L 3481 434 
z
" transform="scale(0.015625)"/>
      <path id="DejaVuSans-6d" d="M 3328 2828 
Q 3544 3216 3844 3400 
Q 4144 3584 4550 3584 
Q 5097 3584 5394 3201 
Q 5691 2819 5691 2113 
L 5691 0 
L 5113 0 
L 5113 2094 
Q 5113 2597 4934 2840 
Q 4756 3084 4391 3084 
Q 3944 3084 3684 2787 
Q 3425 2491 3425 1978 
L 3425 0 
L 2847 0 
L 2847 2094 
Q 2847 2600 2669 2842 
Q 2491 3084 2119 3084 
Q 1678 3084 1418 2786 
Q 1159 2488 1159 1978 
L 1159 0 
L 581 0 
L 581 3500 
L 1159 3500 
L 1159 2956 
Q 1356 3278 1631 3431 
Q 1906 3584 2284 3584 
Q 2666 3584 2933 3390 
Q 3200 3197 3328 2828 
z
" transform="scale(0.015625)"/>
      <path id="DejaVuSans-2d" d="M 313 2009 
L 1997 2009 
L 1997 1497 
L 313 1497 
L 313 2009 
z
" transform="scale(0.015625)"/>
      <path id="DejaVuSans-49" d="M 628 4666 
L 1259 4666 
L 1259 0 
L 628 0 
L 628 4666 
z
" transform="scale(0.015625)"/>
      <path id="DejaVuSans-6c" d="M 603 4863 
L 1178 4863 
L 1178 0 
L 603 0 
L 603 4863 
z
" transform="scale(0.015625)"/>
      <path id="DejaVuSans-4c" d="M 628 4666 
L 1259 4666 
L 1259 531 
L 3531 531 
L 3531 0 
L 628 0 
L 628 4666 
z
" transform="scale(0.015625)"/>
      <path id="DejaVuSans-52" d="M 2841 2188 
Q 3044 2119 3236 1894 
Q 3428 1669 3622 1275 
L 4263 0 
L 3584 0 
L 2988 1197 
Q 2756 1666 2539 1819 
Q 2322 1972 1947 1972 
L 1259 1972 
L 1259 0 
L 628 0 
L 628 4666 
L 2053 4666 
Q 2853 4666 3247 4331 
Q 3641 3997 3641 3322 
Q 3641 2881 3436 2590 
Q 3231 2300 2841 2188 
z
M 1259 4147 
L 1259 2491 
L 2053 2491 
Q 2509 2491 2742 2702 
Q 2975 2913 2975 3322 
Q 2975 3731 2742 3939 
Q 2509 4147 2053 4147 
L 1259 4147 
z
" transform="scale(0.015625)"/>
     </defs>
     <use xlink:href="#DejaVuSans-43"/>
     <use xlink:href="#DejaVuSans-75" transform="translate(69.824219 0)"/>
     <use xlink:href="#DejaVuSans-72" transform="translate(133.203125 0)"/>
     <use xlink:href="#DejaVuSans-76" transform="translate(174.316406 0)"/>
     <use xlink:href="#DejaVuSans-61" transform="translate(233.496094 0)"/>
     <use xlink:href="#DejaVuSans-73" transform="translate(294.775391 0)"/>
     <use xlink:href="#DejaVuSans-20" transform="translate(346.875 0)"/>
     <use xlink:href="#DejaVuSans-64" transform="translate(378.662109 0)"/>
     <use xlink:href="#DejaVuSans-65" transform="translate(442.138672 0)"/>
     <use xlink:href="#DejaVuSans-20" transform="translate(503.662109 0)"/>
     <use xlink:href="#DejaVuSans-43" transform="translate(535.449219 0)"/>
     <use xlink:href="#DejaVuSans-6f" transform="translate(605.273438 0)"/>
     <use xlink:href="#DejaVuSans-6e" transform="translate(666.455078 0)"/>
     <use xlink:href="#DejaVuSans-76" transform="translate(729.833984 0)"/>
     <use xlink:href="#DejaVuSans-65" transform="translate(789.013672 0)"/>
     <use xlink:href="#DejaVuSans-72" transform="translate(850.537109 0)"/>
     <use xlink:href="#DejaVuSans-67" transform="translate(889.900391 0)"/>
     <use xlink:href="#DejaVuSans-65" transform="translate(953.376953 0)"/>
     <use xlink:href="#DejaVuSans-6e" transform="translate(1014.900391 0)"/>
     <use xlink:href="#DejaVuSans-63" transform="translate(1078.279297 0)"/>
     <use xlink:href="#DejaVuSans-69" transform="translate(1133.259766 0)"/>
     <use xlink:href="#DejaVuSans-61" transform="translate(1161.042969 0)"/>
     <use xlink:href="#DejaVuSans-20" transform="translate(1222.322266 0)"/>
     <use xlink:href="#DejaVuSans-43" transform="translate(1254.109375 0)"/>
     <use xlink:href="#DejaVuSans-6f" transform="translate(1323.933594 0)"/>
     <use xlink:href="#DejaVuSans-6d" transform="translate(1385.115234 0)"/>
     <use xlink:href="#DejaVuSans-70" transform="translate(1482.527344 0)"/>
     <use xlink:href="#DejaVuSans-61" transform="translate(1546.003906 0)"/>
     <use xlink:href="#DejaVuSans-72" transform="translate(1607.283203 0)"/>
     <use xlink:href="#DejaVuSans-61" transform="translate(1648.396484 0)"/>
     <use xlink:href="#DejaVuSans-74" transform="translate(1709.675781 0)"/>
     <use xlink:href="#DejaVuSans-69" transform="translate(1748.884766 0)"/>
     <use xlink:href="#DejaVuSans-76" transform="translate(1776.667969 0)"/>
     <use xlink:href="#DejaVuSans-61" transform="translate(1835.847656 0)"/>
     <use xlink:href="#DejaVuSans-73" transform="translate(1897.126953 0)"/>
     <use xlink:href="#DejaVuSans-20" transform="translate(1949.226562 0)"/>
     <use xlink:href="#DejaVuSans-28" transform="translate(1981.013672 0)"/>
     <use xlink:href="#DejaVuSans-4d" transform="translate(2020.027344 0)"/>
     <use xlink:href="#DejaVuSans-53" transform="translate(2106.306641 0)"/>
     <use xlink:href="#DejaVuSans-45" transform="translate(2169.783203 0)"/>
     <use xlink:href="#DejaVuSans-20" transform="translate(2232.966797 0)"/>
     <use xlink:href="#DejaVuSans-76" transform="translate(2264.753906 0)"/>
     <use xlink:href="#DejaVuSans-73" transform="translate(2323.933594 0)"/>
     <use xlink:href="#DejaVuSans-2e" transform="translate(2376.033203 0)"/>
     <use xlink:href="#DejaVuSans-20" transform="translate(2407.820312 0)"/>
     <use xlink:href="#DejaVuSans-c9" transform="translate(2439.607422 0)"/>
     <use xlink:href="#DejaVuSans-70" transform="translate(2502.791016 0)"/>
     <use xlink:href="#DejaVuSans-6f" transform="translate(2566.267578 0)"/>
     <use xlink:href="#DejaVuSans-63" transform="translate(2627.449219 0)"/>
     <use xlink:href="#DejaVuSans-61" transform="translate(2682.429688 0)"/>
     <use xlink:href="#DejaVuSans-29" transform="translate(2743.708984 0)"/>
     <use xlink:href="#DejaVuSans-20" transform="translate(2782.722656 0)"/>
     <use xlink:href="#DejaVuSans-2d" transform="translate(2814.509766 0)"/>
     <use xlink:href="#DejaVuSans-20" transform="translate(2850.59375 0)"/>
     <use xlink:href="#DejaVuSans-49" transform="translate(2882.380859 0)"/>
     <use xlink:href="#DejaVuSans-6d" transform="translate(2911.873047 0)"/>
     <use xlink:href="#DejaVuSans-70" transform="translate(3009.285156 0)"/>
     <use xlink:href="#DejaVuSans-61" transform="translate(3072.761719 0)"/>
     <use xlink:href="#DejaVuSans-63" transform="translate(3134.041016 0)"/>
     <use xlink:href="#DejaVuSans-74" transform="translate(3189.021484 0)"/>
     <use xlink:href="#DejaVuSans-6f" transform="translate(3228.230469 0)"/>
     <use xlink:href="#DejaVuSans-20" transform="translate(3289.412109 0)"/>
     <use xlink:href="#DejaVuSans-64" transform="translate(3321.199219 0)"/>
     <use xlink:href="#DejaVuSans-65" transform="translate(3384.675781 0)"/>
     <use xlink:href="#DejaVuSans-6c" transform="translate(3446.199219 0)"/>
     <use xlink:href="#DejaVuSans-20" transform="translate(3473.982422 0)"/>
     <use xlink:href="#DejaVuSans-4c" transform="translate(3505.769531 0)"/>
     <use xlink:href="#DejaVuSans-65" transform="translate(3559.732422 0)"/>
     <use xlink:href="#DejaVuSans-61" transform="translate(3621.255859 0)"/>
     <use xlink:href="#DejaVuSans-72" transform="translate(3682.535156 0)"/>
     <use xlink:href="#DejaVuSans-6e" transform="translate(3721.898438 0)"/>
     <use xlink:href="#DejaVuSans-69" transform="translate(3785.277344 0)"/>
     <use xlink:href="#DejaVuSans-6e" transform="translate(3813.060547 0)"/>
     <use xlink:href="#DejaVuSans-67" transform="translate(3876.439453 0)"/>
     <use xlink:href="#DejaVuSans-20" transform="translate(3939.916016 0)"/>
     <use xlink:href="#DejaVuSans-52" transform="translate(3971.703125 0)"/>
     <use xlink:href="#DejaVuSans-61" transform="translate(4038.935547 0)"/>
     <use xlink:href="#DejaVuSans-74" transform="translate(4100.214844 0)"/>
     <use xlink:href="#DejaVuSans-65" transform="translate(4139.423828 0)"/>
    </g>
   </g>
   <g id="legend_1">
    <g id="patch_7">
     <path d="M 740.93272 441.900781 
L 906.54397 441.900781 
Q 908.34397 441.900781 908.34397 440.100781 
L 908.34397 193.539219 
Q 908.34397 191.739219 906.54397 191.739219 
L 740.93272 191.739219 
Q 739.13272 191.739219 739.13272 193.539219 
L 739.13272 440.100781 
Q 739.13272 441.900781 740.93272 441.900781 
z
" style="fill: #ffffff; opacity: 0.8; stroke: #cccccc; stroke-linejoin: miter"/>
    </g>
    <g id="text_19">
     <!-- Configuración -->
     <g transform="translate(789.040689 203.337656) scale(0.1 -0.1)">
      <defs>
       <path id="DejaVuSans-66" d="M 2375 4863 
L 2375 4384 
L 1825 4384 
Q 1516 4384 1395 4259 
Q 1275 4134 1275 3809 
L 1275 3500 
L 2222 3500 
L 2222 3053 
L 1275 3053 
L 1275 0 
L 697 0 
L 697 3053 
L 147 3053 
L 147 3500 
L 697 3500 
L 697 3744 
Q 697 4328 969 4595 
Q 1241 4863 1831 4863 
L 2375 4863 
z
" transform="scale(0.015625)"/>
       <path id="DejaVuSans-f3" d="M 1959 3097 
Q 1497 3097 1228 2736 
Q 959 2375 959 1747 
Q 959 1119 1226 758 
Q 1494 397 1959 397 
Q 2419 397 2687 759 
Q 2956 1122 2956 1747 
Q 2956 2369 2687 2733 
Q 2419 3097 1959 3097 
z
M 1959 3584 
Q 2709 3584 3137 3096 
Q 3566 2609 3566 1747 
Q 3566 888 3137 398 
Q 2709 -91 1959 -91 
Q 1206 -91 779 398 
Q 353 888 353 1747 
Q 353 2609 779 3096 
Q 1206 3584 1959 3584 
z
M 2394 5119 
L 3016 5119 
L 1998 3944 
L 1519 3944 
L 2394 5119 
z
" transform="scale(0.015625)"/>
      </defs>
      <use xlink:href="#DejaVuSans-43"/>
      <use xlink:href="#DejaVuSans-6f" transform="translate(69.824219 0)"/>
      <use xlink:href="#DejaVuSans-6e" transform="translate(131.005859 0)"/>
      <use xlink:href="#DejaVuSans-66" transform="translate(194.384766 0)"/>
      <use xlink:href="#DejaVuSans-69" transform="translate(229.589844 0)"/>
      <use xlink:href="#DejaVuSans-67" transform="translate(257.373047 0)"/>
      <use xlink:href="#DejaVuSans-75" transform="translate(320.849609 0)"/>
      <use xlink:href="#DejaVuSans-72" transform="translate(384.228516 0)"/>
      <use xlink:href="#DejaVuSans-61" transform="translate(425.341797 0)"/>
      <use xlink:href="#DejaVuSans-63" transform="translate(486.621094 0)"/>
      <use xlink:href="#DejaVuSans-69" transform="translate(541.601562 0)"/>
      <use xlink:href="#DejaVuSans-f3" transform="translate(569.384766 0)"/>
      <use xlink:href="#DejaVuSans-6e" transform="translate(630.566406 0)"/>
     </g>
    </g>
    <g id="line2d_41">
     <path d="M 742.73272 219.580813 
L 751.73272 219.580813 
L 760.73272 219.580813 
" style="fill: none; stroke: #f7fcf5; stroke-opacity: 0.8; stroke-width: 1.5; stroke-linecap: square"/>
    </g>
    <g id="text_20">
     <!-- ID 52 (LR 0.01, F1 Test: 0.474) -->
     <g transform="translate(767.93272 216.755938) scale(0.09 -0.09)">
      <defs>
       <path id="DejaVuSans-44" d="M 1259 4147 
L 1259 519 
L 2022 519 
Q 2988 519 3436 956 
Q 3884 1394 3884 2338 
Q 3884 3275 3436 3711 
Q 2988 4147 2022 4147 
L 1259 4147 
z
M 628 4666 
L 1925 4666 
Q 3281 4666 3915 4102 
Q 4550 3538 4550 2338 
Q 4550 1131 3912 565 
Q 3275 0 1925 0 
L 628 0 
L 628 4666 
z
" transform="scale(0.015625)"/>
       <path id="DejaVuSans-2c" d="M 750 794 
L 1409 794 
L 1409 256 
L 897 -744 
L 494 -744 
L 750 256 
L 750 794 
z
" transform="scale(0.015625)"/>
       <path id="DejaVuSans-46" d="M 628 4666 
L 3309 4666 
L 3309 4134 
L 1259 4134 
L 1259 2759 
L 3109 2759 
L 3109 2228 
L 1259 2228 
L 1259 0 
L 628 0 
L 628 4666 
z
" transform="scale(0.015625)"/>
       <path id="DejaVuSans-54" d="M -19 4666 
L 3928 4666 
L 3928 4134 
L 2272 4134 
L 2272 0 
L 1638 0 
L 1638 4134 
L -19 4134 
L -19 4666 
z
" transform="scale(0.015625)"/>
       <path id="DejaVuSans-3a" d="M 750 794 
L 1409 794 
L 1409 0 
L 750 0 
L 750 794 
z
M 750 3309 
L 1409 3309 
L 1409 2516 
L 750 2516 
L 750 3309 
z
" transform="scale(0.015625)"/>
      </defs>
      <use xlink:href="#DejaVuSans-49"/>
      <use xlink:href="#DejaVuSans-44" transform="translate(29.492188 0)"/>
      <use xlink:href="#DejaVuSans-20" transform="translate(106.494141 0)"/>
      <use xlink:href="#DejaVuSans-35" transform="translate(138.28125 0)"/>
      <use xlink:href="#DejaVuSans-32" transform="translate(201.904297 0)"/>
      <use xlink:href="#DejaVuSans-20" transform="translate(265.527344 0)"/>
      <use xlink:href="#DejaVuSans-28" transform="translate(297.314453 0)"/>
      <use xlink:href="#DejaVuSans-4c" transform="translate(336.328125 0)"/>
      <use xlink:href="#DejaVuSans-52" transform="translate(392.041016 0)"/>
      <use xlink:href="#DejaVuSans-20" transform="translate(461.523438 0)"/>
      <use xlink:href="#DejaVuSans-30" transform="translate(493.310547 0)"/>
      <use xlink:href="#DejaVuSans-2e" transform="translate(556.933594 0)"/>
      <use xlink:href="#DejaVuSans-30" transform="translate(588.720703 0)"/>
      <use xlink:href="#DejaVuSans-31" transform="translate(652.34375 0)"/>
      <use xlink:href="#DejaVuSans-2c" transform="translate(715.966797 0)"/>
      <use xlink:href="#DejaVuSans-20" transform="translate(747.753906 0)"/>
      <use xlink:href="#DejaVuSans-46" transform="translate(779.541016 0)"/>
      <use xlink:href="#DejaVuSans-31" transform="translate(837.060547 0)"/>
      <use xlink:href="#DejaVuSans-20" transform="translate(900.683594 0)"/>
      <use xlink:href="#DejaVuSans-54" transform="translate(932.470703 0)"/>
      <use xlink:href="#DejaVuSans-65" transform="translate(976.554688 0)"/>
      <use xlink:href="#DejaVuSans-73" transform="translate(1038.078125 0)"/>
      <use xlink:href="#DejaVuSans-74" transform="translate(1090.177734 0)"/>
      <use xlink:href="#DejaVuSans-3a" transform="translate(1129.386719 0)"/>
      <use xlink:href="#DejaVuSans-20" transform="translate(1163.078125 0)"/>
      <use xlink:href="#DejaVuSans-30" transform="translate(1194.865234 0)"/>
      <use xlink:href="#DejaVuSans-2e" transform="translate(1258.488281 0)"/>
      <use xlink:href="#DejaVuSans-34" transform="translate(1290.275391 0)"/>
      <use xlink:href="#DejaVuSans-37" transform="translate(1353.898438 0)"/>
      <use xlink:href="#DejaVuSans-34" transform="translate(1417.521484 0)"/>
      <use xlink:href="#DejaVuSans-29" transform="translate(1481.144531 0)"/>
     </g>
     <!--  -->
     <g transform="translate(767.93272 226.833969) scale(0.09 -0.09)"/>
    </g>
    <g id="line2d_42">
     <path d="M 742.73272 242.869156 
L 751.73272 242.869156 
L 760.73272 242.869156 
" style="fill: none; stroke: #c7e9c0; stroke-opacity: 0.8; stroke-width: 1.5; stroke-linecap: square"/>
    </g>
    <g id="text_21">
     <!-- ID 51 (LR 0.01, F1 Test: 0.474) -->
     <g transform="translate(767.93272 240.044281) scale(0.09 -0.09)">
      <use xlink:href="#DejaVuSans-49"/>
      <use xlink:href="#DejaVuSans-44" transform="translate(29.492188 0)"/>
      <use xlink:href="#DejaVuSans-20" transform="translate(106.494141 0)"/>
      <use xlink:href="#DejaVuSans-35" transform="translate(138.28125 0)"/>
      <use xlink:href="#DejaVuSans-31" transform="translate(201.904297 0)"/>
      <use xlink:href="#DejaVuSans-20" transform="translate(265.527344 0)"/>
      <use xlink:href="#DejaVuSans-28" transform="translate(297.314453 0)"/>
      <use xlink:href="#DejaVuSans-4c" transform="translate(336.328125 0)"/>
      <use xlink:href="#DejaVuSans-52" transform="translate(392.041016 0)"/>
      <use xlink:href="#DejaVuSans-20" transform="translate(461.523438 0)"/>
      <use xlink:href="#DejaVuSans-30" transform="translate(493.310547 0)"/>
      <use xlink:href="#DejaVuSans-2e" transform="translate(556.933594 0)"/>
      <use xlink:href="#DejaVuSans-30" transform="translate(588.720703 0)"/>
      <use xlink:href="#DejaVuSans-31" transform="translate(652.34375 0)"/>
      <use xlink:href="#DejaVuSans-2c" transform="translate(715.966797 0)"/>
      <use xlink:href="#DejaVuSans-20" transform="translate(747.753906 0)"/>
      <use xlink:href="#DejaVuSans-46" transform="translate(779.541016 0)"/>
      <use xlink:href="#DejaVuSans-31" transform="translate(837.060547 0)"/>
      <use xlink:href="#DejaVuSans-20" transform="translate(900.683594 0)"/>
      <use xlink:href="#DejaVuSans-54" transform="translate(932.470703 0)"/>
      <use xlink:href="#DejaVuSans-65" transform="translate(976.554688 0)"/>
      <use xlink:href="#DejaVuSans-73" transform="translate(1038.078125 0)"/>
      <use xlink:href="#DejaVuSans-74" transform="translate(1090.177734 0)"/>
      <use xlink:href="#DejaVuSans-3a" transform="translate(1129.386719 0)"/>
      <use xlink:href="#DejaVuSans-20" transform="translate(1163.078125 0)"/>
      <use xlink:href="#DejaVuSans-30" transform="translate(1194.865234 0)"/>
      <use xlink:href="#DejaVuSans-2e" transform="translate(1258.488281 0)"/>
      <use xlink:href="#DejaVuSans-34" transform="translate(1290.275391 0)"/>
      <use xlink:href="#DejaVuSans-37" transform="translate(1353.898438 0)"/>
      <use xlink:href="#DejaVuSans-34" transform="translate(1417.521484 0)"/>
      <use xlink:href="#DejaVuSans-29" transform="translate(1481.144531 0)"/>
     </g>
     <!--  -->
     <g transform="translate(767.93272 250.122313) scale(0.09 -0.09)"/>
    </g>
    <g id="line2d_43">
     <path d="M 742.73272 266.1575 
L 751.73272 266.1575 
L 760.73272 266.1575 
" style="fill: none; stroke: #74c476; stroke-opacity: 0.8; stroke-width: 1.5; stroke-linecap: square"/>
    </g>
    <g id="text_22">
     <!-- ID 75 (LR 0.01, F1 Test: 0.463) -->
     <g transform="translate(767.93272 263.332625) scale(0.09 -0.09)">
      <defs>
       <path id="DejaVuSans-33" d="M 2597 2516 
Q 3050 2419 3304 2112 
Q 3559 1806 3559 1356 
Q 3559 666 3084 287 
Q 2609 -91 1734 -91 
Q 1441 -91 1130 -33 
Q 819 25 488 141 
L 488 750 
Q 750 597 1062 519 
Q 1375 441 1716 441 
Q 2309 441 2620 675 
Q 2931 909 2931 1356 
Q 2931 1769 2642 2001 
Q 2353 2234 1838 2234 
L 1294 2234 
L 1294 2753 
L 1863 2753 
Q 2328 2753 2575 2939 
Q 2822 3125 2822 3475 
Q 2822 3834 2567 4026 
Q 2313 4219 1838 4219 
Q 1578 4219 1281 4162 
Q 984 4106 628 3988 
L 628 4550 
Q 988 4650 1302 4700 
Q 1616 4750 1894 4750 
Q 2613 4750 3031 4423 
Q 3450 4097 3450 3541 
Q 3450 3153 3228 2886 
Q 3006 2619 2597 2516 
z
" transform="scale(0.015625)"/>
      </defs>
      <use xlink:href="#DejaVuSans-49"/>
      <use xlink:href="#DejaVuSans-44" transform="translate(29.492188 0)"/>
      <use xlink:href="#DejaVuSans-20" transform="translate(106.494141 0)"/>
      <use xlink:href="#DejaVuSans-37" transform="translate(138.28125 0)"/>
      <use xlink:href="#DejaVuSans-35" transform="translate(201.904297 0)"/>
      <use xlink:href="#DejaVuSans-20" transform="translate(265.527344 0)"/>
      <use xlink:href="#DejaVuSans-28" transform="translate(297.314453 0)"/>
      <use xlink:href="#DejaVuSans-4c" transform="translate(336.328125 0)"/>
      <use xlink:href="#DejaVuSans-52" transform="translate(392.041016 0)"/>
      <use xlink:href="#DejaVuSans-20" transform="translate(461.523438 0)"/>
      <use xlink:href="#DejaVuSans-30" transform="translate(493.310547 0)"/>
      <use xlink:href="#DejaVuSans-2e" transform="translate(556.933594 0)"/>
      <use xlink:href="#DejaVuSans-30" transform="translate(588.720703 0)"/>
      <use xlink:href="#DejaVuSans-31" transform="translate(652.34375 0)"/>
      <use xlink:href="#DejaVuSans-2c" transform="translate(715.966797 0)"/>
      <use xlink:href="#DejaVuSans-20" transform="translate(747.753906 0)"/>
      <use xlink:href="#DejaVuSans-46" transform="translate(779.541016 0)"/>
      <use xlink:href="#DejaVuSans-31" transform="translate(837.060547 0)"/>
      <use xlink:href="#DejaVuSans-20" transform="translate(900.683594 0)"/>
      <use xlink:href="#DejaVuSans-54" transform="translate(932.470703 0)"/>
      <use xlink:href="#DejaVuSans-65" transform="translate(976.554688 0)"/>
      <use xlink:href="#DejaVuSans-73" transform="translate(1038.078125 0)"/>
      <use xlink:href="#DejaVuSans-74" transform="translate(1090.177734 0)"/>
      <use xlink:href="#DejaVuSans-3a" transform="translate(1129.386719 0)"/>
      <use xlink:href="#DejaVuSans-20" transform="translate(1163.078125 0)"/>
      <use xlink:href="#DejaVuSans-30" transform="translate(1194.865234 0)"/>
      <use xlink:href="#DejaVuSans-2e" transform="translate(1258.488281 0)"/>
      <use xlink:href="#DejaVuSans-34" transform="translate(1290.275391 0)"/>
      <use xlink:href="#DejaVuSans-36" transform="translate(1353.898438 0)"/>
      <use xlink:href="#DejaVuSans-33" transform="translate(1417.521484 0)"/>
      <use xlink:href="#DejaVuSans-29" transform="translate(1481.144531 0)"/>
     </g>
     <!--  -->
     <g transform="translate(767.93272 273.410656) scale(0.09 -0.09)"/>
    </g>
    <g id="line2d_44">
     <path d="M 742.73272 289.445844 
L 751.73272 289.445844 
L 760.73272 289.445844 
" style="fill: none; stroke: #238b45; stroke-opacity: 0.8; stroke-width: 1.5; stroke-linecap: square"/>
    </g>
    <g id="text_23">
     <!-- ID 76 (LR 0.01, F1 Test: 0.463) -->
     <g transform="translate(767.93272 286.620969) scale(0.09 -0.09)">
      <use xlink:href="#DejaVuSans-49"/>
      <use xlink:href="#DejaVuSans-44" transform="translate(29.492188 0)"/>
      <use xlink:href="#DejaVuSans-20" transform="translate(106.494141 0)"/>
      <use xlink:href="#DejaVuSans-37" transform="translate(138.28125 0)"/>
      <use xlink:href="#DejaVuSans-36" transform="translate(201.904297 0)"/>
      <use xlink:href="#DejaVuSans-20" transform="translate(265.527344 0)"/>
      <use xlink:href="#DejaVuSans-28" transform="translate(297.314453 0)"/>
      <use xlink:href="#DejaVuSans-4c" transform="translate(336.328125 0)"/>
      <use xlink:href="#DejaVuSans-52" transform="translate(392.041016 0)"/>
      <use xlink:href="#DejaVuSans-20" transform="translate(461.523438 0)"/>
      <use xlink:href="#DejaVuSans-30" transform="translate(493.310547 0)"/>
      <use xlink:href="#DejaVuSans-2e" transform="translate(556.933594 0)"/>
      <use xlink:href="#DejaVuSans-30" transform="translate(588.720703 0)"/>
      <use xlink:href="#DejaVuSans-31" transform="translate(652.34375 0)"/>
      <use xlink:href="#DejaVuSans-2c" transform="translate(715.966797 0)"/>
      <use xlink:href="#DejaVuSans-20" transform="translate(747.753906 0)"/>
      <use xlink:href="#DejaVuSans-46" transform="translate(779.541016 0)"/>
      <use xlink:href="#DejaVuSans-31" transform="translate(837.060547 0)"/>
      <use xlink:href="#DejaVuSans-20" transform="translate(900.683594 0)"/>
      <use xlink:href="#DejaVuSans-54" transform="translate(932.470703 0)"/>
      <use xlink:href="#DejaVuSans-65" transform="translate(976.554688 0)"/>
      <use xlink:href="#DejaVuSans-73" transform="translate(1038.078125 0)"/>
      <use xlink:href="#DejaVuSans-74" transform="translate(1090.177734 0)"/>
      <use xlink:href="#DejaVuSans-3a" transform="translate(1129.386719 0)"/>
      <use xlink:href="#DejaVuSans-20" transform="translate(1163.078125 0)"/>
      <use xlink:href="#DejaVuSans-30" transform="translate(1194.865234 0)"/>
      <use xlink:href="#DejaVuSans-2e" transform="translate(1258.488281 0)"/>
      <use xlink:href="#DejaVuSans-34" transform="translate(1290.275391 0)"/>
      <use xlink:href="#DejaVuSans-36" transform="translate(1353.898438 0)"/>
      <use xlink:href="#DejaVuSans-33" transform="translate(1417.521484 0)"/>
      <use xlink:href="#DejaVuSans-29" transform="translate(1481.144531 0)"/>
     </g>
     <!--  -->
     <g transform="translate(767.93272 296.699) scale(0.09 -0.09)"/>
    </g>
    <g id="line2d_45">
     <path d="M 742.73272 312.734188 
L 751.73272 312.734188 
L 760.73272 312.734188 
" style="fill: none; stroke: #00441b; stroke-opacity: 0.8; stroke-width: 1.5; stroke-linecap: square"/>
    </g>
    <g id="text_24">
     <!-- ID 1 (LR 0.01, F1 Test: 0.367) -->
     <g transform="translate(767.93272 309.909312) scale(0.09 -0.09)">
      <use xlink:href="#DejaVuSans-49"/>
      <use xlink:href="#DejaVuSans-44" transform="translate(29.492188 0)"/>
      <use xlink:href="#DejaVuSans-20" transform="translate(106.494141 0)"/>
      <use xlink:href="#DejaVuSans-31" transform="translate(138.28125 0)"/>
      <use xlink:href="#DejaVuSans-20" transform="translate(201.904297 0)"/>
      <use xlink:href="#DejaVuSans-28" transform="translate(233.691406 0)"/>
      <use xlink:href="#DejaVuSans-4c" transform="translate(272.705078 0)"/>
      <use xlink:href="#DejaVuSans-52" transform="translate(328.417969 0)"/>
      <use xlink:href="#DejaVuSans-20" transform="translate(397.900391 0)"/>
      <use xlink:href="#DejaVuSans-30" transform="translate(429.6875 0)"/>
      <use xlink:href="#DejaVuSans-2e" transform="translate(493.310547 0)"/>
      <use xlink:href="#DejaVuSans-30" transform="translate(525.097656 0)"/>
      <use xlink:href="#DejaVuSans-31" transform="translate(588.720703 0)"/>
      <use xlink:href="#DejaVuSans-2c" transform="translate(652.34375 0)"/>
      <use xlink:href="#DejaVuSans-20" transform="translate(684.130859 0)"/>
      <use xlink:href="#DejaVuSans-46" transform="translate(715.917969 0)"/>
      <use xlink:href="#DejaVuSans-31" transform="translate(773.4375 0)"/>
      <use xlink:href="#DejaVuSans-20" transform="translate(837.060547 0)"/>
      <use xlink:href="#DejaVuSans-54" transform="translate(868.847656 0)"/>
      <use xlink:href="#DejaVuSans-65" transform="translate(912.931641 0)"/>
      <use xlink:href="#DejaVuSans-73" transform="translate(974.455078 0)"/>
      <use xlink:href="#DejaVuSans-74" transform="translate(1026.554688 0)"/>
      <use xlink:href="#DejaVuSans-3a" transform="translate(1065.763672 0)"/>
      <use xlink:href="#DejaVuSans-20" transform="translate(1099.455078 0)"/>
      <use xlink:href="#DejaVuSans-30" transform="translate(1131.242188 0)"/>
      <use xlink:href="#DejaVuSans-2e" transform="translate(1194.865234 0)"/>
      <use xlink:href="#DejaVuSans-33" transform="translate(1226.652344 0)"/>
      <use xlink:href="#DejaVuSans-36" transform="translate(1290.275391 0)"/>
      <use xlink:href="#DejaVuSans-37" transform="translate(1353.898438 0)"/>
      <use xlink:href="#DejaVuSans-29" transform="translate(1417.521484 0)"/>
     </g>
     <!--  -->
     <g transform="translate(767.93272 319.987344) scale(0.09 -0.09)"/>
    </g>
    <g id="line2d_46">
     <path d="M 742.73272 336.022531 
L 751.73272 336.022531 
L 760.73272 336.022531 
" style="fill: none; stroke: #fff5eb; stroke-opacity: 0.9; stroke-width: 1.5; stroke-linecap: square"/>
    </g>
    <g id="text_25">
     <!-- ID 61 (LR 0.1, F1 Test: 0.729) -->
     <g transform="translate(767.93272 333.197656) scale(0.09 -0.09)">
      <defs>
       <path id="DejaVuSans-39" d="M 703 97 
L 703 672 
Q 941 559 1184 500 
Q 1428 441 1663 441 
Q 2288 441 2617 861 
Q 2947 1281 2994 2138 
Q 2813 1869 2534 1725 
Q 2256 1581 1919 1581 
Q 1219 1581 811 2004 
Q 403 2428 403 3163 
Q 403 3881 828 4315 
Q 1253 4750 1959 4750 
Q 2769 4750 3195 4129 
Q 3622 3509 3622 2328 
Q 3622 1225 3098 567 
Q 2575 -91 1691 -91 
Q 1453 -91 1209 -44 
Q 966 3 703 97 
z
M 1959 2075 
Q 2384 2075 2632 2365 
Q 2881 2656 2881 3163 
Q 2881 3666 2632 3958 
Q 2384 4250 1959 4250 
Q 1534 4250 1286 3958 
Q 1038 3666 1038 3163 
Q 1038 2656 1286 2365 
Q 1534 2075 1959 2075 
z
" transform="scale(0.015625)"/>
      </defs>
      <use xlink:href="#DejaVuSans-49"/>
      <use xlink:href="#DejaVuSans-44" transform="translate(29.492188 0)"/>
      <use xlink:href="#DejaVuSans-20" transform="translate(106.494141 0)"/>
      <use xlink:href="#DejaVuSans-36" transform="translate(138.28125 0)"/>
      <use xlink:href="#DejaVuSans-31" transform="translate(201.904297 0)"/>
      <use xlink:href="#DejaVuSans-20" transform="translate(265.527344 0)"/>
      <use xlink:href="#DejaVuSans-28" transform="translate(297.314453 0)"/>
      <use xlink:href="#DejaVuSans-4c" transform="translate(336.328125 0)"/>
      <use xlink:href="#DejaVuSans-52" transform="translate(392.041016 0)"/>
      <use xlink:href="#DejaVuSans-20" transform="translate(461.523438 0)"/>
      <use xlink:href="#DejaVuSans-30" transform="translate(493.310547 0)"/>
      <use xlink:href="#DejaVuSans-2e" transform="translate(556.933594 0)"/>
      <use xlink:href="#DejaVuSans-31" transform="translate(588.720703 0)"/>
      <use xlink:href="#DejaVuSans-2c" transform="translate(652.34375 0)"/>
      <use xlink:href="#DejaVuSans-20" transform="translate(684.130859 0)"/>
      <use xlink:href="#DejaVuSans-46" transform="translate(715.917969 0)"/>
      <use xlink:href="#DejaVuSans-31" transform="translate(773.4375 0)"/>
      <use xlink:href="#DejaVuSans-20" transform="translate(837.060547 0)"/>
      <use xlink:href="#DejaVuSans-54" transform="translate(868.847656 0)"/>
      <use xlink:href="#DejaVuSans-65" transform="translate(912.931641 0)"/>
      <use xlink:href="#DejaVuSans-73" transform="translate(974.455078 0)"/>
      <use xlink:href="#DejaVuSans-74" transform="translate(1026.554688 0)"/>
      <use xlink:href="#DejaVuSans-3a" transform="translate(1065.763672 0)"/>
      <use xlink:href="#DejaVuSans-20" transform="translate(1099.455078 0)"/>
      <use xlink:href="#DejaVuSans-30" transform="translate(1131.242188 0)"/>
      <use xlink:href="#DejaVuSans-2e" transform="translate(1194.865234 0)"/>
      <use xlink:href="#DejaVuSans-37" transform="translate(1226.652344 0)"/>
      <use xlink:href="#DejaVuSans-32" transform="translate(1290.275391 0)"/>
      <use xlink:href="#DejaVuSans-39" transform="translate(1353.898438 0)"/>
      <use xlink:href="#DejaVuSans-29" transform="translate(1417.521484 0)"/>
     </g>
     <!--  -->
     <g transform="translate(767.93272 343.275688) scale(0.09 -0.09)"/>
    </g>
    <g id="line2d_47">
     <path d="M 742.73272 359.310875 
L 751.73272 359.310875 
L 760.73272 359.310875 
" style="fill: none; stroke: #fdd0a2; stroke-opacity: 0.9; stroke-width: 1.5; stroke-linecap: square"/>
    </g>
    <g id="text_26">
     <!-- ID 62 (LR 0.1, F1 Test: 0.729) -->
     <g transform="translate(767.93272 356.486) scale(0.09 -0.09)">
      <use xlink:href="#DejaVuSans-49"/>
      <use xlink:href="#DejaVuSans-44" transform="translate(29.492188 0)"/>
      <use xlink:href="#DejaVuSans-20" transform="translate(106.494141 0)"/>
      <use xlink:href="#DejaVuSans-36" transform="translate(138.28125 0)"/>
      <use xlink:href="#DejaVuSans-32" transform="translate(201.904297 0)"/>
      <use xlink:href="#DejaVuSans-20" transform="translate(265.527344 0)"/>
      <use xlink:href="#DejaVuSans-28" transform="translate(297.314453 0)"/>
      <use xlink:href="#DejaVuSans-4c" transform="translate(336.328125 0)"/>
      <use xlink:href="#DejaVuSans-52" transform="translate(392.041016 0)"/>
      <use xlink:href="#DejaVuSans-20" transform="translate(461.523438 0)"/>
      <use xlink:href="#DejaVuSans-30" transform="translate(493.310547 0)"/>
      <use xlink:href="#DejaVuSans-2e" transform="translate(556.933594 0)"/>
      <use xlink:href="#DejaVuSans-31" transform="translate(588.720703 0)"/>
      <use xlink:href="#DejaVuSans-2c" transform="translate(652.34375 0)"/>
      <use xlink:href="#DejaVuSans-20" transform="translate(684.130859 0)"/>
      <use xlink:href="#DejaVuSans-46" transform="translate(715.917969 0)"/>
      <use xlink:href="#DejaVuSans-31" transform="translate(773.4375 0)"/>
      <use xlink:href="#DejaVuSans-20" transform="translate(837.060547 0)"/>
      <use xlink:href="#DejaVuSans-54" transform="translate(868.847656 0)"/>
      <use xlink:href="#DejaVuSans-65" transform="translate(912.931641 0)"/>
      <use xlink:href="#DejaVuSans-73" transform="translate(974.455078 0)"/>
      <use xlink:href="#DejaVuSans-74" transform="translate(1026.554688 0)"/>
      <use xlink:href="#DejaVuSans-3a" transform="translate(1065.763672 0)"/>
      <use xlink:href="#DejaVuSans-20" transform="translate(1099.455078 0)"/>
      <use xlink:href="#DejaVuSans-30" transform="translate(1131.242188 0)"/>
      <use xlink:href="#DejaVuSans-2e" transform="translate(1194.865234 0)"/>
      <use xlink:href="#DejaVuSans-37" transform="translate(1226.652344 0)"/>
      <use xlink:href="#DejaVuSans-32" transform="translate(1290.275391 0)"/>
      <use xlink:href="#DejaVuSans-39" transform="translate(1353.898438 0)"/>
      <use xlink:href="#DejaVuSans-29" transform="translate(1417.521484 0)"/>
     </g>
     <!--  -->
     <g transform="translate(767.93272 366.564031) scale(0.09 -0.09)"/>
    </g>
    <g id="line2d_48">
     <path d="M 742.73272 382.599219 
L 751.73272 382.599219 
L 760.73272 382.599219 
" style="fill: none; stroke: #fd8d3c; stroke-opacity: 0.9; stroke-width: 1.5; stroke-linecap: square"/>
    </g>
    <g id="text_27">
     <!-- ID 63 (LR 0.1, F1 Test: 0.727) -->
     <g transform="translate(767.93272 379.774344) scale(0.09 -0.09)">
      <use xlink:href="#DejaVuSans-49"/>
      <use xlink:href="#DejaVuSans-44" transform="translate(29.492188 0)"/>
      <use xlink:href="#DejaVuSans-20" transform="translate(106.494141 0)"/>
      <use xlink:href="#DejaVuSans-36" transform="translate(138.28125 0)"/>
      <use xlink:href="#DejaVuSans-33" transform="translate(201.904297 0)"/>
      <use xlink:href="#DejaVuSans-20" transform="translate(265.527344 0)"/>
      <use xlink:href="#DejaVuSans-28" transform="translate(297.314453 0)"/>
      <use xlink:href="#DejaVuSans-4c" transform="translate(336.328125 0)"/>
      <use xlink:href="#DejaVuSans-52" transform="translate(392.041016 0)"/>
      <use xlink:href="#DejaVuSans-20" transform="translate(461.523438 0)"/>
      <use xlink:href="#DejaVuSans-30" transform="translate(493.310547 0)"/>
      <use xlink:href="#DejaVuSans-2e" transform="translate(556.933594 0)"/>
      <use xlink:href="#DejaVuSans-31" transform="translate(588.720703 0)"/>
      <use xlink:href="#DejaVuSans-2c" transform="translate(652.34375 0)"/>
      <use xlink:href="#DejaVuSans-20" transform="translate(684.130859 0)"/>
      <use xlink:href="#DejaVuSans-46" transform="translate(715.917969 0)"/>
      <use xlink:href="#DejaVuSans-31" transform="translate(773.4375 0)"/>
      <use xlink:href="#DejaVuSans-20" transform="translate(837.060547 0)"/>
      <use xlink:href="#DejaVuSans-54" transform="translate(868.847656 0)"/>
      <use xlink:href="#DejaVuSans-65" transform="translate(912.931641 0)"/>
      <use xlink:href="#DejaVuSans-73" transform="translate(974.455078 0)"/>
      <use xlink:href="#DejaVuSans-74" transform="translate(1026.554688 0)"/>
      <use xlink:href="#DejaVuSans-3a" transform="translate(1065.763672 0)"/>
      <use xlink:href="#DejaVuSans-20" transform="translate(1099.455078 0)"/>
      <use xlink:href="#DejaVuSans-30" transform="translate(1131.242188 0)"/>
      <use xlink:href="#DejaVuSans-2e" transform="translate(1194.865234 0)"/>
      <use xlink:href="#DejaVuSans-37" transform="translate(1226.652344 0)"/>
      <use xlink:href="#DejaVuSans-32" transform="translate(1290.275391 0)"/>
      <use xlink:href="#DejaVuSans-37" transform="translate(1353.898438 0)"/>
      <use xlink:href="#DejaVuSans-29" transform="translate(1417.521484 0)"/>
     </g>
     <!--  -->
     <g transform="translate(767.93272 389.852375) scale(0.09 -0.09)"/>
    </g>
    <g id="line2d_49">
     <path d="M 742.73272 405.887563 
L 751.73272 405.887563 
L 760.73272 405.887563 
" style="fill: none; stroke: #d94801; stroke-opacity: 0.9; stroke-width: 1.5; stroke-linecap: square"/>
    </g>
    <g id="text_28">
     <!-- ID 64 (LR 0.1, F1 Test: 0.727) -->
     <g transform="translate(767.93272 403.062687) scale(0.09 -0.09)">
      <use xlink:href="#DejaVuSans-49"/>
      <use xlink:href="#DejaVuSans-44" transform="translate(29.492188 0)"/>
      <use xlink:href="#DejaVuSans-20" transform="translate(106.494141 0)"/>
      <use xlink:href="#DejaVuSans-36" transform="translate(138.28125 0)"/>
      <use xlink:href="#DejaVuSans-34" transform="translate(201.904297 0)"/>
      <use xlink:href="#DejaVuSans-20" transform="translate(265.527344 0)"/>
      <use xlink:href="#DejaVuSans-28" transform="translate(297.314453 0)"/>
      <use xlink:href="#DejaVuSans-4c" transform="translate(336.328125 0)"/>
      <use xlink:href="#DejaVuSans-52" transform="translate(392.041016 0)"/>
      <use xlink:href="#DejaVuSans-20" transform="translate(461.523438 0)"/>
      <use xlink:href="#DejaVuSans-30" transform="translate(493.310547 0)"/>
      <use xlink:href="#DejaVuSans-2e" transform="translate(556.933594 0)"/>
      <use xlink:href="#DejaVuSans-31" transform="translate(588.720703 0)"/>
      <use xlink:href="#DejaVuSans-2c" transform="translate(652.34375 0)"/>
      <use xlink:href="#DejaVuSans-20" transform="translate(684.130859 0)"/>
      <use xlink:href="#DejaVuSans-46" transform="translate(715.917969 0)"/>
      <use xlink:href="#DejaVuSans-31" transform="translate(773.4375 0)"/>
      <use xlink:href="#DejaVuSans-20" transform="translate(837.060547 0)"/>
      <use xlink:href="#DejaVuSans-54" transform="translate(868.847656 0)"/>
      <use xlink:href="#DejaVuSans-65" transform="translate(912.931641 0)"/>
      <use xlink:href="#DejaVuSans-73" transform="translate(974.455078 0)"/>
      <use xlink:href="#DejaVuSans-74" transform="translate(1026.554688 0)"/>
      <use xlink:href="#DejaVuSans-3a" transform="translate(1065.763672 0)"/>
      <use xlink:href="#DejaVuSans-20" transform="translate(1099.455078 0)"/>
      <use xlink:href="#DejaVuSans-30" transform="translate(1131.242188 0)"/>
      <use xlink:href="#DejaVuSans-2e" transform="translate(1194.865234 0)"/>
      <use xlink:href="#DejaVuSans-37" transform="translate(1226.652344 0)"/>
      <use xlink:href="#DejaVuSans-32" transform="translate(1290.275391 0)"/>
      <use xlink:href="#DejaVuSans-37" transform="translate(1353.898438 0)"/>
      <use xlink:href="#DejaVuSans-29" transform="translate(1417.521484 0)"/>
     </g>
     <!--  -->
     <g transform="translate(767.93272 413.140719) scale(0.09 -0.09)"/>
    </g>
    <g id="line2d_50">
     <path d="M 742.73272 429.175906 
L 751.73272 429.175906 
L 760.73272 429.175906 
" style="fill: none; stroke: #7f2704; stroke-opacity: 0.9; stroke-width: 1.5; stroke-linecap: square"/>
    </g>
    <g id="text_29">
     <!-- ID 65 (LR 0.1, F1 Test: 0.723) -->
     <g transform="translate(767.93272 426.351031) scale(0.09 -0.09)">
      <use xlink:href="#DejaVuSans-49"/>
      <use xlink:href="#DejaVuSans-44" transform="translate(29.492188 0)"/>
      <use xlink:href="#DejaVuSans-20" transform="translate(106.494141 0)"/>
      <use xlink:href="#DejaVuSans-36" transform="translate(138.28125 0)"/>
      <use xlink:href="#DejaVuSans-35" transform="translate(201.904297 0)"/>
      <use xlink:href="#DejaVuSans-20" transform="translate(265.527344 0)"/>
      <use xlink:href="#DejaVuSans-28" transform="translate(297.314453 0)"/>
      <use xlink:href="#DejaVuSans-4c" transform="translate(336.328125 0)"/>
      <use xlink:href="#DejaVuSans-52" transform="translate(392.041016 0)"/>
      <use xlink:href="#DejaVuSans-20" transform="translate(461.523438 0)"/>
      <use xlink:href="#DejaVuSans-30" transform="translate(493.310547 0)"/>
      <use xlink:href="#DejaVuSans-2e" transform="translate(556.933594 0)"/>
      <use xlink:href="#DejaVuSans-31" transform="translate(588.720703 0)"/>
      <use xlink:href="#DejaVuSans-2c" transform="translate(652.34375 0)"/>
      <use xlink:href="#DejaVuSans-20" transform="translate(684.130859 0)"/>
      <use xlink:href="#DejaVuSans-46" transform="translate(715.917969 0)"/>
      <use xlink:href="#DejaVuSans-31" transform="translate(773.4375 0)"/>
      <use xlink:href="#DejaVuSans-20" transform="translate(837.060547 0)"/>
      <use xlink:href="#DejaVuSans-54" transform="translate(868.847656 0)"/>
      <use xlink:href="#DejaVuSans-65" transform="translate(912.931641 0)"/>
      <use xlink:href="#DejaVuSans-73" transform="translate(974.455078 0)"/>
      <use xlink:href="#DejaVuSans-74" transform="translate(1026.554688 0)"/>
      <use xlink:href="#DejaVuSans-3a" transform="translate(1065.763672 0)"/>
      <use xlink:href="#DejaVuSans-20" transform="translate(1099.455078 0)"/>
      <use xlink:href="#DejaVuSans-30" transform="translate(1131.242188 0)"/>
      <use xlink:href="#DejaVuSans-2e" transform="translate(1194.865234 0)"/>
      <use xlink:href="#DejaVuSans-37" transform="translate(1226.652344 0)"/>
      <use xlink:href="#DejaVuSans-32" transform="translate(1290.275391 0)"/>
      <use xlink:href="#DejaVuSans-33" transform="translate(1353.898438 0)"/>
      <use xlink:href="#DejaVuSans-29" transform="translate(1417.521484 0)"/>
     </g>
     <!--  -->
     <g transform="translate(767.93272 436.429062) scale(0.09 -0.09)"/>
    </g>
   </g>
  </g>
 </g>
 <defs>
  <clipPath id="p8988aba6f6">
   <rect x="63.92" y="33.36" width="664.072" height="566.92"/>
  </clipPath>
 </defs>
</svg>
