<?xml version="1.0" encoding="utf-8" standalone="no"?>
<!DOCTYPE svg PUBLIC "-//W3C//DTD SVG 1.1//EN"
  "http://www.w3.org/Graphics/SVG/1.1/DTD/svg11.dtd">
<svg xmlns:xlink="http://www.w3.org/1999/xlink" width="1008pt" height="576pt" viewBox="0 0 1008 576" xmlns="http://www.w3.org/2000/svg" version="1.1">
 <metadata>
  <rdf:RDF xmlns:dc="http://purl.org/dc/elements/1.1/" xmlns:cc="http://creativecommons.org/ns#" xmlns:rdf="http://www.w3.org/1999/02/22-rdf-syntax-ns#">
   <cc:Work>
    <dc:type rdf:resource="http://purl.org/dc/dcmitype/StillImage"/>
    <dc:date>2025-11-14T08:12:23.736832</dc:date>
    <dc:format>image/svg+xml</dc:format>
    <dc:creator>
     <cc:Agent>
      <dc:title>Matplotlib v3.10.7, https://matplotlib.org/</dc:title>
     </cc:Agent>
    </dc:creator>
   </cc:Work>
  </rdf:RDF>
 </metadata>
 <defs>
  <style type="text/css">*{stroke-linejoin: round; stroke-linecap: butt}</style>
 </defs>
 <g id="figure_1">
  <g id="patch_1">
   <path d="M 0 576 
L 1008 576 
L 1008 0 
L 0 0 
z
" style="fill: #ffffff"/>
  </g>
  <g id="axes_1">
   <g id="patch_2">
    <path d="M 51.32 528.28 
L 997.2 528.28 
L 997.2 31.2 
L 51.32 31.2 
z
" style="fill: #ffffff"/>
   </g>
   <g id="matplotlib.axis_1">
    <g id="xtick_1">
     <g id="line2d_1">
      <path d="M 85.628779 528.28 
L 85.628779 31.2 
" clip-path="url(#p426500ee7a)" style="fill: none; stroke-dasharray: 2.96,1.28; stroke-dashoffset: 0; stroke: #b0b0b0; stroke-opacity: 0.6; stroke-width: 0.8"/>
     </g>
     <g id="line2d_2">
      <defs>
       <path id="m3cf6444778" d="M 0 0 
L 0 3.5 
" style="stroke: #000000; stroke-width: 0.8"/>
      </defs>
      <g>
       <use xlink:href="#m3cf6444778" x="85.628779" y="528.28" style="stroke: #000000; stroke-width: 0.8"/>
      </g>
     </g>
     <g id="text_1">
      <!-- 0 -->
      <g transform="translate(82.447529 542.878438) scale(0.1 -0.1)">
       <defs>
        <path id="DejaVuSans-30" d="M 2034 4250 
Q 1547 4250 1301 3770 
Q 1056 3291 1056 2328 
Q 1056 1369 1301 889 
Q 1547 409 2034 409 
Q 2525 409 2770 889 
Q 3016 1369 3016 2328 
Q 3016 3291 2770 3770 
Q 2525 4250 2034 4250 
z
M 2034 4750 
Q 2819 4750 3233 4129 
Q 3647 3509 3647 2328 
Q 3647 1150 3233 529 
Q 2819 -91 2034 -91 
Q 1250 -91 836 529 
Q 422 1150 422 2328 
Q 422 3509 836 4129 
Q 1250 4750 2034 4750 
z
" transform="scale(0.015625)"/>
       </defs>
       <use xlink:href="#DejaVuSans-30"/>
      </g>
     </g>
    </g>
    <g id="xtick_2">
     <g id="line2d_3">
      <path d="M 259.344114 528.28 
L 259.344114 31.2 
" clip-path="url(#p426500ee7a)" style="fill: none; stroke-dasharray: 2.96,1.28; stroke-dashoffset: 0; stroke: #b0b0b0; stroke-opacity: 0.6; stroke-width: 0.8"/>
     </g>
     <g id="line2d_4">
      <g>
       <use xlink:href="#m3cf6444778" x="259.344114" y="528.28" style="stroke: #000000; stroke-width: 0.8"/>
      </g>
     </g>
     <g id="text_2">
      <!-- 20 -->
      <g transform="translate(252.981614 542.878438) scale(0.1 -0.1)">
       <defs>
        <path id="DejaVuSans-32" d="M 1228 531 
L 3431 531 
L 3431 0 
L 469 0 
L 469 531 
Q 828 903 1448 1529 
Q 2069 2156 2228 2338 
Q 2531 2678 2651 2914 
Q 2772 3150 2772 3378 
Q 2772 3750 2511 3984 
Q 2250 4219 1831 4219 
Q 1534 4219 1204 4116 
Q 875 4013 500 3803 
L 500 4441 
Q 881 4594 1212 4672 
Q 1544 4750 1819 4750 
Q 2544 4750 2975 4387 
Q 3406 4025 3406 3419 
Q 3406 3131 3298 2873 
Q 3191 2616 2906 2266 
Q 2828 2175 2409 1742 
Q 1991 1309 1228 531 
z
" transform="scale(0.015625)"/>
       </defs>
       <use xlink:href="#DejaVuSans-32"/>
       <use xlink:href="#DejaVuSans-30" transform="translate(63.623047 0)"/>
      </g>
     </g>
    </g>
    <g id="xtick_3">
     <g id="line2d_5">
      <path d="M 433.059449 528.28 
L 433.059449 31.2 
" clip-path="url(#p426500ee7a)" style="fill: none; stroke-dasharray: 2.96,1.28; stroke-dashoffset: 0; stroke: #b0b0b0; stroke-opacity: 0.6; stroke-width: 0.8"/>
     </g>
     <g id="line2d_6">
      <g>
       <use xlink:href="#m3cf6444778" x="433.059449" y="528.28" style="stroke: #000000; stroke-width: 0.8"/>
      </g>
     </g>
     <g id="text_3">
      <!-- 40 -->
      <g transform="translate(426.696949 542.878438) scale(0.1 -0.1)">
       <defs>
        <path id="DejaVuSans-34" d="M 2419 4116 
L 825 1625 
L 2419 1625 
L 2419 4116 
z
M 2253 4666 
L 3047 4666 
L 3047 1625 
L 3713 1625 
L 3713 1100 
L 3047 1100 
L 3047 0 
L 2419 0 
L 2419 1100 
L 313 1100 
L 313 1709 
L 2253 4666 
z
" transform="scale(0.015625)"/>
       </defs>
       <use xlink:href="#DejaVuSans-34"/>
       <use xlink:href="#DejaVuSans-30" transform="translate(63.623047 0)"/>
      </g>
     </g>
    </g>
    <g id="xtick_4">
     <g id="line2d_7">
      <path d="M 606.774784 528.28 
L 606.774784 31.2 
" clip-path="url(#p426500ee7a)" style="fill: none; stroke-dasharray: 2.96,1.28; stroke-dashoffset: 0; stroke: #b0b0b0; stroke-opacity: 0.6; stroke-width: 0.8"/>
     </g>
     <g id="line2d_8">
      <g>
       <use xlink:href="#m3cf6444778" x="606.774784" y="528.28" style="stroke: #000000; stroke-width: 0.8"/>
      </g>
     </g>
     <g id="text_4">
      <!-- 60 -->
      <g transform="translate(600.412284 542.878438) scale(0.1 -0.1)">
       <defs>
        <path id="DejaVuSans-36" d="M 2113 2584 
Q 1688 2584 1439 2293 
Q 1191 2003 1191 1497 
Q 1191 994 1439 701 
Q 1688 409 2113 409 
Q 2538 409 2786 701 
Q 3034 994 3034 1497 
Q 3034 2003 2786 2293 
Q 2538 2584 2113 2584 
z
M 3366 4563 
L 3366 3988 
Q 3128 4100 2886 4159 
Q 2644 4219 2406 4219 
Q 1781 4219 1451 3797 
Q 1122 3375 1075 2522 
Q 1259 2794 1537 2939 
Q 1816 3084 2150 3084 
Q 2853 3084 3261 2657 
Q 3669 2231 3669 1497 
Q 3669 778 3244 343 
Q 2819 -91 2113 -91 
Q 1303 -91 875 529 
Q 447 1150 447 2328 
Q 447 3434 972 4092 
Q 1497 4750 2381 4750 
Q 2619 4750 2861 4703 
Q 3103 4656 3366 4563 
z
" transform="scale(0.015625)"/>
       </defs>
       <use xlink:href="#DejaVuSans-36"/>
       <use xlink:href="#DejaVuSans-30" transform="translate(63.623047 0)"/>
      </g>
     </g>
    </g>
    <g id="xtick_5">
     <g id="line2d_9">
      <path d="M 780.490119 528.28 
L 780.490119 31.2 
" clip-path="url(#p426500ee7a)" style="fill: none; stroke-dasharray: 2.96,1.28; stroke-dashoffset: 0; stroke: #b0b0b0; stroke-opacity: 0.6; stroke-width: 0.8"/>
     </g>
     <g id="line2d_10">
      <g>
       <use xlink:href="#m3cf6444778" x="780.490119" y="528.28" style="stroke: #000000; stroke-width: 0.8"/>
      </g>
     </g>
     <g id="text_5">
      <!-- 80 -->
      <g transform="translate(774.127619 542.878438) scale(0.1 -0.1)">
       <defs>
        <path id="DejaVuSans-38" d="M 2034 2216 
Q 1584 2216 1326 1975 
Q 1069 1734 1069 1313 
Q 1069 891 1326 650 
Q 1584 409 2034 409 
Q 2484 409 2743 651 
Q 3003 894 3003 1313 
Q 3003 1734 2745 1975 
Q 2488 2216 2034 2216 
z
M 1403 2484 
Q 997 2584 770 2862 
Q 544 3141 544 3541 
Q 544 4100 942 4425 
Q 1341 4750 2034 4750 
Q 2731 4750 3128 4425 
Q 3525 4100 3525 3541 
Q 3525 3141 3298 2862 
Q 3072 2584 2669 2484 
Q 3125 2378 3379 2068 
Q 3634 1759 3634 1313 
Q 3634 634 3220 271 
Q 2806 -91 2034 -91 
Q 1263 -91 848 271 
Q 434 634 434 1313 
Q 434 1759 690 2068 
Q 947 2378 1403 2484 
z
M 1172 3481 
Q 1172 3119 1398 2916 
Q 1625 2713 2034 2713 
Q 2441 2713 2670 2916 
Q 2900 3119 2900 3481 
Q 2900 3844 2670 4047 
Q 2441 4250 2034 4250 
Q 1625 4250 1398 4047 
Q 1172 3844 1172 3481 
z
" transform="scale(0.015625)"/>
       </defs>
       <use xlink:href="#DejaVuSans-38"/>
       <use xlink:href="#DejaVuSans-30" transform="translate(63.623047 0)"/>
      </g>
     </g>
    </g>
    <g id="xtick_6">
     <g id="line2d_11">
      <path d="M 954.205455 528.28 
L 954.205455 31.2 
" clip-path="url(#p426500ee7a)" style="fill: none; stroke-dasharray: 2.96,1.28; stroke-dashoffset: 0; stroke: #b0b0b0; stroke-opacity: 0.6; stroke-width: 0.8"/>
     </g>
     <g id="line2d_12">
      <g>
       <use xlink:href="#m3cf6444778" x="954.205455" y="528.28" style="stroke: #000000; stroke-width: 0.8"/>
      </g>
     </g>
     <g id="text_6">
      <!-- 100 -->
      <g transform="translate(944.661705 542.878438) scale(0.1 -0.1)">
       <defs>
        <path id="DejaVuSans-31" d="M 794 531 
L 1825 531 
L 1825 4091 
L 703 3866 
L 703 4441 
L 1819 4666 
L 2450 4666 
L 2450 531 
L 3481 531 
L 3481 0 
L 794 0 
L 794 531 
z
" transform="scale(0.015625)"/>
       </defs>
       <use xlink:href="#DejaVuSans-31"/>
       <use xlink:href="#DejaVuSans-30" transform="translate(63.623047 0)"/>
       <use xlink:href="#DejaVuSans-30" transform="translate(127.246094 0)"/>
      </g>
     </g>
    </g>
    <g id="text_7">
     <!-- Época -->
     <g transform="translate(502.97125 561.910313) scale(0.14 -0.14)">
      <defs>
       <path id="DejaVuSans-c9" d="M 628 4666 
L 3578 4666 
L 3578 4134 
L 1259 4134 
L 1259 2753 
L 3481 2753 
L 3481 2222 
L 1259 2222 
L 1259 531 
L 3634 531 
L 3634 0 
L 628 0 
L 628 4666 
z
M 2268 5921 
L 2846 5921 
L 2134 5096 
L 1655 5096 
L 2268 5921 
z
" transform="scale(0.015625)"/>
       <path id="DejaVuSans-70" d="M 1159 525 
L 1159 -1331 
L 581 -1331 
L 581 3500 
L 1159 3500 
L 1159 2969 
Q 1341 3281 1617 3432 
Q 1894 3584 2278 3584 
Q 2916 3584 3314 3078 
Q 3713 2572 3713 1747 
Q 3713 922 3314 415 
Q 2916 -91 2278 -91 
Q 1894 -91 1617 61 
Q 1341 213 1159 525 
z
M 3116 1747 
Q 3116 2381 2855 2742 
Q 2594 3103 2138 3103 
Q 1681 3103 1420 2742 
Q 1159 2381 1159 1747 
Q 1159 1113 1420 752 
Q 1681 391 2138 391 
Q 2594 391 2855 752 
Q 3116 1113 3116 1747 
z
" transform="scale(0.015625)"/>
       <path id="DejaVuSans-6f" d="M 1959 3097 
Q 1497 3097 1228 2736 
Q 959 2375 959 1747 
Q 959 1119 1226 758 
Q 1494 397 1959 397 
Q 2419 397 2687 759 
Q 2956 1122 2956 1747 
Q 2956 2369 2687 2733 
Q 2419 3097 1959 3097 
z
M 1959 3584 
Q 2709 3584 3137 3096 
Q 3566 2609 3566 1747 
Q 3566 888 3137 398 
Q 2709 -91 1959 -91 
Q 1206 -91 779 398 
Q 353 888 353 1747 
Q 353 2609 779 3096 
Q 1206 3584 1959 3584 
z
" transform="scale(0.015625)"/>
       <path id="DejaVuSans-63" d="M 3122 3366 
L 3122 2828 
Q 2878 2963 2633 3030 
Q 2388 3097 2138 3097 
Q 1578 3097 1268 2742 
Q 959 2388 959 1747 
Q 959 1106 1268 751 
Q 1578 397 2138 397 
Q 2388 397 2633 464 
Q 2878 531 3122 666 
L 3122 134 
Q 2881 22 2623 -34 
Q 2366 -91 2075 -91 
Q 1284 -91 818 406 
Q 353 903 353 1747 
Q 353 2603 823 3093 
Q 1294 3584 2113 3584 
Q 2378 3584 2631 3529 
Q 2884 3475 3122 3366 
z
" transform="scale(0.015625)"/>
       <path id="DejaVuSans-61" d="M 2194 1759 
Q 1497 1759 1228 1600 
Q 959 1441 959 1056 
Q 959 750 1161 570 
Q 1363 391 1709 391 
Q 2188 391 2477 730 
Q 2766 1069 2766 1631 
L 2766 1759 
L 2194 1759 
z
M 3341 1997 
L 3341 0 
L 2766 0 
L 2766 531 
Q 2569 213 2275 61 
Q 1981 -91 1556 -91 
Q 1019 -91 701 211 
Q 384 513 384 1019 
Q 384 1609 779 1909 
Q 1175 2209 1959 2209 
L 2766 2209 
L 2766 2266 
Q 2766 2663 2505 2880 
Q 2244 3097 1772 3097 
Q 1472 3097 1187 3025 
Q 903 2953 641 2809 
L 641 3341 
Q 956 3463 1253 3523 
Q 1550 3584 1831 3584 
Q 2591 3584 2966 3190 
Q 3341 2797 3341 1997 
z
" transform="scale(0.015625)"/>
      </defs>
      <use xlink:href="#DejaVuSans-c9"/>
      <use xlink:href="#DejaVuSans-70" transform="translate(63.183594 0)"/>
      <use xlink:href="#DejaVuSans-6f" transform="translate(126.660156 0)"/>
      <use xlink:href="#DejaVuSans-63" transform="translate(187.841797 0)"/>
      <use xlink:href="#DejaVuSans-61" transform="translate(242.822266 0)"/>
     </g>
    </g>
   </g>
   <g id="matplotlib.axis_2">
    <g id="ytick_1">
     <g id="line2d_13">
      <path d="M 51.32 505.685455 
L 997.2 505.685455 
" clip-path="url(#p426500ee7a)" style="fill: none; stroke-dasharray: 2.96,1.28; stroke-dashoffset: 0; stroke: #b0b0b0; stroke-opacity: 0.6; stroke-width: 0.8"/>
     </g>
     <g id="line2d_14">
      <defs>
       <path id="m865fa0d71a" d="M 0 0 
L -3.5 0 
" style="stroke: #000000; stroke-width: 0.8"/>
      </defs>
      <g>
       <use xlink:href="#m865fa0d71a" x="51.32" y="505.685455" style="stroke: #000000; stroke-width: 0.8"/>
      </g>
     </g>
     <g id="text_8">
      <!-- 0.0 -->
      <g transform="translate(28.416875 509.484673) scale(0.1 -0.1)">
       <defs>
        <path id="DejaVuSans-2e" d="M 684 794 
L 1344 794 
L 1344 0 
L 684 0 
L 684 794 
z
" transform="scale(0.015625)"/>
       </defs>
       <use xlink:href="#DejaVuSans-30"/>
       <use xlink:href="#DejaVuSans-2e" transform="translate(63.623047 0)"/>
       <use xlink:href="#DejaVuSans-30" transform="translate(95.410156 0)"/>
      </g>
     </g>
    </g>
    <g id="ytick_2">
     <g id="line2d_15">
      <path d="M 51.32 410.031781 
L 997.2 410.031781 
" clip-path="url(#p426500ee7a)" style="fill: none; stroke-dasharray: 2.96,1.28; stroke-dashoffset: 0; stroke: #b0b0b0; stroke-opacity: 0.6; stroke-width: 0.8"/>
     </g>
     <g id="line2d_16">
      <g>
       <use xlink:href="#m865fa0d71a" x="51.32" y="410.031781" style="stroke: #000000; stroke-width: 0.8"/>
      </g>
     </g>
     <g id="text_9">
      <!-- 0.2 -->
      <g transform="translate(28.416875 413.831) scale(0.1 -0.1)">
       <use xlink:href="#DejaVuSans-30"/>
       <use xlink:href="#DejaVuSans-2e" transform="translate(63.623047 0)"/>
       <use xlink:href="#DejaVuSans-32" transform="translate(95.410156 0)"/>
      </g>
     </g>
    </g>
    <g id="ytick_3">
     <g id="line2d_17">
      <path d="M 51.32 314.378107 
L 997.2 314.378107 
" clip-path="url(#p426500ee7a)" style="fill: none; stroke-dasharray: 2.96,1.28; stroke-dashoffset: 0; stroke: #b0b0b0; stroke-opacity: 0.6; stroke-width: 0.8"/>
     </g>
     <g id="line2d_18">
      <g>
       <use xlink:href="#m865fa0d71a" x="51.32" y="314.378107" style="stroke: #000000; stroke-width: 0.8"/>
      </g>
     </g>
     <g id="text_10">
      <!-- 0.4 -->
      <g transform="translate(28.416875 318.177326) scale(0.1 -0.1)">
       <use xlink:href="#DejaVuSans-30"/>
       <use xlink:href="#DejaVuSans-2e" transform="translate(63.623047 0)"/>
       <use xlink:href="#DejaVuSans-34" transform="translate(95.410156 0)"/>
      </g>
     </g>
    </g>
    <g id="ytick_4">
     <g id="line2d_19">
      <path d="M 51.32 218.724434 
L 997.2 218.724434 
" clip-path="url(#p426500ee7a)" style="fill: none; stroke-dasharray: 2.96,1.28; stroke-dashoffset: 0; stroke: #b0b0b0; stroke-opacity: 0.6; stroke-width: 0.8"/>
     </g>
     <g id="line2d_20">
      <g>
       <use xlink:href="#m865fa0d71a" x="51.32" y="218.724434" style="stroke: #000000; stroke-width: 0.8"/>
      </g>
     </g>
     <g id="text_11">
      <!-- 0.6 -->
      <g transform="translate(28.416875 222.523652) scale(0.1 -0.1)">
       <use xlink:href="#DejaVuSans-30"/>
       <use xlink:href="#DejaVuSans-2e" transform="translate(63.623047 0)"/>
       <use xlink:href="#DejaVuSans-36" transform="translate(95.410156 0)"/>
      </g>
     </g>
    </g>
    <g id="ytick_5">
     <g id="line2d_21">
      <path d="M 51.32 123.07076 
L 997.2 123.07076 
" clip-path="url(#p426500ee7a)" style="fill: none; stroke-dasharray: 2.96,1.28; stroke-dashoffset: 0; stroke: #b0b0b0; stroke-opacity: 0.6; stroke-width: 0.8"/>
     </g>
     <g id="line2d_22">
      <g>
       <use xlink:href="#m865fa0d71a" x="51.32" y="123.07076" style="stroke: #000000; stroke-width: 0.8"/>
      </g>
     </g>
     <g id="text_12">
      <!-- 0.8 -->
      <g transform="translate(28.416875 126.869979) scale(0.1 -0.1)">
       <use xlink:href="#DejaVuSans-30"/>
       <use xlink:href="#DejaVuSans-2e" transform="translate(63.623047 0)"/>
       <use xlink:href="#DejaVuSans-38" transform="translate(95.410156 0)"/>
      </g>
     </g>
    </g>
    <g id="text_13">
     <!-- F1-score (Entrenamiento/Validación) -->
     <g transform="translate(21.505312 407.158594) rotate(-90) scale(0.14 -0.14)">
      <defs>
       <path id="DejaVuSans-46" d="M 628 4666 
L 3309 4666 
L 3309 4134 
L 1259 4134 
L 1259 2759 
L 3109 2759 
L 3109 2228 
L 1259 2228 
L 1259 0 
L 628 0 
L 628 4666 
z
" transform="scale(0.015625)"/>
       <path id="DejaVuSans-2d" d="M 313 2009 
L 1997 2009 
L 1997 1497 
L 313 1497 
L 313 2009 
z
" transform="scale(0.015625)"/>
       <path id="DejaVuSans-73" d="M 2834 3397 
L 2834 2853 
Q 2591 2978 2328 3040 
Q 2066 3103 1784 3103 
Q 1356 3103 1142 2972 
Q 928 2841 928 2578 
Q 928 2378 1081 2264 
Q 1234 2150 1697 2047 
L 1894 2003 
Q 2506 1872 2764 1633 
Q 3022 1394 3022 966 
Q 3022 478 2636 193 
Q 2250 -91 1575 -91 
Q 1294 -91 989 -36 
Q 684 19 347 128 
L 347 722 
Q 666 556 975 473 
Q 1284 391 1588 391 
Q 1994 391 2212 530 
Q 2431 669 2431 922 
Q 2431 1156 2273 1281 
Q 2116 1406 1581 1522 
L 1381 1569 
Q 847 1681 609 1914 
Q 372 2147 372 2553 
Q 372 3047 722 3315 
Q 1072 3584 1716 3584 
Q 2034 3584 2315 3537 
Q 2597 3491 2834 3397 
z
" transform="scale(0.015625)"/>
       <path id="DejaVuSans-72" d="M 2631 2963 
Q 2534 3019 2420 3045 
Q 2306 3072 2169 3072 
Q 1681 3072 1420 2755 
Q 1159 2438 1159 1844 
L 1159 0 
L 581 0 
L 581 3500 
L 1159 3500 
L 1159 2956 
Q 1341 3275 1631 3429 
Q 1922 3584 2338 3584 
Q 2397 3584 2469 3576 
Q 2541 3569 2628 3553 
L 2631 2963 
z
" transform="scale(0.015625)"/>
       <path id="DejaVuSans-65" d="M 3597 1894 
L 3597 1613 
L 953 1613 
Q 991 1019 1311 708 
Q 1631 397 2203 397 
Q 2534 397 2845 478 
Q 3156 559 3463 722 
L 3463 178 
Q 3153 47 2828 -22 
Q 2503 -91 2169 -91 
Q 1331 -91 842 396 
Q 353 884 353 1716 
Q 353 2575 817 3079 
Q 1281 3584 2069 3584 
Q 2775 3584 3186 3129 
Q 3597 2675 3597 1894 
z
M 3022 2063 
Q 3016 2534 2758 2815 
Q 2500 3097 2075 3097 
Q 1594 3097 1305 2825 
Q 1016 2553 972 2059 
L 3022 2063 
z
" transform="scale(0.015625)"/>
       <path id="DejaVuSans-20" transform="scale(0.015625)"/>
       <path id="DejaVuSans-28" d="M 1984 4856 
Q 1566 4138 1362 3434 
Q 1159 2731 1159 2009 
Q 1159 1288 1364 580 
Q 1569 -128 1984 -844 
L 1484 -844 
Q 1016 -109 783 600 
Q 550 1309 550 2009 
Q 550 2706 781 3412 
Q 1013 4119 1484 4856 
L 1984 4856 
z
" transform="scale(0.015625)"/>
       <path id="DejaVuSans-45" d="M 628 4666 
L 3578 4666 
L 3578 4134 
L 1259 4134 
L 1259 2753 
L 3481 2753 
L 3481 2222 
L 1259 2222 
L 1259 531 
L 3634 531 
L 3634 0 
L 628 0 
L 628 4666 
z
" transform="scale(0.015625)"/>
       <path id="DejaVuSans-6e" d="M 3513 2113 
L 3513 0 
L 2938 0 
L 2938 2094 
Q 2938 2591 2744 2837 
Q 2550 3084 2163 3084 
Q 1697 3084 1428 2787 
Q 1159 2491 1159 1978 
L 1159 0 
L 581 0 
L 581 3500 
L 1159 3500 
L 1159 2956 
Q 1366 3272 1645 3428 
Q 1925 3584 2291 3584 
Q 2894 3584 3203 3211 
Q 3513 2838 3513 2113 
z
" transform="scale(0.015625)"/>
       <path id="DejaVuSans-74" d="M 1172 4494 
L 1172 3500 
L 2356 3500 
L 2356 3053 
L 1172 3053 
L 1172 1153 
Q 1172 725 1289 603 
Q 1406 481 1766 481 
L 2356 481 
L 2356 0 
L 1766 0 
Q 1100 0 847 248 
Q 594 497 594 1153 
L 594 3053 
L 172 3053 
L 172 3500 
L 594 3500 
L 594 4494 
L 1172 4494 
z
" transform="scale(0.015625)"/>
       <path id="DejaVuSans-6d" d="M 3328 2828 
Q 3544 3216 3844 3400 
Q 4144 3584 4550 3584 
Q 5097 3584 5394 3201 
Q 5691 2819 5691 2113 
L 5691 0 
L 5113 0 
L 5113 2094 
Q 5113 2597 4934 2840 
Q 4756 3084 4391 3084 
Q 3944 3084 3684 2787 
Q 3425 2491 3425 1978 
L 3425 0 
L 2847 0 
L 2847 2094 
Q 2847 2600 2669 2842 
Q 2491 3084 2119 3084 
Q 1678 3084 1418 2786 
Q 1159 2488 1159 1978 
L 1159 0 
L 581 0 
L 581 3500 
L 1159 3500 
L 1159 2956 
Q 1356 3278 1631 3431 
Q 1906 3584 2284 3584 
Q 2666 3584 2933 3390 
Q 3200 3197 3328 2828 
z
" transform="scale(0.015625)"/>
       <path id="DejaVuSans-69" d="M 603 3500 
L 1178 3500 
L 1178 0 
L 603 0 
L 603 3500 
z
M 603 4863 
L 1178 4863 
L 1178 4134 
L 603 4134 
L 603 4863 
z
" transform="scale(0.015625)"/>
       <path id="DejaVuSans-2f" d="M 1625 4666 
L 2156 4666 
L 531 -594 
L 0 -594 
L 1625 4666 
z
" transform="scale(0.015625)"/>
       <path id="DejaVuSans-56" d="M 1831 0 
L 50 4666 
L 709 4666 
L 2188 738 
L 3669 4666 
L 4325 4666 
L 2547 0 
L 1831 0 
z
" transform="scale(0.015625)"/>
       <path id="DejaVuSans-6c" d="M 603 4863 
L 1178 4863 
L 1178 0 
L 603 0 
L 603 4863 
z
" transform="scale(0.015625)"/>
       <path id="DejaVuSans-64" d="M 2906 2969 
L 2906 4863 
L 3481 4863 
L 3481 0 
L 2906 0 
L 2906 525 
Q 2725 213 2448 61 
Q 2172 -91 1784 -91 
Q 1150 -91 751 415 
Q 353 922 353 1747 
Q 353 2572 751 3078 
Q 1150 3584 1784 3584 
Q 2172 3584 2448 3432 
Q 2725 3281 2906 2969 
z
M 947 1747 
Q 947 1113 1208 752 
Q 1469 391 1925 391 
Q 2381 391 2643 752 
Q 2906 1113 2906 1747 
Q 2906 2381 2643 2742 
Q 2381 3103 1925 3103 
Q 1469 3103 1208 2742 
Q 947 2381 947 1747 
z
" transform="scale(0.015625)"/>
       <path id="DejaVuSans-f3" d="M 1959 3097 
Q 1497 3097 1228 2736 
Q 959 2375 959 1747 
Q 959 1119 1226 758 
Q 1494 397 1959 397 
Q 2419 397 2687 759 
Q 2956 1122 2956 1747 
Q 2956 2369 2687 2733 
Q 2419 3097 1959 3097 
z
M 1959 3584 
Q 2709 3584 3137 3096 
Q 3566 2609 3566 1747 
Q 3566 888 3137 398 
Q 2709 -91 1959 -91 
Q 1206 -91 779 398 
Q 353 888 353 1747 
Q 353 2609 779 3096 
Q 1206 3584 1959 3584 
z
M 2394 5119 
L 3016 5119 
L 1998 3944 
L 1519 3944 
L 2394 5119 
z
" transform="scale(0.015625)"/>
       <path id="DejaVuSans-29" d="M 513 4856 
L 1013 4856 
Q 1481 4119 1714 3412 
Q 1947 2706 1947 2009 
Q 1947 1309 1714 600 
Q 1481 -109 1013 -844 
L 513 -844 
Q 928 -128 1133 580 
Q 1338 1288 1338 2009 
Q 1338 2731 1133 3434 
Q 928 4138 513 4856 
z
" transform="scale(0.015625)"/>
      </defs>
      <use xlink:href="#DejaVuSans-46"/>
      <use xlink:href="#DejaVuSans-31" transform="translate(57.519531 0)"/>
      <use xlink:href="#DejaVuSans-2d" transform="translate(121.142578 0)"/>
      <use xlink:href="#DejaVuSans-73" transform="translate(157.226562 0)"/>
      <use xlink:href="#DejaVuSans-63" transform="translate(209.326172 0)"/>
      <use xlink:href="#DejaVuSans-6f" transform="translate(264.306641 0)"/>
      <use xlink:href="#DejaVuSans-72" transform="translate(325.488281 0)"/>
      <use xlink:href="#DejaVuSans-65" transform="translate(364.351562 0)"/>
      <use xlink:href="#DejaVuSans-20" transform="translate(425.875 0)"/>
      <use xlink:href="#DejaVuSans-28" transform="translate(457.662109 0)"/>
      <use xlink:href="#DejaVuSans-45" transform="translate(496.675781 0)"/>
      <use xlink:href="#DejaVuSans-6e" transform="translate(559.859375 0)"/>
      <use xlink:href="#DejaVuSans-74" transform="translate(623.238281 0)"/>
      <use xlink:href="#DejaVuSans-72" transform="translate(662.447266 0)"/>
      <use xlink:href="#DejaVuSans-65" transform="translate(701.310547 0)"/>
      <use xlink:href="#DejaVuSans-6e" transform="translate(762.833984 0)"/>
      <use xlink:href="#DejaVuSans-61" transform="translate(826.212891 0)"/>
      <use xlink:href="#DejaVuSans-6d" transform="translate(887.492188 0)"/>
      <use xlink:href="#DejaVuSans-69" transform="translate(984.904297 0)"/>
      <use xlink:href="#DejaVuSans-65" transform="translate(1012.6875 0)"/>
      <use xlink:href="#DejaVuSans-6e" transform="translate(1074.210938 0)"/>
      <use xlink:href="#DejaVuSans-74" transform="translate(1137.589844 0)"/>
      <use xlink:href="#DejaVuSans-6f" transform="translate(1176.798828 0)"/>
      <use xlink:href="#DejaVuSans-2f" transform="translate(1237.980469 0)"/>
      <use xlink:href="#DejaVuSans-56" transform="translate(1271.671875 0)"/>
      <use xlink:href="#DejaVuSans-61" transform="translate(1332.330078 0)"/>
      <use xlink:href="#DejaVuSans-6c" transform="translate(1393.609375 0)"/>
      <use xlink:href="#DejaVuSans-69" transform="translate(1421.392578 0)"/>
      <use xlink:href="#DejaVuSans-64" transform="translate(1449.175781 0)"/>
      <use xlink:href="#DejaVuSans-61" transform="translate(1512.652344 0)"/>
      <use xlink:href="#DejaVuSans-63" transform="translate(1573.931641 0)"/>
      <use xlink:href="#DejaVuSans-69" transform="translate(1628.912109 0)"/>
      <use xlink:href="#DejaVuSans-f3" transform="translate(1656.695312 0)"/>
      <use xlink:href="#DejaVuSans-6e" transform="translate(1717.876953 0)"/>
      <use xlink:href="#DejaVuSans-29" transform="translate(1781.255859 0)"/>
     </g>
    </g>
   </g>
   <g id="line2d_23">
    <path d="M 94.314545 505.685455 
L 103.000312 505.685455 
L 111.686079 505.685455 
L 120.371846 505.685455 
L 129.057612 504.144311 
L 137.743379 495.520346 
L 146.429146 321.934946 
L 155.114913 381.665519 
L 163.80068 499.557083 
L 172.486446 262.86147 
L 181.172213 175.902593 
L 189.85798 228.680828 
L 198.543747 231.114806 
L 207.229513 282.161034 
L 215.91528 364.75371 
L 224.601047 260.183792 
L 233.286814 207.581241 
L 241.97258 332.438305 
L 250.658347 190.906784 
L 259.344114 175.335138 
L 268.029881 238.402739 
L 276.715647 167.227398 
L 285.401414 216.690645 
L 294.087181 187.355473 
L 302.772948 181.539374 
L 311.458714 161.286117 
L 320.144481 163.023666 
L 328.830248 151.464444 
L 337.516015 154.707412 
L 346.201781 189.698053 
L 354.887548 169.300834 
L 363.573315 123.418501 
L 372.259082 135.448504 
L 380.944848 138.626023 
L 389.630615 126.373755 
L 398.316382 177.022816 
L 407.002149 139.773562 
L 415.687916 127.974664 
L 424.373682 117.430119 
L 433.059449 117.864395 
L 441.745216 121.163137 
L 450.430983 130.156217 
L 459.116749 120.162186 
L 467.802516 107.360753 
L 476.488283 120.633018 
L 485.17405 109.538618 
L 493.859816 115.211826 
L 502.545583 114.374971 
L 511.23135 106.196962 
L 519.917117 100.466722 
L 528.602883 99.378161 
L 537.28865 98.247767 
L 545.974417 101.642631 
L 554.660184 95.22255 
L 563.34595 103.983778 
L 572.031717 102.001909 
L 580.717484 103.846382 
L 589.403251 96.772013 
L 598.089017 105.47607 
L 606.774784 89.856593 
L 615.460551 87.475091 
L 624.146318 85.698854 
L 632.832084 94.101362 
L 641.517851 85.646414 
L 650.203618 88.609672 
L 658.889385 82.491988 
L 667.575152 80.055501 
L 676.260918 84.446015 
L 684.946685 80.762911 
L 693.632452 76.771252 
L 702.318219 77.50162 
L 711.003985 76.715121 
L 719.689752 75.649125 
L 728.375519 73.348153 
L 737.061286 72.696932 
L 745.747052 71.594486 
L 754.432819 75.898354 
L 763.118586 75.043811 
L 771.804353 70.397227 
L 780.490119 73.231072 
L 789.175886 66.160929 
L 797.861653 68.39641 
L 806.54742 67.2508 
L 815.233186 65.419277 
L 823.918953 64.025928 
L 832.60472 63.296859 
L 841.290487 63.902996 
L 849.976253 61.588323 
L 858.66202 61.615846 
L 867.347787 61.054393 
L 876.033554 60.069947 
L 884.71932 58.919793 
L 893.405087 59.249246 
L 902.090854 57.873464 
L 910.776621 56.138833 
L 919.462388 56.324834 
L 928.148154 57.202249 
L 936.833921 54.790978 
L 945.519688 54.376387 
L 954.205455 53.794545 
" clip-path="url(#p426500ee7a)" style="fill: none; stroke: #440154; stroke-width: 2; stroke-linecap: square"/>
   </g>
   <g id="line2d_24">
    <path d="M 94.314545 505.685455 
L 103.000312 505.685455 
L 111.686079 505.685455 
L 120.371846 505.685455 
L 129.057612 504.144311 
L 137.743379 495.520346 
L 146.429146 321.934946 
L 155.114913 381.665519 
L 163.80068 499.557083 
L 172.486446 262.86147 
L 181.172213 175.902593 
L 189.85798 228.680828 
L 198.543747 231.114806 
L 207.229513 282.161034 
L 215.91528 364.75371 
L 224.601047 260.183792 
L 233.286814 207.581241 
L 241.97258 332.438305 
L 250.658347 190.906784 
L 259.344114 175.335138 
L 268.029881 238.402739 
L 276.715647 167.227398 
L 285.401414 216.690645 
L 294.087181 187.355473 
L 302.772948 181.539374 
L 311.458714 161.286117 
L 320.144481 163.023666 
L 328.830248 151.464444 
L 337.516015 154.707412 
L 346.201781 189.698053 
L 354.887548 169.300834 
L 363.573315 123.418501 
L 372.259082 135.448504 
L 380.944848 138.626023 
L 389.630615 126.373755 
L 398.316382 177.022816 
L 407.002149 139.773562 
L 415.687916 127.974664 
L 424.373682 117.430119 
L 433.059449 117.864395 
L 441.745216 121.163137 
L 450.430983 130.156217 
L 459.116749 120.162186 
L 467.802516 107.360753 
L 476.488283 120.633018 
L 485.17405 109.538618 
L 493.859816 115.211826 
L 502.545583 114.374971 
L 511.23135 106.196962 
L 519.917117 100.466722 
L 528.602883 99.378161 
L 537.28865 98.247767 
L 545.974417 101.642631 
L 554.660184 95.22255 
L 563.34595 103.983778 
L 572.031717 102.001909 
L 580.717484 103.846382 
L 589.403251 96.772013 
L 598.089017 105.47607 
L 606.774784 89.856593 
L 615.460551 87.475091 
L 624.146318 85.698854 
L 632.832084 94.101362 
L 641.517851 85.646414 
L 650.203618 88.609672 
L 658.889385 82.491988 
L 667.575152 80.055501 
L 676.260918 84.446015 
L 684.946685 80.762911 
L 693.632452 76.771252 
L 702.318219 77.50162 
L 711.003985 76.715121 
L 719.689752 75.649125 
L 728.375519 73.348153 
L 737.061286 72.696932 
L 745.747052 71.594486 
L 754.432819 75.898354 
L 763.118586 75.043811 
L 771.804353 70.397227 
L 780.490119 73.231072 
L 789.175886 66.160929 
L 797.861653 68.39641 
L 806.54742 67.2508 
L 815.233186 65.419277 
L 823.918953 64.025928 
L 832.60472 63.296859 
L 841.290487 63.902996 
L 849.976253 61.588323 
L 858.66202 61.615846 
L 867.347787 61.054393 
L 876.033554 60.069947 
L 884.71932 58.919793 
L 893.405087 59.249246 
L 902.090854 57.873464 
L 910.776621 56.138833 
L 919.462388 56.324834 
L 928.148154 57.202249 
L 936.833921 54.790978 
L 945.519688 54.376387 
L 954.205455 53.794545 
" clip-path="url(#p426500ee7a)" style="fill: none; stroke: #3b528b; stroke-width: 2; stroke-linecap: square"/>
   </g>
   <g id="line2d_25">
    <path d="M 94.314545 499.078134 
L 103.000312 446.333247 
L 111.686079 505.685455 
L 120.371846 504.65692 
L 129.057612 398.373161 
L 137.743379 310.57478 
L 146.429146 236.48239 
L 155.114913 277.274776 
L 163.80068 363.549474 
L 172.486446 222.530775 
L 181.172213 186.761593 
L 189.85798 191.554112 
L 198.543747 204.620489 
L 207.229513 231.029795 
L 215.91528 289.424975 
L 224.601047 212.288632 
L 233.286814 193.50529 
L 241.97258 288.845055 
L 250.658347 186.839876 
L 259.344114 175.266189 
L 268.029881 209.975819 
L 276.715647 166.719909 
L 285.401414 193.460939 
L 294.087181 185.213631 
L 302.772948 184.091207 
L 311.458714 164.557026 
L 320.144481 160.9901 
L 328.830248 151.301785 
L 337.516015 154.851827 
L 346.201781 183.404713 
L 354.887548 169.198624 
L 363.573315 129.552426 
L 372.259082 144.302365 
L 380.944848 143.120438 
L 389.630615 129.660352 
L 398.316382 171.036136 
L 407.002149 148.898119 
L 415.687916 129.961297 
L 424.373682 122.864109 
L 433.059449 121.558243 
L 441.745216 121.62955 
L 450.430983 137.26067 
L 459.116749 120.662695 
L 467.802516 114.774909 
L 476.488283 127.033077 
L 485.17405 113.923551 
L 493.859816 120.211323 
L 502.545583 116.318095 
L 511.23135 112.424919 
L 519.917117 106.36421 
L 528.602883 107.840768 
L 537.28865 106.848641 
L 545.974417 108.622373 
L 554.660184 105.432494 
L 563.34595 108.447152 
L 572.031717 104.981373 
L 580.717484 110.721173 
L 589.403251 103.088223 
L 598.089017 111.519065 
L 606.774784 97.09075 
L 615.460551 93.965527 
L 624.146318 91.897004 
L 632.832084 103.867876 
L 641.517851 93.003966 
L 650.203618 97.646591 
L 658.889385 88.45324 
L 667.575152 87.839113 
L 676.260918 90.937104 
L 684.946685 86.741264 
L 693.632452 83.387343 
L 702.318219 83.126326 
L 711.003985 82.517129 
L 719.689752 82.962185 
L 728.375519 79.993588 
L 737.061286 79.58005 
L 745.747052 78.444375 
L 754.432819 80.973527 
L 763.118586 77.858422 
L 771.804353 75.990195 
L 780.490119 79.843609 
L 789.175886 73.584966 
L 797.861653 74.177007 
L 806.54742 73.667214 
L 815.233186 71.568862 
L 823.918953 71.635588 
L 832.60472 69.552413 
L 841.290487 72.611985 
L 849.976253 67.56323 
L 858.66202 66.885835 
L 867.347787 66.843304 
L 876.033554 66.619412 
L 884.71932 66.323059 
L 893.405087 65.84117 
L 902.090854 64.546498 
L 910.776621 63.930048 
L 919.462388 62.863399 
L 928.148154 63.5997 
L 936.833921 62.003142 
L 945.519688 61.904465 
L 954.205455 60.055497 
" clip-path="url(#p426500ee7a)" style="fill: none; stroke: #21918c; stroke-width: 2; stroke-linecap: square"/>
   </g>
   <g id="line2d_26">
    <path d="M 94.314545 499.078134 
L 103.000312 446.333247 
L 111.686079 505.685455 
L 120.371846 504.65692 
L 129.057612 398.373161 
L 137.743379 310.57478 
L 146.429146 236.48239 
L 155.114913 277.274776 
L 163.80068 363.549474 
L 172.486446 222.530775 
L 181.172213 186.761593 
L 189.85798 191.554112 
L 198.543747 204.620489 
L 207.229513 231.029795 
L 215.91528 289.424975 
L 224.601047 212.288632 
L 233.286814 193.50529 
L 241.97258 288.845055 
L 250.658347 186.839876 
L 259.344114 175.266189 
L 268.029881 209.975819 
L 276.715647 166.719909 
L 285.401414 193.460939 
L 294.087181 185.213631 
L 302.772948 184.091207 
L 311.458714 164.557026 
L 320.144481 160.9901 
L 328.830248 151.301785 
L 337.516015 154.851827 
L 346.201781 183.404713 
L 354.887548 169.198624 
L 363.573315 129.552426 
L 372.259082 144.302365 
L 380.944848 143.120438 
L 389.630615 129.660352 
L 398.316382 171.036136 
L 407.002149 148.898119 
L 415.687916 129.961297 
L 424.373682 122.864109 
L 433.059449 121.558243 
L 441.745216 121.62955 
L 450.430983 137.26067 
L 459.116749 120.662695 
L 467.802516 114.774909 
L 476.488283 127.033077 
L 485.17405 113.923551 
L 493.859816 120.211323 
L 502.545583 116.318095 
L 511.23135 112.424919 
L 519.917117 106.36421 
L 528.602883 107.840768 
L 537.28865 106.848641 
L 545.974417 108.622373 
L 554.660184 105.432494 
L 563.34595 108.447152 
L 572.031717 104.981373 
L 580.717484 110.721173 
L 589.403251 103.088223 
L 598.089017 111.519065 
L 606.774784 97.09075 
L 615.460551 93.965527 
L 624.146318 91.897004 
L 632.832084 103.867876 
L 641.517851 93.003966 
L 650.203618 97.646591 
L 658.889385 88.45324 
L 667.575152 87.839113 
L 676.260918 90.937104 
L 684.946685 86.741264 
L 693.632452 83.387343 
L 702.318219 83.126326 
L 711.003985 82.517129 
L 719.689752 82.962185 
L 728.375519 79.993588 
L 737.061286 79.58005 
L 745.747052 78.444375 
L 754.432819 80.973527 
L 763.118586 77.858422 
L 771.804353 75.990195 
L 780.490119 79.843609 
L 789.175886 73.584966 
L 797.861653 74.177007 
L 806.54742 73.667214 
L 815.233186 71.568862 
L 823.918953 71.635588 
L 832.60472 69.552413 
L 841.290487 72.611985 
L 849.976253 67.56323 
L 858.66202 66.885835 
L 867.347787 66.843304 
L 876.033554 66.619412 
L 884.71932 66.323059 
L 893.405087 65.84117 
L 902.090854 64.546498 
L 910.776621 63.930048 
L 919.462388 62.863399 
L 928.148154 63.5997 
L 936.833921 62.003142 
L 945.519688 61.904465 
L 954.205455 60.055497 
" clip-path="url(#p426500ee7a)" style="fill: none; stroke: #5ec962; stroke-width: 2; stroke-linecap: square"/>
   </g>
   <g id="line2d_27">
    <path d="M 94.314545 505.685455 
L 103.000312 505.685455 
L 111.686079 505.685455 
L 120.371846 505.685455 
L 129.057612 505.685455 
L 137.743379 505.685455 
L 146.429146 505.170911 
L 155.114913 505.685455 
L 163.80068 505.685455 
L 172.486446 505.685455 
L 181.172213 503.631699 
L 189.85798 500.064779 
L 198.543747 427.457426 
L 207.229513 486.614942 
L 215.91528 505.685455 
L 224.601047 497.031317 
L 233.286814 492.035089 
L 241.97258 505.170911 
L 250.658347 402.117174 
L 259.344114 397.754652 
L 268.029881 385.344108 
L 276.715647 351.364754 
L 285.401414 369.037349 
L 294.087181 324.15586 
L 302.772948 344.396859 
L 311.458714 286.750616 
L 320.144481 261.80026 
L 328.830248 264.157269 
L 337.516015 251.45986 
L 346.201781 314.378107 
L 354.887548 288.016859 
L 363.573315 177.778047 
L 372.259082 231.013274 
L 380.944848 250.146058 
L 389.630615 210.359526 
L 398.316382 256.154132 
L 407.002149 233.541178 
L 415.687916 211.415775 
L 424.373682 197.848876 
L 433.059449 193.81815 
L 441.745216 198.025606 
L 450.430983 215.598922 
L 459.116749 184.523562 
L 467.802516 164.622939 
L 476.488283 181.902002 
L 485.17405 164.044839 
L 493.859816 193.614953 
L 502.545583 183.264228 
L 511.23135 183.765184 
L 519.917117 140.569635 
L 528.602883 148.668222 
L 537.28865 156.322066 
L 545.974417 162.819917 
L 554.660184 159.055856 
L 563.34595 161.076533 
L 572.031717 156.705955 
L 580.717484 167.098967 
L 589.403251 163.261877 
L 598.089017 179.713104 
L 606.774784 143.243377 
L 615.460551 142.813233 
L 624.146318 137.116661 
L 632.832084 151.156797 
L 641.517851 128.493065 
L 650.203618 147.341949 
L 658.889385 140.07461 
L 667.575152 126.296229 
L 676.260918 133.975722 
L 684.946685 132.962157 
L 693.632452 120.892207 
L 702.318219 126.787034 
L 711.003985 128.618289 
L 719.689752 129.302449 
L 728.375519 122.855989 
L 737.061286 127.974664 
L 745.747052 120.26287 
L 754.432819 126.99303 
L 763.118586 127.015814 
L 771.804353 124.556749 
L 780.490119 114.002361 
L 789.175886 118.90249 
L 797.861653 125.961775 
L 806.54742 117.76869 
L 815.233186 116.015224 
L 823.918953 116.535416 
L 832.60472 112.035838 
L 841.290487 120.371635 
L 849.976253 111.613635 
L 858.66202 109.950123 
L 867.347787 108.133063 
L 876.033554 109.739793 
L 884.71932 112.696057 
L 893.405087 108.682742 
L 902.090854 110.025852 
L 910.776621 106.97353 
L 919.462388 106.112768 
L 928.148154 111.529167 
L 936.833921 107.37485 
L 945.519688 110.027077 
L 954.205455 104.067776 
" clip-path="url(#p426500ee7a)" style="fill: none; stroke: #fde725; stroke-width: 2; stroke-linecap: square"/>
   </g>
   <g id="patch_3">
    <path d="M 51.32 528.28 
L 51.32 31.2 
" style="fill: none; stroke: #000000; stroke-width: 0.8; stroke-linejoin: miter; stroke-linecap: square"/>
   </g>
   <g id="patch_4">
    <path d="M 997.2 528.28 
L 997.2 31.2 
" style="fill: none; stroke: #000000; stroke-width: 0.8; stroke-linejoin: miter; stroke-linecap: square"/>
   </g>
   <g id="patch_5">
    <path d="M 51.32 528.28 
L 997.2 528.28 
" style="fill: none; stroke: #000000; stroke-width: 0.8; stroke-linejoin: miter; stroke-linecap: square"/>
   </g>
   <g id="patch_6">
    <path d="M 51.32 31.2 
L 997.2 31.2 
" style="fill: none; stroke: #000000; stroke-width: 0.8; stroke-linejoin: miter; stroke-linecap: square"/>
   </g>
   <g id="text_14">
    <!-- Curvas de Aprendizaje Comparativas (F1-score vs. Época) - Top 5 Modelos -->
    <g transform="translate(227.62625 25.2) scale(0.16 -0.16)">
     <defs>
      <path id="DejaVuSans-43" d="M 4122 4306 
L 4122 3641 
Q 3803 3938 3442 4084 
Q 3081 4231 2675 4231 
Q 1875 4231 1450 3742 
Q 1025 3253 1025 2328 
Q 1025 1406 1450 917 
Q 1875 428 2675 428 
Q 3081 428 3442 575 
Q 3803 722 4122 1019 
L 4122 359 
Q 3791 134 3420 21 
Q 3050 -91 2638 -91 
Q 1578 -91 968 557 
Q 359 1206 359 2328 
Q 359 3453 968 4101 
Q 1578 4750 2638 4750 
Q 3056 4750 3426 4639 
Q 3797 4528 4122 4306 
z
" transform="scale(0.015625)"/>
      <path id="DejaVuSans-75" d="M 544 1381 
L 544 3500 
L 1119 3500 
L 1119 1403 
Q 1119 906 1312 657 
Q 1506 409 1894 409 
Q 2359 409 2629 706 
Q 2900 1003 2900 1516 
L 2900 3500 
L 3475 3500 
L 3475 0 
L 2900 0 
L 2900 538 
Q 2691 219 2414 64 
Q 2138 -91 1772 -91 
Q 1169 -91 856 284 
Q 544 659 544 1381 
z
M 1991 3584 
L 1991 3584 
z
" transform="scale(0.015625)"/>
      <path id="DejaVuSans-76" d="M 191 3500 
L 800 3500 
L 1894 563 
L 2988 3500 
L 3597 3500 
L 2284 0 
L 1503 0 
L 191 3500 
z
" transform="scale(0.015625)"/>
      <path id="DejaVuSans-41" d="M 2188 4044 
L 1331 1722 
L 3047 1722 
L 2188 4044 
z
M 1831 4666 
L 2547 4666 
L 4325 0 
L 3669 0 
L 3244 1197 
L 1141 1197 
L 716 0 
L 50 0 
L 1831 4666 
z
" transform="scale(0.015625)"/>
      <path id="DejaVuSans-7a" d="M 353 3500 
L 3084 3500 
L 3084 2975 
L 922 459 
L 3084 459 
L 3084 0 
L 275 0 
L 275 525 
L 2438 3041 
L 353 3041 
L 353 3500 
z
" transform="scale(0.015625)"/>
      <path id="DejaVuSans-6a" d="M 603 3500 
L 1178 3500 
L 1178 -63 
Q 1178 -731 923 -1031 
Q 669 -1331 103 -1331 
L -116 -1331 
L -116 -844 
L 38 -844 
Q 366 -844 484 -692 
Q 603 -541 603 -63 
L 603 3500 
z
M 603 4863 
L 1178 4863 
L 1178 4134 
L 603 4134 
L 603 4863 
z
" transform="scale(0.015625)"/>
      <path id="DejaVuSans-54" d="M -19 4666 
L 3928 4666 
L 3928 4134 
L 2272 4134 
L 2272 0 
L 1638 0 
L 1638 4134 
L -19 4134 
L -19 4666 
z
" transform="scale(0.015625)"/>
      <path id="DejaVuSans-35" d="M 691 4666 
L 3169 4666 
L 3169 4134 
L 1269 4134 
L 1269 2991 
Q 1406 3038 1543 3061 
Q 1681 3084 1819 3084 
Q 2600 3084 3056 2656 
Q 3513 2228 3513 1497 
Q 3513 744 3044 326 
Q 2575 -91 1722 -91 
Q 1428 -91 1123 -41 
Q 819 9 494 109 
L 494 744 
Q 775 591 1075 516 
Q 1375 441 1709 441 
Q 2250 441 2565 725 
Q 2881 1009 2881 1497 
Q 2881 1984 2565 2268 
Q 2250 2553 1709 2553 
Q 1456 2553 1204 2497 
Q 953 2441 691 2322 
L 691 4666 
z
" transform="scale(0.015625)"/>
      <path id="DejaVuSans-4d" d="M 628 4666 
L 1569 4666 
L 2759 1491 
L 3956 4666 
L 4897 4666 
L 4897 0 
L 4281 0 
L 4281 4097 
L 3078 897 
L 2444 897 
L 1241 4097 
L 1241 0 
L 628 0 
L 628 4666 
z
" transform="scale(0.015625)"/>
     </defs>
     <use xlink:href="#DejaVuSans-43"/>
     <use xlink:href="#DejaVuSans-75" transform="translate(69.824219 0)"/>
     <use xlink:href="#DejaVuSans-72" transform="translate(133.203125 0)"/>
     <use xlink:href="#DejaVuSans-76" transform="translate(174.316406 0)"/>
     <use xlink:href="#DejaVuSans-61" transform="translate(233.496094 0)"/>
     <use xlink:href="#DejaVuSans-73" transform="translate(294.775391 0)"/>
     <use xlink:href="#DejaVuSans-20" transform="translate(346.875 0)"/>
     <use xlink:href="#DejaVuSans-64" transform="translate(378.662109 0)"/>
     <use xlink:href="#DejaVuSans-65" transform="translate(442.138672 0)"/>
     <use xlink:href="#DejaVuSans-20" transform="translate(503.662109 0)"/>
     <use xlink:href="#DejaVuSans-41" transform="translate(535.449219 0)"/>
     <use xlink:href="#DejaVuSans-70" transform="translate(603.857422 0)"/>
     <use xlink:href="#DejaVuSans-72" transform="translate(667.333984 0)"/>
     <use xlink:href="#DejaVuSans-65" transform="translate(706.197266 0)"/>
     <use xlink:href="#DejaVuSans-6e" transform="translate(767.720703 0)"/>
     <use xlink:href="#DejaVuSans-64" transform="translate(831.099609 0)"/>
     <use xlink:href="#DejaVuSans-69" transform="translate(894.576172 0)"/>
     <use xlink:href="#DejaVuSans-7a" transform="translate(922.359375 0)"/>
     <use xlink:href="#DejaVuSans-61" transform="translate(974.849609 0)"/>
     <use xlink:href="#DejaVuSans-6a" transform="translate(1036.128906 0)"/>
     <use xlink:href="#DejaVuSans-65" transform="translate(1063.912109 0)"/>
     <use xlink:href="#DejaVuSans-20" transform="translate(1125.435547 0)"/>
     <use xlink:href="#DejaVuSans-43" transform="translate(1157.222656 0)"/>
     <use xlink:href="#DejaVuSans-6f" transform="translate(1227.046875 0)"/>
     <use xlink:href="#DejaVuSans-6d" transform="translate(1288.228516 0)"/>
     <use xlink:href="#DejaVuSans-70" transform="translate(1385.640625 0)"/>
     <use xlink:href="#DejaVuSans-61" transform="translate(1449.117188 0)"/>
     <use xlink:href="#DejaVuSans-72" transform="translate(1510.396484 0)"/>
     <use xlink:href="#DejaVuSans-61" transform="translate(1551.509766 0)"/>
     <use xlink:href="#DejaVuSans-74" transform="translate(1612.789062 0)"/>
     <use xlink:href="#DejaVuSans-69" transform="translate(1651.998047 0)"/>
     <use xlink:href="#DejaVuSans-76" transform="translate(1679.78125 0)"/>
     <use xlink:href="#DejaVuSans-61" transform="translate(1738.960938 0)"/>
     <use xlink:href="#DejaVuSans-73" transform="translate(1800.240234 0)"/>
     <use xlink:href="#DejaVuSans-20" transform="translate(1852.339844 0)"/>
     <use xlink:href="#DejaVuSans-28" transform="translate(1884.126953 0)"/>
     <use xlink:href="#DejaVuSans-46" transform="translate(1923.140625 0)"/>
     <use xlink:href="#DejaVuSans-31" transform="translate(1980.660156 0)"/>
     <use xlink:href="#DejaVuSans-2d" transform="translate(2044.283203 0)"/>
     <use xlink:href="#DejaVuSans-73" transform="translate(2080.367188 0)"/>
     <use xlink:href="#DejaVuSans-63" transform="translate(2132.466797 0)"/>
     <use xlink:href="#DejaVuSans-6f" transform="translate(2187.447266 0)"/>
     <use xlink:href="#DejaVuSans-72" transform="translate(2248.628906 0)"/>
     <use xlink:href="#DejaVuSans-65" transform="translate(2287.492188 0)"/>
     <use xlink:href="#DejaVuSans-20" transform="translate(2349.015625 0)"/>
     <use xlink:href="#DejaVuSans-76" transform="translate(2380.802734 0)"/>
     <use xlink:href="#DejaVuSans-73" transform="translate(2439.982422 0)"/>
     <use xlink:href="#DejaVuSans-2e" transform="translate(2492.082031 0)"/>
     <use xlink:href="#DejaVuSans-20" transform="translate(2523.869141 0)"/>
     <use xlink:href="#DejaVuSans-c9" transform="translate(2555.65625 0)"/>
     <use xlink:href="#DejaVuSans-70" transform="translate(2618.839844 0)"/>
     <use xlink:href="#DejaVuSans-6f" transform="translate(2682.316406 0)"/>
     <use xlink:href="#DejaVuSans-63" transform="translate(2743.498047 0)"/>
     <use xlink:href="#DejaVuSans-61" transform="translate(2798.478516 0)"/>
     <use xlink:href="#DejaVuSans-29" transform="translate(2859.757812 0)"/>
     <use xlink:href="#DejaVuSans-20" transform="translate(2898.771484 0)"/>
     <use xlink:href="#DejaVuSans-2d" transform="translate(2930.558594 0)"/>
     <use xlink:href="#DejaVuSans-20" transform="translate(2966.642578 0)"/>
     <use xlink:href="#DejaVuSans-54" transform="translate(2998.429688 0)"/>
     <use xlink:href="#DejaVuSans-6f" transform="translate(3042.513672 0)"/>
     <use xlink:href="#DejaVuSans-70" transform="translate(3103.695312 0)"/>
     <use xlink:href="#DejaVuSans-20" transform="translate(3167.171875 0)"/>
     <use xlink:href="#DejaVuSans-35" transform="translate(3198.958984 0)"/>
     <use xlink:href="#DejaVuSans-20" transform="translate(3262.582031 0)"/>
     <use xlink:href="#DejaVuSans-4d" transform="translate(3294.369141 0)"/>
     <use xlink:href="#DejaVuSans-6f" transform="translate(3380.648438 0)"/>
     <use xlink:href="#DejaVuSans-64" transform="translate(3441.830078 0)"/>
     <use xlink:href="#DejaVuSans-65" transform="translate(3505.306641 0)"/>
     <use xlink:href="#DejaVuSans-6c" transform="translate(3566.830078 0)"/>
     <use xlink:href="#DejaVuSans-6f" transform="translate(3594.613281 0)"/>
     <use xlink:href="#DejaVuSans-73" transform="translate(3655.794922 0)"/>
    </g>
   </g>
   <g id="legend_1">
    <g id="patch_7">
     <path d="M 916.804688 523.28 
L 990.2 523.28 
Q 992.2 523.28 992.2 521.28 
L 992.2 433.81125 
Q 992.2 431.81125 990.2 431.81125 
L 916.804688 431.81125 
Q 914.804688 431.81125 914.804688 433.81125 
L 914.804688 521.28 
Q 914.804688 523.28 916.804688 523.28 
z
" style="fill: #ffffff; opacity: 0.8; stroke: #cccccc; stroke-linejoin: miter"/>
    </g>
    <g id="text_15">
     <!-- Configuración -->
     <g transform="translate(918.804688 443.809687) scale(0.1 -0.1)">
      <defs>
       <path id="DejaVuSans-66" d="M 2375 4863 
L 2375 4384 
L 1825 4384 
Q 1516 4384 1395 4259 
Q 1275 4134 1275 3809 
L 1275 3500 
L 2222 3500 
L 2222 3053 
L 1275 3053 
L 1275 0 
L 697 0 
L 697 3053 
L 147 3053 
L 147 3500 
L 697 3500 
L 697 3744 
Q 697 4328 969 4595 
Q 1241 4863 1831 4863 
L 2375 4863 
z
" transform="scale(0.015625)"/>
       <path id="DejaVuSans-67" d="M 2906 1791 
Q 2906 2416 2648 2759 
Q 2391 3103 1925 3103 
Q 1463 3103 1205 2759 
Q 947 2416 947 1791 
Q 947 1169 1205 825 
Q 1463 481 1925 481 
Q 2391 481 2648 825 
Q 2906 1169 2906 1791 
z
M 3481 434 
Q 3481 -459 3084 -895 
Q 2688 -1331 1869 -1331 
Q 1566 -1331 1297 -1286 
Q 1028 -1241 775 -1147 
L 775 -588 
Q 1028 -725 1275 -790 
Q 1522 -856 1778 -856 
Q 2344 -856 2625 -561 
Q 2906 -266 2906 331 
L 2906 616 
Q 2728 306 2450 153 
Q 2172 0 1784 0 
Q 1141 0 747 490 
Q 353 981 353 1791 
Q 353 2603 747 3093 
Q 1141 3584 1784 3584 
Q 2172 3584 2450 3431 
Q 2728 3278 2906 2969 
L 2906 3500 
L 3481 3500 
L 3481 434 
z
" transform="scale(0.015625)"/>
      </defs>
      <use xlink:href="#DejaVuSans-43"/>
      <use xlink:href="#DejaVuSans-6f" transform="translate(69.824219 0)"/>
      <use xlink:href="#DejaVuSans-6e" transform="translate(131.005859 0)"/>
      <use xlink:href="#DejaVuSans-66" transform="translate(194.384766 0)"/>
      <use xlink:href="#DejaVuSans-69" transform="translate(229.589844 0)"/>
      <use xlink:href="#DejaVuSans-67" transform="translate(257.373047 0)"/>
      <use xlink:href="#DejaVuSans-75" transform="translate(320.849609 0)"/>
      <use xlink:href="#DejaVuSans-72" transform="translate(384.228516 0)"/>
      <use xlink:href="#DejaVuSans-61" transform="translate(425.341797 0)"/>
      <use xlink:href="#DejaVuSans-63" transform="translate(486.621094 0)"/>
      <use xlink:href="#DejaVuSans-69" transform="translate(541.601562 0)"/>
      <use xlink:href="#DejaVuSans-f3" transform="translate(569.384766 0)"/>
      <use xlink:href="#DejaVuSans-6e" transform="translate(630.566406 0)"/>
     </g>
    </g>
    <g id="line2d_28">
     <path d="M 936.321094 454.987813 
L 946.321094 454.987813 
L 956.321094 454.987813 
" style="fill: none; stroke: #440154; stroke-width: 2; stroke-linecap: square"/>
    </g>
    <g id="text_16">
     <!-- 0 -->
     <g transform="translate(964.321094 458.487813) scale(0.1 -0.1)">
      <use xlink:href="#DejaVuSans-30"/>
     </g>
    </g>
    <g id="line2d_29">
     <path d="M 936.321094 469.665938 
L 946.321094 469.665938 
L 956.321094 469.665938 
" style="fill: none; stroke: #3b528b; stroke-width: 2; stroke-linecap: square"/>
    </g>
    <g id="text_17">
     <!-- 1 -->
     <g transform="translate(964.321094 473.165938) scale(0.1 -0.1)">
      <use xlink:href="#DejaVuSans-31"/>
     </g>
    </g>
    <g id="line2d_30">
     <path d="M 936.321094 484.344063 
L 946.321094 484.344063 
L 956.321094 484.344063 
" style="fill: none; stroke: #21918c; stroke-width: 2; stroke-linecap: square"/>
    </g>
    <g id="text_18">
     <!-- 2 -->
     <g transform="translate(964.321094 487.844063) scale(0.1 -0.1)">
      <use xlink:href="#DejaVuSans-32"/>
     </g>
    </g>
    <g id="line2d_31">
     <path d="M 936.321094 499.022188 
L 946.321094 499.022188 
L 956.321094 499.022188 
" style="fill: none; stroke: #5ec962; stroke-width: 2; stroke-linecap: square"/>
    </g>
    <g id="text_19">
     <!-- 3 -->
     <g transform="translate(964.321094 502.522188) scale(0.1 -0.1)">
      <defs>
       <path id="DejaVuSans-33" d="M 2597 2516 
Q 3050 2419 3304 2112 
Q 3559 1806 3559 1356 
Q 3559 666 3084 287 
Q 2609 -91 1734 -91 
Q 1441 -91 1130 -33 
Q 819 25 488 141 
L 488 750 
Q 750 597 1062 519 
Q 1375 441 1716 441 
Q 2309 441 2620 675 
Q 2931 909 2931 1356 
Q 2931 1769 2642 2001 
Q 2353 2234 1838 2234 
L 1294 2234 
L 1294 2753 
L 1863 2753 
Q 2328 2753 2575 2939 
Q 2822 3125 2822 3475 
Q 2822 3834 2567 4026 
Q 2313 4219 1838 4219 
Q 1578 4219 1281 4162 
Q 984 4106 628 3988 
L 628 4550 
Q 988 4650 1302 4700 
Q 1616 4750 1894 4750 
Q 2613 4750 3031 4423 
Q 3450 4097 3450 3541 
Q 3450 3153 3228 2886 
Q 3006 2619 2597 2516 
z
" transform="scale(0.015625)"/>
      </defs>
      <use xlink:href="#DejaVuSans-33"/>
     </g>
    </g>
    <g id="line2d_32">
     <path d="M 936.321094 513.700312 
L 946.321094 513.700312 
L 956.321094 513.700312 
" style="fill: none; stroke: #fde725; stroke-width: 2; stroke-linecap: square"/>
    </g>
    <g id="text_20">
     <!-- 4 -->
     <g transform="translate(964.321094 517.200312) scale(0.1 -0.1)">
      <use xlink:href="#DejaVuSans-34"/>
     </g>
    </g>
   </g>
  </g>
 </g>
 <defs>
  <clipPath id="p426500ee7a">
   <rect x="51.32" y="31.2" width="945.88" height="497.08"/>
  </clipPath>
 </defs>
</svg>
